<svg xmlns="http://www.w3.org/2000/svg" xmlns:xlink="http://www.w3.org/1999/xlink" width="500" zoomAndPan="magnify" viewBox="0 0 375 374.999991" height="500" preserveAspectRatio="xMidYMid meet" version="1.0"><defs><clipPath id="b365f91172"><path d="M 1 115.078125 L 374 115.078125 L 374 277 L 1 277 Z M 1 115.078125 " clip-rule="nonzero"/></clipPath><clipPath id="5e69e1264c"><path d="M 6 115.078125 L 311 115.078125 L 311 277 L 6 277 Z M 6 115.078125 " clip-rule="nonzero"/></clipPath><clipPath id="864207c4fc"><path d="M 18 115.078125 L 373 115.078125 L 373 277 L 18 277 Z M 18 115.078125 " clip-rule="nonzero"/></clipPath><clipPath id="76ecf11d49"><path d="M 1 115.078125 L 342 115.078125 L 342 277 L 1 277 Z M 1 115.078125 " clip-rule="nonzero"/></clipPath></defs><g clip-path="url(#b365f91172)"><path fill="#e4e6e7" d="M 372.964844 142.597656 L 372.964844 250.914062 L 372.980469 250.914062 L 372.980469 254.847656 L 372.964844 254.847656 L 372.964844 272.539062 C 372.964844 274.90625 371.042969 276.832031 368.664062 276.832031 L 345.792969 276.832031 C 343.515625 276.832031 341.65625 275.0625 341.503906 272.824219 C 341.355469 275.058594 339.5 276.832031 337.21875 276.832031 L 314.347656 276.832031 C 311.972656 276.832031 310.046875 274.914062 310.046875 272.539062 L 310.046875 272.460938 C 309.871094 274.671875 308.019531 276.410156 305.765625 276.410156 L 282.894531 276.410156 C 280.6875 276.410156 278.871094 274.75 278.625 272.613281 L 278.625 273.636719 C 278.625 275.28125 277.28125 276.621094 275.632812 276.621094 L 252.070312 276.621094 C 250.417969 276.621094 249.078125 275.28125 249.078125 273.636719 L 249.078125 173.78125 L 249.070312 173.78125 L 249.070312 170.449219 L 249.078125 170.449219 L 249.078125 160.851562 C 249.078125 159.289062 250.351562 158.015625 251.917969 158.015625 L 275.785156 158.015625 C 277.253906 158.015625 278.441406 159.128906 278.59375 160.550781 L 278.59375 142.597656 L 278.496094 142.597656 L 278.496094 138.664062 L 278.59375 138.664062 L 278.59375 119.375 C 278.59375 117.003906 280.515625 115.078125 282.894531 115.078125 L 305.765625 115.078125 C 308.140625 115.078125 310.070312 116.996094 310.070312 119.375 L 310.070312 119.449219 C 310.242188 117.238281 312.09375 115.5 314.347656 115.5 L 337.21875 115.5 C 339.492188 115.5 341.355469 117.269531 341.503906 119.507812 C 341.65625 117.277344 343.507812 115.5 345.792969 115.5 L 368.664062 115.5 C 371.035156 115.5 372.964844 117.417969 372.964844 119.796875 L 372.964844 138.664062 L 373.09375 138.664062 L 373.09375 142.597656 Z M 236.03125 241.128906 L 236.023438 241.136719 L 233.3125 238.285156 L 233.332031 238.273438 L 233.597656 238.542969 L 158.949219 159.414062 L 158.910156 159.445312 L 156.214844 156.574219 L 156.242188 156.542969 L 143 142.5 C 141.371094 140.777344 138.652344 140.695312 136.921875 142.320312 L 120.273438 157.972656 C 118.546875 159.597656 118.464844 162.3125 120.089844 164.039062 L 132.242188 176.925781 L 132.210938 176.953125 L 136.046875 180.949219 L 164.9375 211.574219 C 164.792969 211.550781 164.644531 211.527344 164.492188 211.527344 L 162.933594 211.535156 C 162.578125 211.535156 162.292969 211.820312 162.292969 212.175781 C 162.292969 212.527344 162.007812 212.8125 161.652344 212.8125 L 161.179688 212.8125 C 160.824219 212.8125 160.53125 212.527344 160.53125 212.175781 C 160.53125 211.820312 160.242188 211.535156 159.890625 211.535156 L 18.949219 211.535156 C 18.464844 211.535156 18 211.738281 17.691406 212.113281 C 15.917969 214.28125 17.425781 216.710938 19.496094 216.710938 L 19.511719 216.710938 L 19.785156 218.949219 C 19.574219 218.972656 19.40625 219.144531 19.40625 219.363281 C 19.40625 219.566406 19.558594 219.734375 19.753906 219.769531 L 19.421875 221.460938 L 19.339844 221.460938 C 19.105469 221.460938 18.917969 221.652344 18.917969 221.882812 C 18.917969 222.117188 19.105469 222.304688 19.339844 222.304688 L 19.40625 222.304688 L 19.679688 224.019531 C 19.476562 224.050781 19.316406 224.222656 19.316406 224.433594 C 19.316406 224.621094 19.4375 224.773438 19.601562 224.832031 L 19.144531 226.125 L 19.476562 227.984375 C 18.148438 228.066406 16.988281 229.074219 16.921875 230.414062 C 16.847656 231.902344 18.027344 233.128906 19.496094 233.136719 C 14.035156 233.136719 10.132812 233.136719 8.414062 233.136719 C 8.0625 233.136719 7.777344 233.414062 7.777344 233.765625 C 7.78125 234.128906 7.488281 234.421875 7.128906 234.421875 L 6.652344 234.421875 C 6.300781 234.421875 6.011719 234.136719 6.011719 233.78125 C 6.011719 233.429688 5.726562 233.144531 5.371094 233.144531 L 3.8125 233.136719 C 2.375 233.136719 1.199219 234.300781 1.199219 235.738281 L 1.199219 251.96875 C 1.199219 253.515625 2.457031 254.773438 4.136719 254.773438 L 5.265625 254.773438 C 5.671875 254.773438 6.019531 254.441406 6.011719 254.035156 C 6.003906 253.621094 6.34375 253.277344 6.757812 253.277344 L 7.015625 253.277344 C 7.429688 253.277344 7.769531 253.613281 7.761719 254.035156 C 7.753906 254.441406 8.097656 254.773438 8.507812 254.773438 L 19.988281 254.773438 C 19.542969 254.929688 19.121094 255.195312 18.878906 255.511719 C 17.273438 257.625 18.730469 259.941406 20.742188 259.976562 L 21.066406 262.21875 C 20.859375 262.25 20.695312 262.414062 20.695312 262.632812 C 20.695312 262.835938 20.847656 263 21.042969 263.039062 L 20.710938 264.730469 L 20.636719 264.730469 C 20.402344 264.730469 20.214844 264.917969 20.214844 265.152344 C 20.214844 265.382812 20.402344 265.574219 20.636719 265.574219 L 20.703125 265.574219 L 20.972656 267.289062 C 20.769531 267.316406 20.613281 267.492188 20.613281 267.703125 C 20.613281 267.890625 20.734375 268.039062 20.898438 268.101562 L 20.4375 269.394531 L 20.71875 271.257812 C 19.40625 271.363281 18.285156 272.363281 18.210938 273.6875 C 18.132812 275.175781 19.316406 276.417969 20.800781 276.417969 L 161.074219 276.417969 C 161.480469 276.417969 161.824219 276.085938 161.820312 275.679688 C 161.8125 275.265625 162.148438 274.921875 162.5625 274.921875 L 162.820312 274.921875 C 163.234375 274.921875 163.574219 275.257812 163.566406 275.679688 C 163.558594 276.085938 163.90625 276.417969 164.3125 276.417969 L 165.570312 276.417969 C 167.121094 276.417969 168.378906 275.160156 168.378906 273.613281 L 168.378906 257.382812 C 168.378906 255.945312 167.203125 254.78125 165.765625 254.789062 L 164.207031 254.796875 C 163.851562 254.796875 163.566406 255.082031 163.566406 255.433594 C 163.566406 255.789062 163.28125 256.074219 162.925781 256.074219 L 162.453125 256.074219 C 162.140625 256.074219 161.886719 255.863281 161.820312 255.570312 C 161.699219 255.027344 161.042969 254.613281 160.492188 254.613281 L 149.605469 254.613281 C 150.675781 254.261719 151.4375 253.238281 151.378906 252.035156 C 151.308594 250.679688 150.125 249.667969 148.777344 249.597656 L 149.15625 247.75 L 148.695312 246.453125 C 148.859375 246.394531 148.980469 246.242188 148.980469 246.054688 C 148.980469 245.84375 148.824219 245.679688 148.621094 245.640625 L 148.890625 243.925781 L 148.960938 243.925781 C 149.191406 243.925781 149.382812 243.738281 149.382812 243.507812 C 149.382812 243.273438 149.191406 243.085938 148.960938 243.085938 L 148.875 243.085938 L 148.542969 241.394531 C 148.742188 241.355469 148.890625 241.191406 148.890625 240.988281 C 148.890625 240.769531 148.726562 240.597656 148.515625 240.574219 L 148.824219 237.746094 L 148.753906 238.339844 L 148.800781 238.339844 C 150.886719 238.339844 152.394531 235.886719 150.585938 233.714844 C 150.292969 233.359375 149.839844 233.171875 149.375 233.164062 L 159.785156 233.164062 C 160.199219 233.164062 160.53125 232.835938 160.53125 232.421875 C 160.53125 232.007812 160.863281 231.675781 161.277344 231.675781 L 161.53125 231.675781 C 161.945312 231.675781 162.277344 232.007812 162.277344 232.421875 C 162.277344 232.835938 162.609375 233.164062 163.023438 233.164062 L 164.28125 233.164062 C 165.832031 233.164062 167.09375 231.910156 167.09375 230.359375 L 167.09375 214.128906 C 167.09375 214.03125 167.078125 213.941406 167.0625 213.84375 L 209.574219 258.910156 L 209.558594 258.917969 L 213.121094 262.664062 L 213.113281 262.667969 L 224.972656 275.238281 C 226.597656 276.960938 229.316406 277.042969 231.050781 275.417969 L 247.699219 259.765625 C 249.425781 258.140625 249.507812 255.425781 247.878906 253.699219 Z M 236.03125 241.128906 " fill-opacity="1" fill-rule="nonzero"/></g><g clip-path="url(#5e69e1264c)"><path fill="#191937" d="M 148.550781 246.492188 L 9.71875 246.492188 C 9.484375 246.492188 9.296875 246.304688 9.296875 246.070312 C 9.296875 245.839844 9.484375 245.648438 9.71875 245.648438 L 148.550781 245.648438 C 148.785156 245.648438 148.972656 245.839844 148.972656 246.070312 C 148.972656 246.304688 148.792969 246.492188 148.550781 246.492188 Z M 6.53125 240.113281 C 6.300781 240.113281 6.109375 240.300781 6.109375 240.535156 L 6.109375 247.605469 C 6.109375 247.839844 6.300781 248.027344 6.53125 248.027344 C 6.765625 248.027344 6.953125 247.839844 6.953125 247.605469 L 6.953125 240.535156 C 6.960938 240.300781 6.773438 240.113281 6.53125 240.113281 Z M 159.84375 265.582031 C 160.078125 265.582031 160.265625 265.390625 160.265625 265.160156 C 160.265625 264.925781 160.078125 264.738281 159.84375 264.738281 L 20.636719 264.738281 C 20.402344 264.738281 20.214844 264.925781 20.214844 265.160156 C 20.214844 265.390625 20.402344 265.582031 20.636719 265.582031 Z M 148.953125 243.085938 L 9.75 243.085938 C 9.515625 243.085938 9.328125 243.273438 9.328125 243.507812 C 9.328125 243.738281 9.515625 243.925781 9.75 243.925781 L 148.960938 243.925781 C 149.191406 243.925781 149.382812 243.738281 149.382812 243.507812 C 149.382812 243.273438 149.191406 243.085938 148.953125 243.085938 Z M 20.710938 262.632812 C 20.710938 262.867188 20.898438 263.054688 21.132812 263.054688 L 159.851562 263.054688 C 160.085938 263.054688 160.273438 262.867188 160.273438 262.632812 C 160.273438 262.398438 160.085938 262.210938 159.851562 262.210938 L 21.132812 262.210938 C 20.898438 262.203125 20.710938 262.398438 20.710938 262.632812 Z M 9.742188 241.40625 L 148.460938 241.40625 C 148.695312 241.40625 148.882812 241.21875 148.882812 240.988281 C 148.882812 240.753906 148.695312 240.566406 148.460938 240.566406 L 9.742188 240.566406 C 9.507812 240.566406 9.320312 240.753906 9.320312 240.988281 C 9.320312 241.21875 9.5 241.40625 9.742188 241.40625 Z M 163.105469 261.757812 C 162.875 261.757812 162.683594 261.949219 162.683594 262.179688 L 162.683594 269.25 C 162.683594 269.484375 162.875 269.671875 163.105469 269.671875 C 163.339844 269.671875 163.527344 269.484375 163.527344 269.25 L 163.527344 262.179688 C 163.527344 261.949219 163.339844 261.757812 163.105469 261.757812 Z M 159.867188 267.289062 L 21.035156 267.289062 C 20.800781 267.289062 20.613281 267.476562 20.613281 267.707031 C 20.613281 267.941406 20.800781 268.128906 21.035156 268.128906 L 159.867188 268.128906 C 160.101562 268.128906 160.289062 267.941406 160.289062 267.707031 C 160.296875 267.476562 160.109375 267.289062 159.867188 267.289062 Z M 162.226562 225.996094 L 162.226562 218.929688 C 162.226562 218.695312 162.035156 218.507812 161.804688 218.507812 C 161.570312 218.507812 161.382812 218.695312 161.382812 218.929688 L 161.382812 225.996094 C 161.382812 226.230469 161.570312 226.417969 161.804688 226.417969 C 162.035156 226.417969 162.226562 226.230469 162.226562 225.996094 Z M 278.609375 142.597656 L 310.074219 142.597656 L 310.074219 250.914062 L 278.632812 250.914062 L 278.632812 254.847656 L 310.074219 254.847656 L 310.074219 272.117188 C 310.074219 274.484375 308.15625 276.410156 305.773438 276.410156 L 282.902344 276.410156 C 280.53125 276.410156 278.601562 274.492188 278.601562 272.117188 L 278.601562 261.277344 L 278.675781 261.277344 L 278.675781 257.945312 L 278.601562 257.945312 L 278.601562 173.78125 L 278.640625 173.78125 L 278.640625 170.449219 L 278.601562 170.449219 L 278.601562 142.597656 Z M 285.824219 193.972656 C 285.824219 217.515625 289.707031 236.59375 294.496094 236.59375 C 299.289062 236.59375 303.167969 217.515625 303.167969 193.972656 C 303.167969 170.433594 299.289062 151.351562 294.496094 151.351562 C 289.707031 151.351562 285.824219 170.441406 285.824219 193.972656 Z M 305.773438 115.078125 L 282.902344 115.078125 C 280.53125 115.078125 278.601562 116.996094 278.601562 119.375 L 278.601562 138.664062 L 310.070312 138.664062 L 310.070312 119.375 C 310.074219 116.996094 308.148438 115.078125 305.773438 115.078125 Z M 158.570312 224.027344 L 19.730469 224.027344 C 19.496094 224.027344 19.308594 224.214844 19.308594 224.449219 C 19.308594 224.683594 19.496094 224.871094 19.730469 224.871094 L 158.570312 224.871094 C 158.804688 224.871094 158.992188 224.683594 158.992188 224.449219 C 158.992188 224.214844 158.804688 224.027344 158.570312 224.027344 Z M 18.910156 221.898438 C 18.910156 222.132812 19.097656 222.320312 19.332031 222.320312 L 158.542969 222.320312 C 158.773438 222.320312 158.964844 222.132812 158.964844 221.898438 C 158.964844 221.664062 158.773438 221.476562 158.542969 221.476562 L 19.332031 221.476562 C 19.097656 221.476562 18.910156 221.664062 18.910156 221.898438 Z M 158.550781 219.800781 C 158.78125 219.800781 158.972656 219.613281 158.972656 219.378906 C 158.972656 219.144531 158.78125 218.957031 158.550781 218.957031 L 19.835938 218.957031 C 19.601562 218.957031 19.414062 219.144531 19.414062 219.378906 C 19.414062 219.613281 19.601562 219.800781 19.835938 219.800781 Z M 164.476562 211.535156 L 162.917969 211.542969 C 162.5625 211.542969 162.277344 211.828125 162.277344 212.183594 C 162.277344 212.535156 161.992188 212.820312 161.636719 212.820312 L 161.164062 212.820312 C 160.808594 212.820312 160.515625 212.535156 160.515625 212.183594 C 160.515625 211.828125 160.230469 211.542969 159.875 211.542969 L 18.949219 211.542969 C 18.464844 211.542969 18 211.746094 17.691406 212.121094 C 15.917969 214.289062 17.425781 216.71875 19.496094 216.71875 L 158.035156 215.589844 C 158.457031 215.589844 158.871094 215.6875 159.25 215.875 L 161.171875 216.867188 C 161.539062 217.0625 161.992188 217.027344 162.332031 216.777344 L 163.492188 215.25 C 163.867188 214.753906 164.652344 215.015625 164.652344 215.640625 L 164.652344 229.132812 C 164.652344 229.804688 163.808594 230.089844 163.402344 229.554688 L 162.390625 228.246094 C 162.136719 228.148438 161.855469 228.132812 161.59375 228.195312 L 159.226562 228.757812 C 159.203125 228.765625 159.183594 228.765625 159.167969 228.765625 L 19.648438 227.96875 C 18.246094 227.96875 16.988281 229.015625 16.914062 230.421875 C 16.839844 231.910156 18.019531 233.148438 19.503906 233.148438 L 159.777344 233.148438 C 160.191406 233.148438 160.523438 232.820312 160.523438 232.40625 C 160.523438 231.992188 160.855469 231.660156 161.269531 231.660156 L 161.523438 231.660156 C 161.9375 231.660156 162.269531 231.992188 162.269531 232.40625 C 162.269531 232.820312 162.601562 233.148438 163.015625 233.148438 L 164.273438 233.148438 C 165.828125 233.148438 167.085938 231.894531 167.085938 230.34375 L 167.085938 214.113281 C 167.09375 212.6875 165.917969 211.519531 164.476562 211.535156 Z M 164.476562 211.535156 " fill-opacity="1" fill-rule="nonzero"/></g><g clip-path="url(#864207c4fc)"><path fill="#646a90" d="M 120.089844 164.039062 C 118.464844 162.320312 118.546875 159.597656 120.273438 157.972656 L 136.921875 142.320312 C 138.644531 140.695312 141.371094 140.777344 143 142.5 L 156.242188 156.542969 L 133.335938 178.082031 Z M 233.316406 238.273438 L 210.410156 259.804688 L 136.039062 180.949219 L 158.949219 159.40625 L 233.589844 238.542969 Z M 189.203125 201.546875 C 173.035156 184.40625 157.109375 173.179688 153.621094 176.449219 C 150.132812 179.730469 160.410156 196.273438 176.578125 213.414062 C 192.742188 230.554688 208.667969 241.785156 212.15625 238.511719 C 215.636719 235.234375 205.363281 218.679688 189.203125 201.546875 Z M 165.78125 254.789062 L 164.222656 254.796875 C 163.867188 254.796875 163.582031 255.082031 163.582031 255.433594 C 163.582031 255.789062 163.296875 256.074219 162.941406 256.074219 L 162.464844 256.074219 C 162.15625 256.074219 161.902344 255.863281 161.832031 255.570312 C 161.714844 255.027344 161.058594 254.613281 160.507812 254.613281 L 20.761719 254.613281 C 20.136719 254.613281 19.273438 254.992188 18.894531 255.496094 C 17.289062 257.609375 18.746094 259.925781 20.753906 259.960938 L 20.6875 259.480469 L 160.257812 258.9375 C 160.484375 258.9375 160.710938 259.007812 160.890625 259.140625 L 162.148438 260.039062 C 162.601562 260.359375 163.234375 260.285156 163.597656 259.863281 L 164.078125 259.316406 C 164.28125 259.074219 164.582031 258.9375 164.898438 258.9375 C 165.496094 258.9375 165.976562 259.414062 165.984375 260.007812 L 166.171875 271.980469 C 166.179688 272.582031 165.699219 273.078125 165.089844 273.078125 L 164.46875 273.078125 C 164.144531 273.078125 163.835938 272.9375 163.632812 272.679688 L 163.507812 272.523438 C 163.183594 272.132812 162.640625 272.011719 162.179688 272.234375 L 161.621094 272.515625 C 161.472656 272.589844 161.296875 272.628906 161.132812 272.628906 L 20.808594 271.761719 L 20.734375 271.25 C 19.421875 271.355469 18.300781 272.355469 18.222656 273.679688 C 18.148438 275.167969 19.332031 276.410156 20.816406 276.410156 L 161.085938 276.410156 C 161.496094 276.410156 161.839844 276.078125 161.832031 275.671875 C 161.824219 275.257812 162.164062 274.914062 162.578125 274.914062 L 162.835938 274.914062 C 163.25 274.914062 163.589844 275.253906 163.582031 275.671875 C 163.574219 276.078125 163.921875 276.410156 164.328125 276.410156 L 165.585938 276.410156 C 167.136719 276.410156 168.394531 275.15625 168.394531 273.605469 L 168.394531 257.375 C 168.394531 255.945312 167.21875 254.78125 165.78125 254.789062 Z M 368.664062 115.5 L 345.792969 115.5 C 343.417969 115.5 341.492188 117.417969 341.492188 119.796875 L 341.492188 138.664062 L 372.957031 138.664062 L 372.957031 119.796875 C 372.964844 117.425781 371.042969 115.5 368.664062 115.5 Z M 341.496094 142.597656 L 372.964844 142.597656 L 372.964844 250.914062 L 341.496094 250.914062 Z M 348.261719 193.972656 C 348.261719 217.515625 352.140625 236.59375 356.933594 236.59375 C 361.726562 236.59375 365.605469 217.515625 365.605469 193.972656 C 365.605469 170.433594 361.726562 151.351562 356.933594 151.351562 C 352.148438 151.359375 348.261719 170.441406 348.261719 193.972656 Z M 236.03125 241.128906 L 213.121094 262.667969 L 224.980469 275.238281 C 226.605469 276.960938 229.324219 277.042969 231.058594 275.417969 L 247.707031 259.765625 C 249.433594 258.140625 249.515625 255.425781 247.886719 253.699219 Z M 341.496094 272.539062 C 341.496094 274.90625 343.417969 276.832031 345.800781 276.832031 L 368.671875 276.832031 C 371.042969 276.832031 372.972656 274.914062 372.972656 272.539062 L 372.972656 254.847656 L 341.503906 254.847656 L 341.503906 272.539062 Z M 341.496094 272.539062 " fill-opacity="1" fill-rule="nonzero"/></g><g clip-path="url(#76ecf11d49)"><path fill="#741714" d="M 278.640625 160.851562 L 278.640625 170.449219 L 249.09375 170.449219 L 249.09375 160.851562 C 249.09375 159.289062 250.367188 158.015625 251.933594 158.015625 L 275.800781 158.015625 C 277.367188 158.007812 278.640625 159.28125 278.640625 160.851562 Z M 249.09375 273.628906 C 249.09375 275.273438 250.433594 276.613281 252.082031 276.613281 L 275.648438 276.613281 C 277.296875 276.613281 278.640625 275.273438 278.640625 273.628906 L 278.640625 261.277344 L 249.109375 261.277344 L 249.109375 257.945312 L 278.640625 257.945312 L 278.640625 254.847656 L 278.632812 254.847656 L 278.632812 250.914062 L 278.640625 250.914062 L 278.640625 173.78125 L 249.09375 173.78125 Z M 148.792969 238.332031 C 150.878906 238.332031 152.386719 235.878906 150.578125 233.707031 C 150.277344 233.347656 149.824219 233.15625 149.359375 233.15625 C 139.25 233.15625 20.386719 233.15625 8.414062 233.15625 C 8.0625 233.15625 7.777344 233.4375 7.777344 233.789062 C 7.78125 234.152344 7.488281 234.445312 7.128906 234.445312 L 6.652344 234.445312 C 6.300781 234.445312 6.011719 234.15625 6.011719 233.804688 C 6.011719 233.449219 5.726562 233.164062 5.371094 233.164062 L 3.8125 233.15625 C 2.375 233.136719 1.199219 234.300781 1.199219 235.738281 L 1.199219 251.96875 C 1.199219 253.515625 2.457031 254.773438 4.136719 254.773438 L 5.265625 254.773438 C 5.671875 254.773438 6.019531 254.441406 6.011719 254.035156 C 6.003906 253.621094 6.34375 253.277344 6.757812 253.277344 L 7.015625 253.277344 C 7.429688 253.277344 7.769531 253.613281 7.761719 254.035156 C 7.753906 254.441406 8.097656 254.773438 8.507812 254.773438 L 148.777344 254.773438 C 150.253906 254.773438 151.445312 253.539062 151.371094 252.042969 C 151.300781 250.6875 150.121094 249.671875 148.769531 249.605469 L 148.6875 250.019531 L 11.648438 251.027344 C 10.425781 251.035156 9.214844 250.890625 8.023438 250.605469 L 7.113281 250.386719 C 6.757812 250.304688 6.382812 250.367188 6.082031 250.574219 C 5.230469 251.15625 4.078125 250.554688 4.0625 249.523438 L 3.910156 238.527344 C 3.894531 237.460938 5.109375 236.835938 5.96875 237.46875 L 6.050781 237.527344 C 6.375 237.769531 6.796875 237.84375 7.179688 237.722656 C 8.558594 237.316406 9.992188 237.113281 11.429688 237.121094 L 148.808594 237.738281 L 148.742188 238.332031 Z M 337.226562 115.5 L 314.355469 115.5 C 311.980469 115.5 310.054688 117.417969 310.054688 119.796875 L 310.054688 138.664062 L 341.519531 138.664062 L 341.519531 119.796875 C 341.527344 117.425781 339.597656 115.5 337.226562 115.5 Z M 310.0625 272.539062 C 310.0625 274.90625 311.980469 276.832031 314.363281 276.832031 L 337.234375 276.832031 C 339.605469 276.832031 341.535156 274.914062 341.535156 272.539062 L 341.535156 254.847656 L 310.070312 254.847656 L 310.070312 272.539062 Z M 310.0625 142.597656 L 341.527344 142.597656 L 341.527344 250.914062 L 310.0625 250.914062 Z M 317.171875 193.972656 C 317.171875 217.515625 321.050781 236.59375 325.84375 236.59375 C 330.632812 236.59375 334.515625 217.515625 334.515625 193.972656 C 334.515625 170.433594 330.632812 151.351562 325.84375 151.351562 C 321.058594 151.359375 317.171875 170.441406 317.171875 193.972656 Z M 317.171875 193.972656 " fill-opacity="1" fill-rule="nonzero"/></g><path fill="#1d0e0f" d="M 282.570312 193.671875 C 282.359375 193.441406 282.171875 193.238281 281.886719 192.921875 C 282.65625 192.929688 282.65625 192.929688 282.570312 193.671875 Z M 284.871094 127.046875 C 284.890625 127.105469 284.921875 127.171875 284.945312 127.234375 C 285.125 127.164062 285.296875 127.097656 285.480469 127.039062 C 285.449219 126.96875 285.425781 126.894531 285.398438 126.828125 C 285.222656 126.894531 285.042969 126.96875 284.871094 127.046875 Z M 283.714844 126.667969 C 283.949219 126.535156 284.191406 126.390625 284.070312 126.046875 C 284.046875 125.976562 283.867188 125.960938 283.761719 125.917969 C 283.710938 126.136719 283.65625 126.355469 283.609375 126.5625 C 283.605469 126.585938 283.648438 126.609375 283.714844 126.667969 Z M 329.558594 184.925781 C 329.226562 185.03125 329.074219 184.925781 329.074219 184.601562 C 328.609375 184.957031 328.195312 185.640625 328.222656 185.972656 C 328.519531 185.859375 328.828125 185.753906 329.128906 185.625 C 329.578125 185.4375 330.03125 185.242188 330.476562 185.039062 C 330.515625 185.023438 330.484375 184.875 330.484375 184.648438 C 330.136719 184.753906 329.84375 184.828125 329.558594 184.925781 Z M 282.964844 202.765625 C 283.355469 202.765625 283.617188 202.765625 283.972656 202.765625 C 283.476562 202.425781 283.476562 202.425781 282.964844 202.765625 Z M 283.273438 134.617188 C 283.996094 134.566406 284.054688 133.957031 284.335938 133.460938 C 283.875 133.296875 283.542969 133.167969 283.089844 133.003906 C 283.152344 133.574219 283.210938 134.070312 283.273438 134.617188 Z M 285.96875 182.984375 C 285.820312 182.984375 285.675781 182.984375 285.523438 182.984375 C 285.53125 183.046875 285.53125 183.105469 285.539062 183.167969 C 285.691406 183.136719 285.832031 183.097656 285.984375 183.070312 C 285.976562 183.039062 285.976562 183.007812 285.96875 182.984375 Z M 291.175781 132.875 C 291.128906 132.84375 291.078125 132.8125 291.03125 132.785156 C 290.902344 132.972656 290.78125 133.167969 290.65625 133.355469 C 290.707031 133.394531 290.761719 133.429688 290.8125 133.46875 C 290.941406 133.273438 291.0625 133.070312 291.175781 132.875 Z M 283.640625 205.339844 C 283.6875 205.527344 283.722656 205.714844 283.769531 205.910156 C 283.859375 205.886719 283.949219 205.871094 284.039062 205.847656 C 284.027344 205.660156 284.003906 205.472656 283.988281 205.285156 C 283.867188 205.300781 283.753906 205.324219 283.640625 205.339844 Z M 294.867188 130.640625 C 294.941406 131.015625 294.941406 131.390625 295.648438 131.210938 C 295.445312 130.859375 295.402344 130.484375 294.867188 130.640625 Z M 290.488281 192.160156 C 290.359375 192.132812 290.164062 192.425781 290 192.566406 C 290.039062 192.621094 290.074219 192.664062 290.113281 192.71875 C 290.355469 192.613281 290.59375 192.515625 290.917969 192.378906 C 290.980469 192.800781 291.023438 193.078125 291.070312 193.351562 C 291.160156 193.355469 291.242188 193.363281 291.332031 193.371094 C 291.394531 193.117188 291.589844 192.710938 291.5 192.636719 C 291.21875 192.394531 290.851562 192.238281 290.488281 192.160156 Z M 285.757812 208.84375 C 285.9375 208.488281 286.042969 208.277344 286.15625 208.058594 C 286.089844 208.03125 286.023438 208 285.953125 207.976562 C 285.699219 208.316406 285.699219 208.316406 285.757812 208.84375 Z M 328.683594 187.324219 C 329.023438 187.078125 329.339844 186.8125 329.347656 186.28125 C 329.074219 186.574219 328.8125 186.867188 328.539062 187.160156 C 328.585938 187.210938 328.628906 187.265625 328.683594 187.324219 Z M 335.613281 210.820312 C 335.734375 211.175781 335.808594 211.414062 335.886719 211.65625 C 335.960938 211.632812 336.027344 211.609375 336.105469 211.582031 C 336.105469 211.316406 336.324219 210.972656 335.613281 210.820312 Z M 336.773438 157.152344 C 336.863281 157.195312 336.949219 157.242188 337.039062 157.292969 C 337.121094 157.121094 337.203125 156.941406 337.285156 156.769531 C 337.226562 156.738281 337.160156 156.699219 337.097656 156.671875 C 336.992188 156.820312 336.878906 156.984375 336.773438 157.152344 Z M 337.519531 135.792969 C 337.496094 136.167969 337.476562 136.410156 337.460938 136.65625 C 337.820312 136.425781 338.109375 136.199219 337.519531 135.792969 Z M 297.003906 208.683594 C 297.003906 208.984375 297.003906 209.210938 297.003906 209.601562 C 297.382812 209.226562 297.414062 209 297.003906 208.683594 Z M 310.589844 117.742188 C 310.589844 117.742188 310.597656 117.742188 310.597656 117.734375 C 310.582031 117.695312 310.558594 117.660156 310.542969 117.628906 C 310.558594 117.667969 310.574219 117.703125 310.589844 117.742188 Z M 329.738281 177.253906 C 329.746094 177.253906 329.804688 177.097656 329.796875 177.097656 C 329.640625 177.015625 329.472656 176.945312 329.308594 176.871094 C 329.277344 176.953125 329.25 177.03125 329.226562 177.113281 C 329.398438 177.15625 329.566406 177.210938 329.738281 177.253906 Z M 339.789062 195.164062 C 339.765625 195.214844 339.824219 195.304688 339.855469 195.378906 C 339.921875 195.328125 339.992188 195.273438 340.058594 195.230469 C 340.035156 195.15625 340.015625 195.101562 340 195.050781 C 339.921875 195.078125 339.816406 195.101562 339.789062 195.164062 Z M 340.007812 153.046875 C 340.066406 153.097656 340.121094 153.195312 340.179688 153.203125 C 340.253906 153.210938 340.332031 153.136719 340.464844 153.066406 C 340.359375 152.984375 340.285156 152.894531 340.226562 152.902344 C 340.148438 152.902344 340.082031 152.992188 340.007812 153.046875 Z M 311.988281 140.207031 C 311.980469 140.230469 312.109375 140.363281 312.171875 140.363281 C 312.289062 140.351562 312.410156 140.273438 312.601562 140.199219 C 312.335938 140.011719 312.269531 139.957031 312.191406 139.90625 C 312.117188 140.003906 312.035156 140.101562 311.988281 140.207031 Z M 339.050781 198.050781 C 339.140625 198.042969 339.277344 198.066406 339.3125 198.011719 C 339.425781 197.878906 339.507812 197.710938 339.621094 197.515625 C 339.117188 197.605469 339.117188 197.605469 339.050781 198.050781 Z M 314.632812 173.164062 C 314.550781 173.011719 314.476562 172.886719 314.28125 172.546875 C 314.234375 173.195312 314.234375 173.195312 314.632812 173.164062 Z M 312.417969 135.625 C 312.472656 136.226562 312.5 136.597656 312.546875 137.09375 C 313.164062 136.347656 313.164062 136.347656 312.417969 135.625 Z M 284.402344 210.578125 C 284.441406 210.65625 284.476562 210.730469 284.523438 210.804688 C 284.710938 210.691406 284.90625 210.585938 285.09375 210.476562 C 285.058594 210.40625 285.019531 210.339844 284.980469 210.277344 C 284.792969 210.382812 284.597656 210.480469 284.402344 210.578125 Z M 258.207031 262.277344 C 258.214844 262.324219 258.222656 262.367188 258.238281 262.414062 C 258.382812 262.398438 258.523438 262.390625 258.667969 262.375 C 258.660156 262.300781 258.644531 262.21875 258.636719 262.144531 C 258.496094 262.1875 258.351562 262.234375 258.207031 262.277344 Z M 257.695312 176 C 257.855469 176.652344 257.882812 176.660156 258.691406 176.164062 C 258.300781 176.097656 257.996094 176.042969 257.695312 176 Z M 258.652344 232.78125 C 258.53125 232.847656 258.425781 232.945312 258.261719 233.074219 C 258.417969 233.164062 258.523438 233.253906 258.5625 233.234375 C 258.660156 233.164062 258.75 233.058594 258.804688 232.953125 C 258.820312 232.933594 258.667969 232.773438 258.652344 232.78125 Z M 257.6875 176 C 257.695312 176 257.695312 176 257.6875 176 Z M 257.265625 243.941406 C 257.257812 243.941406 257.289062 244.046875 257.296875 244.109375 C 257.417969 244.070312 257.539062 244.027344 257.667969 243.988281 C 257.652344 243.933594 257.636719 243.890625 257.621094 243.835938 C 257.5 243.867188 257.378906 243.898438 257.265625 243.941406 Z M 257.773438 175.335938 C 257.703125 175.539062 257.71875 175.773438 257.695312 175.992188 C 257.9375 175.75 258.179688 175.511719 258.433594 175.253906 C 258.117188 175.019531 257.882812 174.992188 257.773438 175.335938 Z M 257.6875 176 C 257.6875 176 257.695312 176 257.6875 176 C 257.695312 175.992188 257.695312 175.992188 257.6875 176 C 257.6875 175.992188 257.6875 175.992188 257.6875 176 Z M 261.191406 172.488281 C 261.183594 172.507812 261.335938 172.644531 261.363281 172.628906 C 261.457031 172.585938 261.53125 172.496094 261.636719 172.394531 C 261.515625 172.304688 261.441406 172.253906 261.371094 172.199219 C 261.320312 172.296875 261.238281 172.390625 261.191406 172.488281 Z M 262.976562 167.652344 C 262.917969 167.703125 262.917969 167.9375 262.976562 167.988281 C 263.082031 168.078125 263.261719 168.148438 263.390625 168.117188 C 263.566406 168.078125 263.722656 167.960938 263.890625 167.867188 C 263.722656 167.75 263.578125 167.582031 263.398438 167.515625 C 263.285156 167.476562 263.082031 167.558594 262.976562 167.652344 Z M 263.894531 167.875 C 263.902344 167.867188 263.910156 167.855469 263.910156 167.855469 C 263.902344 167.863281 263.894531 167.867188 263.894531 167.875 C 263.890625 167.875 263.894531 167.875 263.894531 167.875 Z M 264.574219 168.253906 C 264.65625 167.824219 264.5 167.757812 263.910156 167.867188 C 263.472656 168.757812 264.046875 169.472656 264.378906 170.269531 C 264.542969 169.929688 264.808594 169.492188 264.6875 169.246094 C 264.507812 168.882812 264.5 168.621094 264.574219 168.253906 Z M 263.902344 167.875 C 263.902344 167.867188 263.902344 167.867188 263.902344 167.875 C 263.910156 167.867188 263.917969 167.867188 263.917969 167.863281 Z M 304.636719 133.835938 C 304.691406 133.851562 304.742188 133.859375 304.796875 133.875 C 304.847656 133.703125 304.902344 133.527344 304.953125 133.355469 C 304.886719 133.339844 304.808594 133.324219 304.742188 133.304688 C 304.703125 133.484375 304.667969 133.65625 304.636719 133.835938 Z M 303.425781 219.183594 C 303.550781 219.222656 303.679688 219.257812 303.808594 219.289062 C 303.816406 219.289062 303.867188 219.160156 303.859375 219.160156 C 303.742188 219.09375 303.621094 219.035156 303.5 218.972656 C 303.476562 219.046875 303.445312 219.117188 303.425781 219.183594 Z M 303.558594 170.035156 C 303.628906 170.058594 303.695312 170.078125 303.769531 170.09375 C 303.839844 169.882812 303.90625 169.679688 303.972656 169.472656 C 303.890625 169.457031 303.816406 169.441406 303.734375 169.417969 C 303.671875 169.621094 303.621094 169.824219 303.558594 170.035156 Z M 257.28125 238.566406 C 257.144531 238.601562 257.027344 238.691406 256.867188 238.785156 C 256.964844 238.910156 257.046875 239.054688 257.0625 239.039062 C 257.199219 238.980469 257.328125 238.894531 257.457031 238.8125 C 257.394531 238.730469 257.3125 238.558594 257.28125 238.566406 Z M 297.617188 136.339844 C 297.917969 136.328125 298.226562 136.3125 298.722656 136.28125 C 298.226562 135.800781 297.925781 135.84375 297.617188 136.339844 Z M 298.949219 248.734375 C 299.160156 248.460938 299.296875 248.289062 299.484375 248.058594 C 298.957031 248.167969 298.957031 248.167969 298.949219 248.734375 Z M 301.554688 262.867188 C 301.503906 262.910156 301.570312 263.210938 301.652344 263.257812 C 301.976562 263.421875 302.171875 263.25 302.285156 262.933594 C 302.054688 262.632812 301.796875 262.640625 301.554688 262.867188 Z M 254.246094 202.804688 C 254.765625 203.023438 255.074219 203.15625 255.121094 202.609375 C 255.128906 202.503906 255.050781 202.390625 254.984375 202.1875 C 254.726562 202.398438 254.546875 202.546875 254.246094 202.804688 Z M 299.386719 146.417969 C 298.941406 146.261719 298.648438 146.230469 298.363281 146.613281 C 298.753906 146.78125 299.039062 146.914062 299.386719 146.417969 Z M 254.894531 167.304688 C 254.886719 167.3125 254.929688 167.460938 254.929688 167.460938 C 255.089844 167.433594 255.246094 167.394531 255.398438 167.359375 C 255.375 167.28125 255.359375 167.199219 255.339844 167.125 C 255.195312 167.183594 255.035156 167.238281 254.894531 167.304688 Z M 255.113281 166.492188 C 255.113281 166.125 255.113281 165.929688 255.113281 165.644531 C 254.804688 165.90625 254.59375 166.078125 255.113281 166.492188 Z M 305.316406 132.792969 C 305.34375 132.851562 305.527344 132.84375 305.640625 132.867188 C 305.675781 132.625 305.722656 132.378906 305.78125 132.023438 C 305.058594 132.183594 305.179688 132.5 305.316406 132.792969 Z M 349.386719 142.3125 C 349.5 142.449219 349.609375 142.582031 349.730469 142.710938 C 349.738281 142.71875 349.875 142.613281 349.867188 142.605469 C 349.792969 142.457031 349.703125 142.3125 349.617188 142.164062 C 349.542969 142.214844 349.46875 142.269531 349.386719 142.3125 Z M 359.578125 245.484375 C 359.523438 245.84375 359.488281 246.0625 359.433594 246.410156 C 359.945312 246.160156 360.1875 245.980469 359.578125 245.484375 Z M 352.957031 211.03125 C 353.914062 209.707031 353.769531 208.796875 352.503906 208.421875 C 352.550781 208.632812 352.542969 208.835938 352.625 208.976562 C 353.210938 209.925781 353.210938 209.917969 352.59375 210.753906 C 352.714844 210.835938 352.835938 210.933594 352.957031 211.03125 Z M 352.886719 273.972656 C 352.820312 273.980469 352.761719 274.078125 352.699219 274.140625 C 352.761719 274.199219 352.820312 274.3125 352.875 274.304688 C 352.949219 274.296875 353.007812 274.207031 353.105469 274.125 C 353.023438 274.054688 352.949219 273.957031 352.886719 273.972656 Z M 353.4375 276.554688 C 353.300781 276.574219 353.191406 276.6875 353.070312 276.769531 C 353.085938 276.785156 353.097656 276.808594 353.113281 276.832031 L 353.722656 276.832031 C 353.730469 276.824219 353.738281 276.816406 353.746094 276.808594 C 353.605469 276.679688 353.507812 276.539062 353.4375 276.554688 Z M 350.28125 267.300781 C 350.320312 267.355469 350.355469 267.40625 350.386719 267.460938 C 350.492188 267.414062 350.613281 267.398438 350.695312 267.324219 C 350.769531 267.265625 350.808594 267.144531 350.863281 267.054688 C 350.816406 267.007812 350.765625 266.964844 350.71875 266.925781 C 350.574219 267.054688 350.425781 267.183594 350.28125 267.300781 Z M 349.175781 188.023438 C 348.910156 188.183594 348.648438 188.339844 348.382812 188.5 C 348.429688 188.582031 348.472656 188.664062 348.519531 188.753906 C 348.964844 188.828125 349.21875 188.640625 349.175781 188.023438 Z M 351.683594 247.574219 C 351.351562 247.867188 351.019531 248.15625 350.613281 248.515625 C 351.382812 248.605469 351.546875 248.101562 351.683594 247.574219 Z M 357.414062 231.449219 C 357.5 231.519531 357.574219 231.625 357.671875 231.652344 C 357.738281 231.675781 357.835938 231.585938 357.980469 231.527344 C 357.769531 231.390625 357.695312 231.300781 357.621094 231.300781 C 357.558594 231.300781 357.492188 231.398438 357.414062 231.449219 Z M 358.371094 126.097656 C 358.378906 126.136719 358.394531 126.171875 358.402344 126.210938 C 358.582031 126.1875 358.765625 126.171875 358.945312 126.152344 C 358.9375 126.082031 358.929688 126.007812 358.929688 125.941406 C 358.742188 125.992188 358.5625 126.046875 358.371094 126.097656 Z M 355.292969 130.414062 C 355.351562 130.46875 355.417969 130.574219 355.472656 130.574219 C 355.570312 130.566406 355.667969 130.488281 355.839844 130.40625 C 355.691406 130.300781 355.609375 130.203125 355.554688 130.226562 C 355.457031 130.257812 355.382812 130.347656 355.292969 130.414062 Z M 354.460938 218.035156 C 354.546875 218.0625 354.621094 218.09375 354.703125 218.109375 C 354.726562 218.109375 354.757812 218.035156 354.792969 217.964844 C 354.726562 217.921875 354.652344 217.875 354.582031 217.832031 C 354.546875 217.898438 354.507812 217.964844 354.460938 218.035156 Z M 354.515625 212.894531 C 354.636719 213.40625 354.847656 213.597656 355.328125 213.566406 C 355.214844 213.144531 355.089844 212.882812 354.515625 212.894531 Z M 349.339844 262.285156 C 349.210938 262.363281 349.097656 262.453125 348.976562 262.535156 C 349.015625 262.578125 349.046875 262.632812 349.082031 262.675781 C 349.210938 262.585938 349.332031 262.496094 349.460938 262.40625 C 349.414062 262.363281 349.355469 262.277344 349.339844 262.285156 Z M 373.101562 206.699219 C 372.890625 206.414062 372.746094 206.210938 372.597656 206.015625 C 372.503906 206.390625 372.347656 206.804688 373.101562 206.699219 Z M 373.3125 191.734375 L 373.304688 191.738281 C 373.304688 191.738281 373.304688 191.738281 373.3125 191.734375 C 373.53125 191.71875 373.6875 191.703125 373.816406 191.6875 L 373.816406 191.445312 C 373.648438 191.539062 373.484375 191.636719 373.3125 191.734375 Z M 371.859375 203.554688 C 371.765625 203.699219 371.675781 203.847656 371.578125 204 C 372.023438 204.121094 372.339844 204.097656 372.0625 203.609375 C 372.054688 203.578125 371.964844 203.578125 371.859375 203.554688 Z M 372.21875 193.273438 C 372.980469 192.929688 373.207031 192.386719 373.304688 191.734375 C 372.867188 192.140625 372.089844 192.273438 372.21875 193.273438 Z M 373.160156 137.054688 C 373.160156 137.046875 373.023438 136.957031 373.015625 136.964844 C 372.910156 137.085938 372.8125 137.214844 372.714844 137.335938 C 372.785156 137.378906 372.851562 137.425781 372.917969 137.460938 C 373.011719 137.335938 373.09375 137.199219 373.160156 137.054688 Z M 373.6875 201.425781 C 373.742188 201.40625 373.777344 201.367188 373.816406 201.34375 L 373.816406 200.726562 C 373.671875 200.914062 373.574219 201.125 373.6875 201.425781 Z M 345.273438 240.609375 C 345.460938 240.664062 345.65625 240.722656 345.84375 240.777344 C 345.867188 240.703125 345.882812 240.617188 345.90625 240.542969 C 345.710938 240.5 345.511719 240.453125 345.324219 240.40625 C 345.300781 240.476562 345.289062 240.542969 345.273438 240.609375 Z M 349.105469 215.109375 C 348.964844 215.515625 349.03125 215.835938 349.664062 216.054688 C 349.542969 215.625 349.460938 215.324219 349.378906 215.023438 C 349.292969 215.046875 349.195312 215.078125 349.105469 215.109375 Z M 262.917969 232.953125 C 263.164062 233.171875 263.40625 233.390625 263.640625 233.59375 C 263.488281 232.652344 263.488281 232.652344 262.917969 232.953125 Z M 347.613281 222.871094 C 347.605469 222.875 347.726562 222.980469 347.742188 222.972656 C 347.886719 222.863281 348.023438 222.734375 348.15625 222.613281 C 348.074219 222.546875 347.992188 222.476562 347.910156 222.402344 C 347.804688 222.5625 347.707031 222.710938 347.613281 222.871094 Z M 347.734375 231.984375 C 347.8125 232.113281 347.902344 232.226562 347.992188 232.339844 C 348.035156 232.308594 348.089844 232.277344 348.132812 232.246094 C 348.066406 232.105469 347.992188 231.960938 347.921875 231.828125 C 347.855469 231.871094 347.726562 231.96875 347.734375 231.984375 Z M 348.984375 245.199219 C 348.714844 245.550781 348.933594 245.882812 349.136719 246.402344 C 349.316406 245.941406 349.4375 245.640625 349.597656 245.25 C 349.324219 245.222656 349.046875 245.132812 348.984375 245.199219 Z M 317.277344 249.191406 C 317.308594 249.191406 317.332031 249.191406 317.359375 249.191406 C 317.445312 249.003906 317.527344 248.816406 317.609375 248.636719 C 317.542969 248.613281 317.464844 248.597656 317.398438 248.574219 C 317.351562 248.777344 317.316406 248.980469 317.277344 249.191406 Z M 323.976562 214.820312 C 323.882812 215.09375 323.355469 215.183594 323.726562 215.730469 C 323.882812 215.429688 324.011719 215.183594 324.140625 214.933594 C 324.089844 214.898438 324.035156 214.859375 323.976562 214.820312 Z M 324.089844 119.953125 C 324.050781 119.902344 323.988281 119.804688 323.988281 119.804688 C 323.863281 119.871094 323.742188 119.945312 323.621094 120.027344 C 323.644531 120.082031 323.667969 120.132812 323.695312 120.179688 C 323.824219 120.105469 323.960938 120.027344 324.089844 119.953125 Z M 323.605469 188.039062 C 323.457031 188.175781 323.3125 188.3125 323.109375 188.5 C 323.296875 188.550781 323.425781 188.625 323.457031 188.597656 C 323.574219 188.484375 323.660156 188.332031 323.757812 188.207031 C 323.710938 188.144531 323.660156 188.09375 323.605469 188.039062 Z M 325.203125 182.933594 C 325.269531 182.941406 325.339844 182.949219 325.414062 182.957031 C 325.445312 182.714844 325.472656 182.472656 325.503906 182.226562 C 325.421875 182.21875 325.339844 182.21875 325.253906 182.210938 C 325.234375 182.453125 325.21875 182.691406 325.203125 182.933594 Z M 324.945312 117.871094 C 324.917969 117.792969 324.886719 117.710938 324.855469 117.636719 C 324.652344 117.695312 324.449219 117.765625 324.246094 117.824219 C 324.285156 117.929688 324.320312 118.042969 324.367188 118.148438 C 324.554688 118.058594 324.75 117.960938 324.945312 117.871094 Z M 325.445312 144.570312 C 325.382812 144.507812 325.332031 144.449219 325.269531 144.386719 C 325.164062 144.507812 325.050781 144.628906 324.953125 144.757812 C 324.945312 144.773438 325.015625 144.847656 325.050781 144.890625 C 325.179688 144.789062 325.308594 144.683594 325.445312 144.570312 Z M 329.414062 183.804688 C 329.292969 184.089844 329.21875 184.285156 329.144531 184.460938 C 329.308594 184.339844 329.632812 184.308594 329.414062 183.804688 Z M 324.027344 256.480469 C 324.410156 256.480469 324.707031 256.480469 324.960938 256.480469 C 325.210938 256.082031 325.429688 255.734375 325.648438 255.398438 C 325.601562 255.359375 325.558594 255.3125 325.511719 255.269531 C 325.039062 255.660156 324.570312 256.035156 324.027344 256.480469 Z M 328.554688 119.066406 C 328.496094 118.734375 328.433594 118.402344 328.382812 118.082031 C 328.335938 118.09375 328.292969 118.101562 328.246094 118.117188 C 328.277344 118.449219 328.3125 118.773438 328.34375 119.101562 C 328.414062 119.089844 328.488281 119.082031 328.554688 119.066406 Z M 329.269531 129.902344 C 329.277344 129.632812 329.164062 129.355469 329.066406 129.089844 C 329.046875 129.039062 328.847656 129.054688 328.625 129.023438 C 329.007812 129.664062 328.644531 129.980469 328.109375 130.25 C 328.910156 130.429688 329.257812 130.324219 329.269531 129.902344 Z M 327.570312 145.207031 C 327.570312 145.539062 327.570312 145.839844 327.570312 146.171875 C 328.125 145.597656 328.125 145.597656 327.570312 145.207031 Z M 326.085938 167.960938 C 326.113281 168.011719 326.152344 168.070312 326.183594 168.125 C 326.394531 168.019531 326.605469 167.914062 326.816406 167.800781 C 326.785156 167.742188 326.753906 167.679688 326.71875 167.621094 C 326.515625 167.742188 326.296875 167.855469 326.085938 167.960938 Z M 364.691406 199.035156 C 364.714844 199.125 364.730469 199.214844 364.753906 199.3125 C 364.996094 199.253906 365.234375 199.1875 365.46875 199.125 C 365.453125 199.058594 365.4375 198.992188 365.425781 198.921875 C 365.183594 198.953125 364.941406 198.992188 364.691406 199.035156 Z M 365.371094 190.628906 C 365.324219 190.605469 365.28125 190.574219 365.234375 190.550781 C 365.136719 190.695312 365.039062 190.835938 364.941406 190.980469 C 365.003906 191.027344 365.0625 191.070312 365.113281 191.125 C 365.207031 190.957031 365.289062 190.792969 365.371094 190.628906 Z M 322.402344 134.070312 C 322.414062 134.160156 322.429688 134.25 322.4375 134.332031 C 322.613281 134.296875 322.777344 134.25 322.941406 134.207031 C 322.949219 134.207031 322.921875 134.046875 322.90625 134.046875 C 322.738281 134.046875 322.574219 134.0625 322.402344 134.070312 Z M 360.152344 231.945312 C 360.285156 232.097656 360.421875 232.246094 360.550781 232.398438 C 360.625 232.339844 360.691406 232.277344 360.769531 232.21875 C 360.609375 232.074219 360.453125 231.9375 360.292969 231.796875 C 360.25 231.847656 360.203125 231.894531 360.152344 231.945312 Z M 361.429688 151.136719 C 361.761719 151.511719 361.476562 151.953125 361.671875 152.390625 C 361.929688 151.941406 362.183594 151.488281 362.507812 150.910156 C 362.117188 150.835938 361.882812 150.75 361.648438 150.773438 C 361.558594 150.773438 361.394531 151.097656 361.429688 151.136719 Z M 360.03125 257.351562 C 360.082031 257.351562 360.128906 257.351562 360.179688 257.351562 C 360.179688 257.203125 360.179688 257.042969 360.179688 256.894531 C 360.128906 256.894531 360.082031 256.894531 360.03125 256.894531 C 360.03125 257.042969 360.03125 257.195312 360.03125 257.351562 Z M 365.046875 198.082031 C 364.957031 197.953125 364.859375 197.832031 364.769531 197.703125 C 364.714844 197.734375 364.664062 197.757812 364.617188 197.785156 C 364.6875 197.929688 364.761719 198.074219 364.828125 198.214844 C 364.902344 198.171875 364.972656 198.125 365.046875 198.082031 Z M 320.296875 121.902344 C 320.675781 121.765625 320.742188 121.519531 320.683594 121.164062 C 320.09375 121.210938 320.222656 121.546875 320.296875 121.902344 Z M 321.550781 187.738281 C 321.488281 187.738281 321.390625 187.84375 321.390625 187.898438 C 321.390625 187.972656 321.480469 188.039062 321.527344 188.109375 C 321.585938 188.054688 321.65625 187.996094 321.746094 187.910156 C 321.664062 187.835938 321.601562 187.738281 321.550781 187.738281 Z M 329.097656 184.585938 C 329.113281 184.550781 329.128906 184.503906 329.152344 184.46875 C 329.121094 184.488281 329.089844 184.519531 329.082031 184.558594 C 329.074219 184.558594 329.089844 184.574219 329.097656 184.585938 L 329.074219 184.558594 C 329.074219 184.574219 329.074219 184.585938 329.074219 184.601562 C 329.082031 184.59375 329.089844 184.59375 329.097656 184.585938 Z M 342.839844 258.675781 C 342.9375 258.730469 343.035156 258.8125 343.140625 258.835938 C 343.179688 258.839844 343.246094 258.730469 343.335938 258.625 C 343.207031 258.539062 343.117188 258.429688 343.019531 258.429688 C 342.96875 258.433594 342.898438 258.59375 342.839844 258.675781 Z M 320.191406 210.625 C 320.253906 210.648438 320.3125 210.671875 320.367188 210.699219 C 320.433594 210.542969 320.503906 210.378906 320.570312 210.21875 C 320.511719 210.195312 320.449219 210.175781 320.390625 210.144531 C 320.328125 210.300781 320.261719 210.460938 320.191406 210.625 Z M 298.429688 231.886719 C 298.460938 231.976562 298.566406 232.042969 298.640625 232.121094 C 298.691406 232.042969 298.746094 231.976562 298.8125 231.886719 C 298.730469 231.8125 298.664062 231.75 298.59375 231.691406 C 298.535156 231.75 298.414062 231.839844 298.429688 231.886719 Z M 52.921875 222.109375 C 52.765625 222.0625 52.597656 222.027344 52.441406 221.980469 C 52.425781 222.050781 52.410156 222.109375 52.386719 222.175781 C 52.554688 222.214844 52.710938 222.253906 52.878906 222.28125 C 52.902344 222.222656 52.90625 222.164062 52.921875 222.109375 Z M 52.847656 261.046875 C 52.90625 261.089844 52.976562 261.136719 53.035156 261.1875 C 53.113281 261.074219 53.1875 260.96875 53.246094 260.851562 C 53.246094 260.84375 53.125 260.75 53.117188 260.757812 C 53.019531 260.84375 52.9375 260.949219 52.847656 261.046875 Z M 51.207031 245.90625 C 51.207031 246.167969 51.207031 246.410156 51.207031 246.644531 C 51.371094 246.605469 51.628906 246.613281 51.679688 246.515625 C 51.839844 246.199219 51.695312 245.980469 51.207031 245.90625 Z M 48.960938 240.65625 C 48.675781 240.242188 48.507812 240.007812 48.304688 239.707031 C 48.042969 240.332031 48.230469 240.558594 48.960938 240.65625 Z M 59.160156 236.347656 C 59.160156 236.648438 59.160156 236.859375 59.160156 237.070312 C 59.441406 236.835938 59.597656 236.601562 59.160156 236.347656 Z M 56.660156 237.332031 C 57.007812 237.453125 57.285156 237.550781 57.554688 237.648438 C 57.238281 237.121094 57.238281 237.121094 56.660156 237.332031 Z M 47.867188 236.730469 C 47.957031 236.414062 48.027344 236.1875 48.125 235.835938 C 47.429688 236.167969 47.429688 236.167969 47.867188 236.730469 Z M 32.242188 255.726562 C 32.242188 256 32.242188 256.1875 32.242188 256.375 C 32.523438 256.195312 32.726562 255.976562 32.242188 255.726562 Z M 30.480469 222.386719 C 30.511719 222.464844 30.542969 222.546875 30.570312 222.621094 C 30.714844 222.539062 30.859375 222.457031 31 222.367188 C 30.976562 222.3125 30.949219 222.261719 30.925781 222.207031 C 30.78125 222.265625 30.632812 222.328125 30.480469 222.386719 Z M 36.523438 275.757812 C 36.929688 275.636719 36.929688 275.636719 36.695312 275.140625 C 36.644531 275.328125 36.589844 275.523438 36.523438 275.757812 Z M 39.25 263.925781 C 39.308594 263.933594 39.386719 263.828125 39.453125 263.773438 C 39.339844 263.65625 39.21875 263.535156 39.085938 263.390625 C 38.867188 263.722656 38.964844 263.875 39.25 263.925781 Z M 59.914062 228.1875 C 59.914062 228.246094 60.050781 228.359375 60.078125 228.34375 C 60.179688 228.292969 60.3125 228.214844 60.320312 228.125 C 60.335938 228.050781 60.199219 227.953125 60.066406 227.773438 C 59.980469 227.992188 59.914062 228.089844 59.914062 228.1875 Z M 69.632812 234.648438 C 69.464844 234.398438 69.324219 234.1875 69.074219 233.820312 C 68.820312 234.78125 68.820312 234.78125 69.632812 234.648438 Z M 30.457031 248.359375 C 30.421875 248.433594 30.351562 248.515625 30.34375 248.589844 C 30.34375 248.660156 30.414062 248.734375 30.480469 248.839844 C 30.570312 248.726562 30.683594 248.636719 30.667969 248.597656 C 30.632812 248.507812 30.535156 248.441406 30.457031 248.359375 Z M 68.511719 238.46875 C 68.839844 238.882812 69.105469 239.210938 69.367188 239.542969 C 69.4375 239.519531 69.503906 239.492188 69.566406 239.46875 C 69.382812 238.933594 69.210938 238.390625 68.976562 237.683594 C 68.742188 238.078125 68.609375 238.300781 68.511719 238.46875 Z M 69.746094 211.851562 C 69.753906 211.910156 69.761719 211.980469 69.769531 212.039062 C 69.957031 211.992188 70.152344 211.949219 70.339844 211.902344 C 70.324219 211.84375 70.304688 211.777344 70.289062 211.714844 C 70.105469 211.761719 69.925781 211.804688 69.746094 211.851562 Z M 67.449219 234.84375 C 67.882812 234.457031 67.75 234.074219 67.847656 233.683594 C 67.597656 233.722656 67.449219 233.738281 67.230469 233.765625 C 67.3125 234.164062 67.363281 234.4375 67.449219 234.84375 Z M 74.363281 220.207031 C 74.324219 220.207031 74.296875 220.289062 74.234375 220.371094 C 74.417969 220.523438 74.589844 220.671875 74.800781 220.847656 C 74.945312 220.363281 74.785156 220.175781 74.363281 220.207031 Z M 74.007812 258.015625 C 73.683594 258.464844 73.683594 258.464844 73.957031 258.894531 C 73.972656 258.546875 73.996094 258.277344 74.007812 258.015625 Z M 62.300781 247.734375 C 62.40625 247.855469 62.519531 247.972656 62.625 248.085938 C 62.679688 248.035156 62.722656 247.972656 62.777344 247.921875 C 62.65625 247.816406 62.542969 247.710938 62.421875 247.605469 C 62.386719 247.652344 62.347656 247.6875 62.300781 247.734375 Z M 62.65625 238.882812 C 62.671875 238.84375 62.550781 238.699219 62.492188 238.699219 C 62.386719 238.699219 62.289062 238.777344 62.183594 238.820312 C 62.242188 238.917969 62.300781 239.007812 62.398438 239.175781 C 62.527344 239.039062 62.617188 238.972656 62.65625 238.882812 Z M 66.90625 243.144531 C 67.457031 243.046875 67.457031 242.597656 67.5 242.167969 C 67.273438 242.414062 67.046875 242.65625 66.828125 242.90625 C 66.808594 242.933594 66.859375 243.019531 66.90625 243.144531 Z M 62.484375 242.113281 C 62.300781 242.070312 62.121094 242.023438 61.941406 241.980469 C 61.925781 242.046875 61.910156 242.113281 61.894531 242.183594 C 62.078125 242.226562 62.257812 242.265625 62.4375 242.3125 C 62.453125 242.25 62.46875 242.183594 62.484375 242.113281 Z M 61.871094 259.804688 C 62.015625 259.917969 62.167969 260.039062 62.308594 260.148438 C 62.371094 260.074219 62.421875 259.992188 62.484375 259.917969 C 62.316406 259.828125 62.144531 259.738281 61.976562 259.644531 C 61.949219 259.699219 61.910156 259.75 61.871094 259.804688 Z M 61.984375 274.296875 C 62.152344 274.035156 62.714844 273.945312 62.257812 273.304688 C 61.957031 273.648438 61.8125 273.921875 61.984375 274.296875 Z M 235.636719 242.355469 C 235.570312 242.632812 235.519531 242.828125 235.472656 243.023438 C 235.953125 242.890625 236.089844 242.6875 235.636719 242.355469 Z M 222.546875 230.328125 C 222.777344 230.425781 223.019531 230.527344 223.253906 230.617188 C 223.277344 230.5625 223.296875 230.519531 223.320312 230.464844 C 223.09375 230.359375 222.875 230.253906 222.652344 230.140625 C 222.621094 230.210938 222.582031 230.269531 222.546875 230.328125 Z M 222.09375 236.691406 C 222.078125 237.382812 221.769531 237.835938 221.070312 238.015625 C 220.667969 238.121094 220.316406 238.355469 219.9375 238.535156 C 220.84375 238.640625 221.625 238.210938 222.425781 237.820312 C 222.476562 237.796875 222.507812 237.722656 222.546875 237.671875 C 222.929688 237.144531 222.847656 236.941406 222.09375 236.691406 Z M 214.695312 234.421875 C 214.71875 234.496094 214.742188 234.570312 214.761719 234.648438 C 214.890625 234.601562 215.011719 234.550781 215.140625 234.503906 C 215.125 234.453125 215.109375 234.40625 215.101562 234.355469 C 214.964844 234.375 214.832031 234.398438 214.695312 234.421875 Z M 218.621094 238.046875 C 218.769531 238.144531 218.914062 238.234375 219.066406 238.332031 C 219.09375 238.285156 219.125 238.242188 219.164062 238.195312 C 219.035156 238.082031 218.898438 237.972656 218.769531 237.867188 C 218.726562 237.925781 218.671875 237.984375 218.621094 238.046875 Z M 209.25 223.574219 C 209.203125 223.5 209.136719 223.351562 209.128906 223.351562 C 208.976562 223.410156 208.84375 223.484375 208.699219 223.5625 C 208.722656 223.613281 208.738281 223.660156 208.757812 223.710938 C 208.925781 223.675781 209.082031 223.628906 209.25 223.574219 Z M 208.035156 243.648438 C 208.359375 243.625 208.675781 243.613281 209 243.589844 C 209.007812 243.542969 209.007812 243.5 209.015625 243.453125 C 208.683594 243.453125 208.351562 243.453125 208.027344 243.453125 C 208.027344 243.515625 208.027344 243.582031 208.035156 243.648438 Z M 209.785156 243.332031 C 209.800781 243.410156 209.804688 243.492188 209.820312 243.566406 C 209.988281 243.535156 210.144531 243.515625 210.3125 243.484375 C 210.289062 243.402344 210.257812 243.242188 210.25 243.242188 C 210.085938 243.257812 209.933594 243.296875 209.785156 243.332031 Z M 251.113281 198.921875 C 250.773438 198.960938 250.441406 199.09375 250.179688 199.171875 C 250.464844 199.292969 250.773438 199.433594 251.097656 199.539062 C 251.253906 199.59375 251.457031 199.597656 251.59375 199.53125 C 251.675781 199.496094 251.722656 199.179688 251.667969 199.132812 C 251.511719 199.011719 251.292969 198.898438 251.113281 198.921875 Z M 250.101562 247.589844 C 250.214844 247.613281 250.335938 247.644531 250.449219 247.664062 C 250.464844 247.621094 250.480469 247.566406 250.496094 247.523438 C 250.367188 247.507812 250.238281 247.5 250.101562 247.484375 C 250.109375 247.523438 250.109375 247.554688 250.101562 247.589844 Z M 237.679688 242.605469 C 237.898438 243.085938 238.09375 243.101562 238.480469 242.828125 L 238.425781 242.777344 C 238.15625 242.710938 237.964844 242.671875 237.679688 242.605469 Z M 225.710938 259 C 225.730469 259.074219 225.753906 259.15625 225.777344 259.234375 C 225.929688 259.164062 226.078125 259.097656 226.238281 259.039062 C 226.222656 258.992188 226.207031 258.945312 226.191406 258.902344 C 226.027344 258.933594 225.867188 258.960938 225.710938 259 Z M 73.21875 272.296875 C 72.871094 272.558594 72.941406 272.824219 73.234375 273.070312 C 73.679688 273.445312 74.128906 273.808594 74.566406 274.167969 C 74.816406 273.355469 74.761719 273.28125 73.21875 272.296875 Z M 198.070312 231.464844 C 198.070312 231.15625 198.070312 230.894531 198.070312 230.519531 C 197.746094 230.878906 197.519531 231.128906 197.128906 231.5625 C 197.570312 231.519531 197.820312 231.496094 198.070312 231.464844 Z M 186.519531 224.011719 C 186.558594 224.09375 186.597656 224.179688 186.632812 224.261719 C 186.808594 224.171875 186.972656 224.085938 187.144531 223.996094 C 187.117188 223.929688 187.085938 223.871094 187.046875 223.800781 C 186.867188 223.878906 186.695312 223.945312 186.519531 224.011719 Z M 181.519531 190.46875 C 181.164062 190.65625 180.960938 190.761719 180.644531 190.929688 C 181.074219 191.003906 181.332031 191.019531 181.519531 190.46875 Z M 209.160156 241.988281 C 209.414062 242.625 209.785156 242.167969 210.078125 242.183594 C 209.851562 241.714844 209.558594 241.710938 209.160156 241.988281 Z M 177.429688 186.128906 C 177.480469 186.191406 177.539062 186.300781 177.578125 186.296875 C 177.683594 186.273438 177.78125 186.203125 178.097656 186.046875 C 177.878906 185.964844 177.78125 185.890625 177.714844 185.910156 C 177.601562 185.949219 177.519531 186.054688 177.429688 186.128906 Z M 172.554688 186.136719 C 172.539062 186.226562 172.636719 186.339844 172.726562 186.519531 C 172.855469 186.371094 172.992188 186.28125 172.984375 186.203125 C 172.976562 186.105469 172.855469 186.023438 172.789062 185.933594 C 172.703125 186 172.5625 186.0625 172.554688 186.136719 Z M 190.738281 194.769531 C 190.867188 194.394531 190.933594 194.191406 191.039062 193.875 C 190.730469 193.945312 190.558594 193.980469 190.273438 194.042969 C 190.4375 194.296875 190.542969 194.46875 190.738281 194.769531 Z M 207.878906 234.78125 C 207.878906 234.640625 207.878906 234.496094 207.878906 234.355469 C 207.800781 234.355469 207.726562 234.359375 207.652344 234.359375 C 207.683594 234.503906 207.710938 234.65625 207.734375 234.796875 C 207.789062 234.789062 207.832031 234.78125 207.878906 234.78125 Z M 207.273438 240.542969 C 207.199219 240.632812 207.238281 240.8125 207.214844 241.015625 C 207.523438 240.898438 207.75 240.804688 208.066406 240.6875 C 207.789062 240.191406 207.515625 240.265625 207.273438 240.542969 Z M 203.335938 239.980469 C 203.335938 239.988281 203.441406 240.015625 203.492188 240.039062 C 203.523438 239.910156 203.5625 239.785156 203.589844 239.648438 C 203.539062 239.632812 203.484375 239.617188 203.433594 239.601562 C 203.394531 239.722656 203.359375 239.851562 203.335938 239.980469 Z M 44.328125 276.417969 L 44.929688 276.417969 C 44.96875 276.378906 45.011719 276.34375 45.050781 276.3125 C 44.9375 276.222656 44.816406 276.050781 44.710938 276.058594 C 44.472656 276.0625 44.320312 276.167969 44.328125 276.417969 Z M 199.546875 245.191406 C 199.5 244.761719 199.476562 244.550781 199.441406 244.191406 C 199.042969 244.613281 199.199219 244.800781 199.546875 245.191406 Z M 106.765625 256.34375 C 106.9375 256.585938 107.117188 256.820312 107.292969 257.058594 C 107.34375 257.023438 107.398438 256.984375 107.449219 256.945312 C 107.285156 256.691406 107.109375 256.433594 106.945312 256.1875 C 106.878906 256.238281 106.824219 256.292969 106.765625 256.34375 Z M 134.53125 223.296875 C 134.5625 223.066406 134.601562 222.855469 134.652344 222.457031 C 134.074219 223.050781 134.074219 223.050781 134.53125 223.296875 Z M 131.042969 250.546875 C 131.777344 250.765625 131.84375 250.304688 132.015625 249.980469 C 131.964844 249.929688 131.917969 249.875 131.867188 249.824219 C 131.617188 250.035156 131.375 250.253906 131.042969 250.546875 Z M 126.675781 267.300781 C 126.675781 267.039062 126.675781 266.851562 126.675781 266.445312 C 126.457031 266.851562 126.292969 267.039062 126.675781 267.300781 Z M 126.8125 262.195312 C 126.804688 262.25 126.917969 262.367188 126.976562 262.363281 C 127.050781 262.355469 127.121094 262.261719 127.21875 262.179688 C 127.121094 262.105469 127.042969 262.007812 126.984375 262.015625 C 126.917969 262.03125 126.824219 262.128906 126.8125 262.195312 Z M 135.789062 243.800781 C 135.59375 243.949219 135.390625 244.09375 135.195312 244.242188 C 135.59375 244.355469 135.828125 244.25 135.789062 243.800781 Z M 136.304688 215.640625 C 136.492188 215.542969 136.679688 215.453125 136.851562 215.347656 C 136.867188 215.339844 136.816406 215.136719 136.761719 215.113281 C 136.476562 215.003906 136.296875 215.121094 136.304688 215.640625 Z M 123.535156 266.386719 C 123.550781 266.453125 123.5625 266.527344 123.578125 266.59375 C 123.746094 266.558594 123.910156 266.519531 124.078125 266.492188 C 124.0625 266.421875 124.046875 266.347656 124.03125 266.28125 C 123.867188 266.308594 123.699219 266.347656 123.535156 266.386719 Z M 125.347656 248.890625 C 124.941406 248.921875 124.589844 248.953125 124.226562 248.972656 C 124.738281 249.597656 124.746094 249.597656 125.347656 248.890625 Z M 120.015625 252.125 C 119.519531 252.570312 119.132812 252.914062 118.742188 253.269531 C 118.878906 253.75 118.9375 254.351562 118.492188 254.5625 C 118.117188 254.742188 118.15625 254.9375 118.085938 255.203125 C 118.003906 255.511719 117.882812 255.8125 117.785156 256.105469 C 117.460938 256.179688 117.191406 256.238281 116.925781 256.292969 C 116.867188 256.894531 116.8125 257.441406 116.761719 257.992188 C 116.203125 258.34375 116.203125 258.34375 116.242188 259.660156 C 116.800781 259.546875 116.933594 259.136719 117.09375 258.757812 C 117.183594 258.546875 117.199219 258.300781 117.328125 258.128906 C 118.246094 256.847656 118.644531 255.335938 119.210938 253.90625 C 119.4375 253.328125 119.730469 252.976562 120.257812 252.734375 C 120.558594 252.597656 120.828125 252.410156 121.117188 252.246094 C 121.085938 252.199219 121.0625 252.15625 121.03125 252.117188 C 120.625 252.125 120.226562 252.125 120.015625 252.125 Z M 116.542969 267.769531 C 116.746094 268.007812 116.972656 268.210938 117.507812 267.980469 C 117.152344 267.800781 116.917969 267.679688 116.679688 267.558594 C 116.632812 267.632812 116.589844 267.703125 116.542969 267.769531 Z M 121.71875 251.222656 C 121.644531 251.214844 121.476562 251.351562 121.484375 251.402344 C 121.492188 251.5 121.589844 251.636719 121.679688 251.675781 C 121.75 251.695312 121.863281 251.582031 122.027344 251.484375 C 121.882812 251.351562 121.808594 251.222656 121.71875 251.222656 Z M 137.765625 225.222656 C 137.628906 225.34375 137.5 225.480469 137.378906 225.605469 C 137.464844 225.675781 137.554688 225.742188 137.636719 225.808594 C 137.726562 225.652344 137.816406 225.492188 137.890625 225.335938 C 137.890625 225.320312 137.773438 225.222656 137.765625 225.222656 Z M 231.253906 243.21875 C 230.847656 243.046875 230.53125 242.914062 230.175781 242.761719 C 230.304688 243.515625 230.425781 244.25 230.5625 245.070312 C 230.886719 245.027344 231.140625 244.988281 231.554688 244.933594 C 231.246094 244.550781 231.050781 244.304688 230.871094 244.070312 C 230.984375 243.824219 231.109375 243.542969 231.253906 243.21875 Z M 74.9375 214.308594 C 74.9375 214.402344 75.042969 214.484375 75.101562 214.566406 C 75.175781 214.484375 75.273438 214.40625 75.328125 214.308594 C 75.351562 214.265625 75.265625 214.167969 75.109375 213.835938 C 75.011719 214.078125 74.9375 214.199219 74.9375 214.308594 Z M 273.222656 212.4375 C 273.273438 212.429688 273.328125 212.421875 273.378906 212.421875 C 273.402344 212.242188 273.425781 212.054688 273.480469 211.671875 C 273.269531 211.910156 273.140625 211.988281 273.132812 212.078125 C 273.109375 212.195312 273.183594 212.316406 273.222656 212.4375 Z M 271.460938 196.554688 C 271.640625 197.027344 271.792969 197.417969 272.003906 197.960938 C 272.386719 197.359375 271.917969 197.035156 271.835938 196.644531 C 271.828125 196.597656 271.640625 196.597656 271.460938 196.554688 Z M 271.160156 181.828125 C 271.074219 181.707031 270.992188 181.578125 270.902344 181.460938 C 270.855469 181.488281 270.8125 181.519531 270.765625 181.550781 C 270.847656 181.675781 270.933594 181.796875 271.007812 181.925781 C 271.058594 181.894531 271.113281 181.859375 271.160156 181.828125 Z M 270.074219 200.96875 C 270.527344 200.601562 270.773438 200.398438 271.171875 200.074219 C 270.765625 199.929688 270.546875 199.855469 270.230469 199.742188 C 270.1875 200.132812 270.148438 200.425781 270.074219 200.96875 Z M 267.941406 192.199219 C 267.941406 192.183594 267.785156 192.167969 267.785156 192.167969 C 267.746094 192.320312 267.714844 192.476562 267.683594 192.628906 C 267.777344 192.644531 267.859375 192.65625 267.949219 192.671875 C 267.949219 192.515625 267.957031 192.355469 267.941406 192.199219 Z M 269.9375 195.769531 C 269.808594 196.367188 269.808594 196.367188 270.449219 196.644531 C 270.238281 196.273438 270.089844 196.019531 269.9375 195.769531 Z M 156.558594 230.699219 C 156.574219 230.757812 156.589844 230.820312 156.605469 230.878906 C 156.765625 230.832031 156.921875 230.789062 157.085938 230.75 C 157.074219 230.691406 157.058594 230.628906 157.042969 230.570312 C 156.875 230.617188 156.71875 230.652344 156.558594 230.699219 Z M 160.75 232.246094 C 160.921875 232.367188 161.109375 232.496094 161.320312 232.640625 C 161.34375 232.570312 161.367188 232.496094 161.367188 232.421875 C 161.367188 232.375 161.382812 232.332031 161.398438 232.285156 C 161.222656 232.164062 161.003906 232.164062 160.882812 232.023438 C 160.839844 232.089844 160.792969 232.164062 160.75 232.246094 Z M 142.84375 149.773438 C 142.820312 149.847656 142.863281 149.9375 142.878906 150.03125 C 142.96875 149.96875 143.082031 149.929688 143.136719 149.847656 C 143.164062 149.804688 143.089844 149.699219 143.054688 149.570312 C 142.953125 149.652344 142.863281 149.707031 142.84375 149.773438 Z M 148.613281 175.652344 C 148.613281 175.660156 148.726562 175.765625 148.734375 175.757812 C 148.859375 175.667969 148.972656 175.5625 149.09375 175.464844 C 149.035156 175.398438 148.980469 175.328125 148.921875 175.261719 C 148.824219 175.398438 148.71875 175.523438 148.613281 175.652344 Z M 118.402344 240.566406 C 118.546875 241.101562 118.667969 241.535156 118.78125 241.980469 C 118.847656 241.957031 118.921875 241.925781 118.992188 241.90625 C 118.945312 241.445312 119.171875 240.890625 118.402344 240.566406 Z M 137.621094 219.882812 C 137.886719 219.695312 138.101562 219.550781 138.097656 219.539062 C 137.992188 219.34375 137.855469 219.167969 137.621094 218.839844 C 137.621094 219.257812 137.621094 219.46875 137.621094 219.882812 Z M 87.070312 250.898438 C 87.101562 251.066406 87.140625 251.230469 87.171875 251.394531 C 87.230469 251.386719 87.289062 251.375 87.351562 251.367188 C 87.320312 251.199219 87.296875 251.035156 87.269531 250.863281 C 87.207031 250.878906 87.140625 250.890625 87.070312 250.898438 Z M 87.976562 220.644531 C 88.8125 220.460938 88.8125 220.460938 88.59375 219.792969 C 88.351562 220.125 88.171875 220.371094 87.976562 220.644531 Z M 82.953125 270.949219 C 82.589844 271.214844 82.234375 271.484375 81.835938 271.777344 C 82.582031 272.027344 82.582031 272.027344 82.953125 270.949219 Z M 95.238281 220.90625 C 95.320312 220.921875 95.398438 220.945312 95.480469 220.957031 C 95.496094 220.664062 95.839844 220.425781 95.488281 219.964844 C 95.390625 220.351562 95.3125 220.628906 95.238281 220.90625 Z M 118.246094 230.035156 C 118.910156 229.316406 119.269531 228.503906 118.644531 227.417969 C 118.425781 227.816406 118.117188 228.15625 118.078125 228.515625 C 117.972656 229.511719 118.019531 229.519531 116.996094 229.59375 C 116.941406 229.601562 116.898438 229.660156 116.84375 229.699219 C 117.257812 230.433594 117.75 230.578125 118.246094 230.035156 Z M 80.210938 269.980469 C 80.503906 270.03125 80.796875 270.09375 81.089844 270.144531 C 81.097656 270.070312 81.113281 269.996094 81.121094 269.917969 C 80.835938 269.808594 80.546875 269.664062 80.210938 269.980469 Z M 77.300781 264.59375 C 77.164062 264.265625 77.074219 264.0625 76.949219 263.753906 C 76.585938 264.257812 76.75 264.429688 77.300781 264.59375 Z M 79.789062 269.589844 C 79.523438 269.613281 79.296875 269.632812 79.078125 269.65625 C 79.003906 270.785156 79.003906 270.785156 79.695312 271.664062 C 79.945312 271.640625 80.195312 271.621094 80.449219 271.597656 C 79.675781 271.273438 79.425781 270.65625 79.789062 269.589844 Z M 101.632812 235.878906 C 101.648438 235.933594 101.65625 235.992188 101.671875 236.046875 C 101.800781 236.007812 101.9375 235.96875 102.0625 235.917969 C 102.070312 235.917969 102.042969 235.8125 102.027344 235.753906 C 101.890625 235.796875 101.761719 235.835938 101.632812 235.878906 Z M 80.414062 258.585938 C 80.203125 258.839844 80.019531 259.058594 79.6875 259.472656 C 80.210938 259.367188 80.480469 259.308594 80.8125 259.238281 C 80.667969 259.007812 80.570312 258.839844 80.414062 258.585938 Z M 80.488281 273.785156 C 80.480469 273.839844 80.632812 273.972656 80.660156 273.957031 C 80.765625 273.914062 80.855469 273.824219 80.925781 273.734375 C 80.941406 273.71875 80.835938 273.605469 80.667969 273.402344 C 80.585938 273.566406 80.503906 273.671875 80.488281 273.785156 Z M 80.074219 224.101562 C 80.148438 224.125 80.351562 223.976562 80.335938 223.9375 C 80.316406 223.816406 80.210938 223.703125 80.089844 223.515625 C 79.96875 223.675781 79.839844 223.773438 79.855469 223.839844 C 79.878906 223.9375 79.984375 224.074219 80.074219 224.101562 Z M 99.367188 249.824219 C 99.480469 249.898438 99.554688 249.945312 99.628906 249.996094 C 99.660156 249.9375 99.722656 249.871094 99.707031 249.832031 C 99.683594 249.757812 99.609375 249.695312 99.554688 249.628906 C 99.496094 249.679688 99.441406 249.742188 99.367188 249.824219 Z M 109.746094 226.066406 C 109.785156 226.082031 109.832031 226.089844 109.867188 226.101562 C 109.988281 225.742188 110.148438 225.382812 110.222656 225.003906 C 110.304688 224.621094 110.3125 224.222656 110.359375 223.757812 C 110.160156 223.847656 110.054688 223.871094 110.054688 223.898438 C 109.949219 224.621094 109.851562 225.34375 109.746094 226.066406 Z M 111.253906 266.289062 C 111.320312 266.339844 111.414062 266.453125 111.457031 266.4375 C 111.554688 266.40625 111.625 266.308594 111.742188 266.203125 C 111.617188 266.113281 111.503906 266.015625 111.480469 266.03125 C 111.390625 266.097656 111.328125 266.203125 111.253906 266.289062 Z M 111.738281 213.199219 C 111.773438 213.289062 111.847656 213.378906 111.933594 213.421875 C 111.96875 213.445312 112.066406 213.355469 112.195312 213.28125 C 112.066406 213.167969 112 213.078125 111.902344 213.03125 C 111.878906 213.023438 111.730469 213.167969 111.738281 213.199219 Z M 101.726562 230.871094 C 101.671875 230.863281 101.621094 230.847656 101.574219 230.839844 C 101.492188 231.269531 101.414062 231.707031 101.332031 232.136719 C 101.410156 232.148438 101.476562 232.164062 101.550781 232.179688 C 101.613281 231.742188 101.671875 231.308594 101.726562 230.871094 Z M 120.625 250.476562 C 120.582031 250.757812 120.429688 251.019531 120.292969 251.375 C 121.019531 251.050781 120.722656 250.304688 121.242188 249.898438 C 120.597656 249.816406 120.679688 250.171875 120.625 250.476562 Z M 116.769531 235.414062 C 116.519531 235.558594 116.277344 235.699219 116.160156 235.765625 C 116.007812 236.234375 115.886719 236.601562 115.722656 237.097656 C 116.171875 236.769531 116.511719 236.558594 116.820312 236.300781 C 117.101562 236.066406 117.054688 235.570312 116.769531 235.414062 Z M 101.648438 250.515625 C 101.664062 250.304688 101.671875 250.148438 101.6875 249.875 C 101.4375 250.246094 101.4375 250.246094 101.648438 250.515625 Z M 109.242188 260.527344 C 109.199219 260.675781 109.167969 260.828125 109.128906 260.976562 C 109.210938 260.992188 109.296875 261 109.378906 261.015625 C 109.394531 260.851562 109.410156 260.691406 109.417969 260.527344 C 109.363281 260.527344 109.25 260.511719 109.242188 260.527344 Z M 102.433594 222.246094 C 102.230469 222.929688 103.109375 222.605469 103.179688 223.066406 C 103.050781 223.359375 102.914062 223.675781 102.78125 223.988281 C 103.398438 223.90625 103.8125 223.675781 103.742188 223.070312 C 103.691406 222.582031 103.132812 222.246094 102.433594 222.246094 Z M 104.300781 252.816406 C 104.332031 252.824219 104.363281 252.832031 104.390625 252.832031 C 104.445312 252.703125 104.496094 252.578125 104.550781 252.449219 C 104.488281 252.433594 104.429688 252.425781 104.367188 252.410156 C 104.339844 252.539062 104.316406 252.683594 104.300781 252.816406 Z M 267.363281 199.824219 C 267.398438 199.886719 267.429688 199.953125 267.46875 200.011719 C 267.707031 199.871094 267.957031 199.726562 268.199219 199.578125 C 268.175781 199.53125 268.144531 199.488281 268.121094 199.441406 C 267.867188 199.570312 267.617188 199.699219 267.363281 199.824219 Z M 267.363281 199.824219 " fill-opacity="1" fill-rule="nonzero"/></svg>