<svg xmlns="http://www.w3.org/2000/svg" xmlns:xlink="http://www.w3.org/1999/xlink" width="500" zoomAndPan="magnify" viewBox="0 0 375 374.999991" height="500" preserveAspectRatio="xMidYMid meet" version="1.0"><defs><clipPath id="113d7c5ac9"><path d="M 185 44 L 311.660156 44 L 311.660156 345 L 185 345 Z M 185 44 " clip-rule="nonzero"/></clipPath><clipPath id="28f865669b"><path d="M 63.410156 74 L 190 74 L 190 375 L 63.410156 375 Z M 63.410156 74 " clip-rule="nonzero"/></clipPath></defs><g clip-path="url(#113d7c5ac9)"><path fill="#e4e6e7" d="M 283.804688 319.953125 C 279.992188 319.613281 275.292969 316.882812 274.011719 309.667969 L 257.835938 224.046875 C 263.183594 219.117188 271.140625 210.9375 275.914062 202.078125 C 278.464844 197.871094 279.902344 193.300781 279.949219 188.722656 C 279.964844 187.921875 279.9375 187.128906 279.851562 186.339844 C 279.800781 185.84375 279.738281 185.347656 279.65625 184.855469 C 277.289062 170.65625 240.742188 56.769531 237.199219 45.738281 C 237.375 45.53125 237.488281 45.390625 237.527344 45.34375 C 237.785156 45.019531 237.734375 44.546875 237.410156 44.285156 C 237.085938 44.027344 236.609375 44.082031 236.351562 44.402344 C 236.339844 44.421875 236.113281 44.695312 235.71875 45.152344 C 235.71875 45.152344 235.714844 45.152344 235.714844 45.152344 L 211.789062 50.585938 L 211.09375 50.742188 L 187.207031 56.167969 C 186.648438 55.929688 186.328125 55.777344 186.308594 55.765625 C 185.933594 55.585938 185.484375 55.746094 185.304688 56.117188 C 185.125 56.492188 185.28125 56.941406 185.65625 57.121094 C 185.707031 57.144531 185.851562 57.214844 186.078125 57.316406 C 186.078125 57.316406 186.082031 57.316406 186.082031 57.320312 C 186.082031 57.320312 186.078125 57.320312 186.078125 57.320312 C 187.625 68.640625 203.902344 187.3125 207.90625 201.148438 C 208.042969 201.628906 208.203125 202.101562 208.371094 202.570312 C 208.636719 203.320312 208.953125 204.050781 209.316406 204.765625 C 211.335938 208.875 214.605469 212.375 218.722656 215.0625 C 226.910156 221.035156 237.714844 224.988281 244.664062 227.117188 L 267.054688 311.25 C 268.613281 316.859375 267 320.84375 264.617188 323.226562 C 255.152344 328.433594 239.445312 338.128906 240.023438 344.867188 L 311.648438 328.601562 C 309.511719 322.953125 294.644531 320.785156 283.804688 319.953125 Z M 283.804688 319.953125 " fill-opacity="1" fill-rule="nonzero"/></g><g clip-path="url(#28f865669b)"><path fill="#e4e6e7" d="M 189.753906 86.011719 C 189.574219 85.636719 189.125 85.480469 188.75 85.660156 C 188.730469 85.667969 188.410156 85.820312 187.855469 86.058594 L 163.964844 80.632812 L 163.269531 80.476562 L 139.351562 75.046875 C 139.121094 74.773438 138.714844 74.304688 138.707031 74.296875 C 138.445312 73.972656 137.972656 73.917969 137.648438 74.179688 C 137.324219 74.4375 137.273438 74.910156 137.53125 75.234375 C 137.570312 75.28125 137.683594 75.421875 137.859375 75.628906 C 137.859375 75.632812 137.863281 75.632812 137.863281 75.632812 L 137.863281 75.636719 C 137.863281 75.632812 137.859375 75.632812 137.859375 75.628906 C 137.78125 75.867188 137.683594 76.171875 137.578125 76.503906 L 137.578125 76.507812 C 132.738281 91.566406 97.714844 200.855469 95.398438 214.746094 C 95.316406 215.238281 95.257812 215.734375 95.207031 216.230469 C 95.121094 217.019531 95.09375 217.8125 95.109375 218.613281 C 95.15625 223.195312 96.59375 227.761719 99.144531 231.96875 C 103.917969 240.828125 111.875 249.011719 117.21875 253.9375 L 101.046875 339.558594 C 99.765625 346.773438 95.066406 349.503906 91.253906 349.84375 C 80.414062 350.675781 65.546875 352.847656 63.410156 358.496094 L 135.035156 374.761719 C 135.613281 368.023438 119.90625 358.324219 110.441406 353.117188 C 108.058594 350.738281 106.445312 346.753906 108.003906 341.140625 L 130.394531 257.007812 C 137.34375 254.882812 148.148438 250.925781 156.335938 244.957031 C 160.453125 242.265625 163.722656 238.765625 165.742188 234.65625 C 166.105469 233.941406 166.421875 233.210938 166.6875 232.460938 C 166.855469 231.996094 167.015625 231.519531 167.152344 231.039062 C 170.992188 217.773438 186.113281 108.132812 188.714844 89.15625 L 188.714844 89.136719 C 188.828125 88.332031 188.917969 87.675781 188.980469 87.210938 C 189.207031 87.109375 189.351562 87.039062 189.402344 87.015625 C 189.777344 86.835938 189.933594 86.386719 189.753906 86.011719 Z M 189.753906 86.011719 " fill-opacity="1" fill-rule="nonzero"/></g><path fill="#741714" d="M 162.574219 131.367188 C 148.707031 131.726562 129.550781 120.289062 127.945312 119.316406 C 110.511719 174.460938 100.304688 208.53125 99.160156 215.386719 C 99.097656 215.777344 99.042969 216.183594 98.996094 216.671875 C 98.929688 217.277344 98.902344 217.921875 98.917969 218.628906 C 98.957031 222.449219 100.171875 226.441406 102.433594 230.171875 L 102.480469 230.25 L 102.523438 230.328125 C 106.980469 238.601562 114.421875 246.335938 119.914062 251.398438 C 121.132812 252.558594 122.777344 253.414062 124.542969 253.816406 C 126.253906 254.203125 128.023438 254.148438 129.582031 253.640625 C 136.714844 251.460938 146.820312 247.6875 154.457031 242.121094 L 154.53125 242.066406 L 154.609375 242.019531 C 158.257812 239.632812 161.082031 236.558594 162.78125 233.097656 C 163.085938 232.496094 163.339844 231.902344 163.554688 231.289062 C 163.710938 230.871094 163.839844 230.480469 163.949219 230.101562 C 165.875 223.445312 173.089844 176.773438 181.179688 119.667969 C 180.121094 121.671875 174.527344 131.054688 162.574219 131.367188 Z M 116.117188 202.839844 C 113.9375 202.839844 113.941406 199.457031 116.117188 199.457031 C 118.296875 199.457031 118.292969 202.839844 116.117188 202.839844 Z M 118.132812 195.234375 C 115.953125 195.234375 115.953125 191.851562 118.132812 191.851562 C 120.3125 191.851562 120.308594 195.234375 118.132812 195.234375 Z M 122.050781 178.683594 C 119.867188 178.683594 119.871094 175.296875 122.050781 175.296875 C 124.230469 175.296875 124.226562 178.683594 122.050781 178.683594 Z M 127.152344 226.457031 C 124.972656 226.457031 124.976562 223.074219 127.152344 223.074219 C 129.335938 223.074219 129.332031 226.457031 127.152344 226.457031 Z M 128.898438 220.277344 C 126.71875 220.277344 126.722656 216.894531 128.898438 216.894531 C 131.082031 216.894531 131.078125 220.277344 128.898438 220.277344 Z M 164.554688 162.203125 L 148.578125 233.488281 C 148.5 233.835938 148.191406 234.074219 147.847656 234.074219 C 147.792969 234.074219 147.738281 234.070312 147.679688 234.058594 C 147.277344 233.96875 147.019531 233.566406 147.113281 233.160156 L 163.085938 161.875 C 163.175781 161.46875 163.578125 161.214844 163.984375 161.304688 C 164.390625 161.394531 164.644531 161.796875 164.554688 162.203125 Z M 181.242188 119.257812 C 181.238281 119.265625 181.238281 119.277344 181.238281 119.289062 L 154.558594 119.265625 Z M 272.53125 200.4375 L 272.574219 200.355469 L 272.625 200.277344 C 274.886719 196.546875 276.101562 192.558594 276.140625 188.738281 C 276.15625 188.03125 276.128906 187.382812 276.0625 186.777344 C 276.015625 186.289062 275.960938 185.882812 275.898438 185.492188 C 274.753906 178.640625 264.546875 144.570312 247.113281 89.421875 C 245.507812 90.398438 226.351562 101.835938 212.484375 101.472656 C 200.53125 101.164062 194.933594 91.777344 193.875 89.777344 C 201.964844 146.878906 209.179688 193.550781 211.105469 200.207031 C 211.214844 200.585938 211.34375 200.976562 211.5 201.398438 C 211.714844 202.007812 211.96875 202.605469 212.273438 203.207031 C 213.976562 206.664062 216.796875 209.738281 220.445312 212.125 L 220.523438 212.171875 L 220.597656 212.226562 C 228.234375 217.796875 238.339844 221.566406 245.476562 223.75 C 247.035156 224.257812 248.800781 224.3125 250.511719 223.921875 C 252.277344 223.519531 253.925781 222.664062 255.140625 221.507812 C 260.636719 216.441406 268.078125 208.710938 272.53125 200.4375 Z M 213.695312 147.636719 C 211.515625 147.636719 211.519531 144.253906 213.695312 144.253906 C 215.878906 144.253906 215.875 147.636719 213.695312 147.636719 Z M 217.464844 161.363281 C 219.644531 161.363281 219.640625 164.746094 217.464844 164.746094 C 215.28125 164.746094 215.285156 161.363281 217.464844 161.363281 Z M 218.996094 172.703125 C 216.816406 172.703125 216.816406 169.320312 218.996094 169.320312 C 221.175781 169.320312 221.171875 172.703125 218.996094 172.703125 Z M 238.582031 179.84375 C 240.765625 179.84375 240.761719 183.226562 238.582031 183.226562 C 236.402344 183.226562 236.40625 179.84375 238.582031 179.84375 Z M 239.726562 189.742188 C 237.546875 189.742188 237.546875 186.359375 239.726562 186.359375 C 241.90625 186.359375 241.902344 189.742188 239.726562 189.742188 Z M 244.882812 113.703125 C 244.789062 113.296875 245.039062 112.894531 245.445312 112.800781 C 245.847656 112.707031 246.253906 112.957031 246.347656 113.363281 L 263.394531 186.652344 C 263.488281 187.054688 263.234375 187.460938 262.832031 187.554688 C 262.773438 187.566406 262.714844 187.574219 262.660156 187.574219 C 262.316406 187.574219 262.007812 187.339844 261.929688 186.992188 Z M 220.519531 89.371094 L 193.820312 89.394531 C 193.820312 89.382812 193.820312 89.375 193.816406 89.363281 Z M 220.519531 89.371094 " fill-opacity="1" fill-rule="nonzero"/><path fill="#6d636d" d="M 154.558594 119.265625 L 181.238281 119.285156 L 181.375 119.285156 C 181.375 119.285156 181.308594 119.425781 181.183594 119.667969 C 180.121094 121.671875 174.527344 131.054688 162.574219 131.367188 C 148.707031 131.726562 129.550781 120.289062 127.945312 119.316406 C 127.871094 119.269531 127.824219 119.242188 127.824219 119.242188 Z M 188.75 85.660156 C 188.730469 85.667969 188.410156 85.820312 187.855469 86.058594 C 184.484375 87.507812 172.160156 92.292969 161.480469 89.871094 C 150.8125 87.449219 141.757812 77.804688 139.34375 75.042969 C 138.945312 74.589844 138.722656 74.3125 138.707031 74.296875 C 138.445312 73.972656 137.972656 73.917969 137.648438 74.179688 C 137.324219 74.4375 137.273438 74.910156 137.53125 75.234375 C 137.570312 75.28125 137.683594 75.421875 137.859375 75.628906 C 139.738281 77.863281 149.308594 88.648438 161.148438 91.335938 C 163.394531 91.847656 165.695312 92.058594 167.964844 92.058594 C 177.707031 92.058594 186.894531 88.15625 188.980469 87.210938 C 189.207031 87.109375 189.351562 87.039062 189.402344 87.015625 C 189.777344 86.835938 189.933594 86.386719 189.753906 86.011719 C 189.574219 85.636719 189.125 85.480469 188.75 85.660156 Z M 212.484375 101.476562 C 226.355469 101.835938 245.507812 90.398438 247.117188 89.421875 C 247.1875 89.378906 247.238281 89.351562 247.238281 89.351562 L 220.519531 89.371094 L 193.824219 89.394531 L 193.683594 89.394531 C 193.683594 89.394531 193.75 89.535156 193.875 89.773438 C 194.9375 91.777344 200.53125 101.164062 212.484375 101.476562 Z M 213.910156 61.445312 C 225.75 58.753906 235.320312 47.972656 237.199219 45.738281 C 237.375 45.53125 237.488281 45.390625 237.527344 45.34375 C 237.785156 45.019531 237.734375 44.546875 237.410156 44.285156 C 237.085938 44.027344 236.609375 44.082031 236.351562 44.402344 C 236.339844 44.421875 236.113281 44.695312 235.71875 45.152344 C 233.304688 47.910156 224.257812 57.550781 213.578125 59.976562 C 202.914062 62.398438 190.578125 57.613281 187.207031 56.167969 C 186.648438 55.929688 186.328125 55.777344 186.308594 55.765625 C 185.933594 55.585938 185.484375 55.746094 185.304688 56.117188 C 185.125 56.492188 185.28125 56.941406 185.65625 57.121094 C 185.707031 57.144531 185.851562 57.214844 186.078125 57.316406 C 188.164062 58.265625 197.347656 62.164062 207.09375 62.164062 C 209.363281 62.167969 211.664062 61.953125 213.910156 61.445312 Z M 213.910156 61.445312 " fill-opacity="1" fill-rule="nonzero"/><path fill="#646a90" d="M 167.085938 46.816406 L 156.6875 44.871094 L 167.085938 42.929688 L 169.03125 32.53125 L 170.976562 42.929688 L 181.375 44.871094 L 170.976562 46.816406 L 169.03125 57.214844 Z M 190.675781 38.828125 L 193.71875 22.582031 L 209.96875 19.542969 L 193.71875 16.5 L 190.675781 0.257812 L 187.636719 16.503906 L 171.386719 19.542969 L 187.636719 22.582031 Z M 190.675781 38.828125 " fill-opacity="1" fill-rule="nonzero"/></svg>