<svg xmlns="http://www.w3.org/2000/svg" xmlns:xlink="http://www.w3.org/1999/xlink" width="500" zoomAndPan="magnify" viewBox="0 0 375 374.999991" height="500" preserveAspectRatio="xMidYMid meet" version="1.0"><path fill="#453e42" d="M 234.742188 187.667969 L 361.921875 60.550781 C 375 47.480469 375 26.40625 361.921875 13.332031 C 348.84375 0.261719 327.757812 0.261719 314.679688 13.332031 L 187.5 140.449219 L 60.320312 13.332031 C 47.242188 0.261719 26.15625 0.261719 13.078125 13.332031 C 0 26.40625 0 47.480469 13.078125 60.550781 L 140.257812 187.667969 L 13.078125 314.78125 C 0 327.855469 0 348.929688 13.078125 362 C 19.617188 368.535156 28.160156 371.738281 36.699219 371.738281 C 45.238281 371.738281 53.78125 368.535156 60.320312 362 L 187.5 234.886719 L 314.679688 362 C 321.21875 368.535156 329.757812 371.738281 338.300781 371.738281 C 346.839844 371.738281 355.382812 368.535156 361.921875 362 C 375 348.929688 375 327.855469 361.921875 314.78125 Z M 234.742188 187.667969 " fill-opacity="1" fill-rule="nonzero"/></svg>