<svg xmlns="http://www.w3.org/2000/svg" xmlns:xlink="http://www.w3.org/1999/xlink" width="500" zoomAndPan="magnify" viewBox="0 0 375 374.999991" height="500" preserveAspectRatio="xMidYMid meet" version="1.0"><defs><clipPath id="a5d5687ebb"><path d="M 0 84 L 314.25 84 L 314.25 290.84375 L 0 290.84375 Z M 0 84 " clip-rule="nonzero"/></clipPath></defs><g clip-path="url(#a5d5687ebb)"><path fill="#741714" d="M 271.597656 131.066406 C 272.375 134.285156 270.402344 137.519531 267.191406 138.292969 C 263.976562 139.070312 260.742188 137.089844 259.960938 133.875 C 259.1875 130.660156 261.160156 127.425781 264.371094 126.648438 C 267.585938 125.875 270.820312 127.851562 271.597656 131.066406 Z M 294.484375 145.808594 L 280.289062 137.132812 C 278.355469 135.949219 278.8125 133.023438 281.011719 132.488281 L 297.179688 128.585938 C 297.9375 134.628906 296.917969 140.566406 294.484375 145.808594 Z M 276.667969 162.207031 L 272.753906 146.03125 C 272.21875 143.824219 274.613281 142.082031 276.546875 143.261719 L 290.746094 151.941406 C 287.195312 156.503906 282.382812 160.125 276.667969 162.207031 Z M 268.09375 142.046875 C 262.8125 143.320312 257.492188 140.066406 256.214844 134.78125 C 254.933594 129.496094 258.179688 124.171875 263.464844 122.898438 C 268.75 121.621094 274.066406 124.871094 275.347656 130.164062 C 276.625 135.449219 273.378906 140.769531 268.09375 142.046875 Z M 252.472656 161.183594 L 261.132812 146.984375 C 262.3125 145.050781 265.242188 145.511719 265.773438 147.710938 L 269.6875 163.890625 C 263.652344 164.644531 257.710938 163.625 252.472656 161.183594 Z M 246.34375 157.4375 C 241.78125 153.878906 238.160156 149.0625 236.074219 143.339844 L 252.238281 139.4375 C 254.4375 138.90625 256.183594 141.300781 255.003906 143.238281 Z M 234.382812 136.355469 C 233.625 130.3125 234.640625 124.375 237.074219 119.128906 L 251.273438 127.808594 C 253.207031 128.992188 252.746094 131.921875 250.546875 132.453125 Z M 254.894531 102.734375 L 258.808594 118.914062 C 259.339844 121.113281 256.945312 122.863281 255.011719 121.679688 L 240.816406 113 C 244.363281 108.4375 249.179688 104.820312 254.894531 102.734375 Z M 279.085938 103.761719 L 270.425781 117.960938 C 269.246094 119.890625 266.320312 119.433594 265.785156 117.226562 L 261.871094 101.054688 C 267.910156 100.292969 273.847656 101.320312 279.085938 103.761719 Z M 285.214844 107.507812 C 289.78125 111.058594 293.402344 115.882812 295.488281 121.605469 L 279.324219 125.503906 C 277.121094 126.039062 275.375 123.636719 276.554688 121.707031 Z M 314.183594 135.316406 C 314.136719 135.113281 313.667969 133.386719 313.128906 133.265625 L 307.492188 132.019531 C 306.503906 131.800781 305.78125 130.953125 305.714844 129.941406 C 305.6875 129.507812 305.652344 129.070312 305.605469 128.632812 C 305.511719 127.625 306.089844 126.671875 307.035156 126.296875 L 312.394531 124.171875 C 312.90625 123.96875 313.101562 122.1875 313.105469 121.976562 C 313.117188 121.511719 312.914062 120.621094 312.679688 120.214844 C 312.578125 120.03125 311.59375 118.53125 311.042969 118.585938 L 305.300781 119.144531 C 304.292969 119.242188 303.339844 118.660156 302.96875 117.714844 C 302.804688 117.308594 302.636719 116.902344 302.464844 116.5 C 302.058594 115.570312 302.316406 114.488281 303.097656 113.839844 L 307.539062 110.160156 C 307.964844 109.808594 307.597656 108.054688 307.539062 107.855469 C 307.402344 107.40625 306.933594 106.621094 306.585938 106.308594 C 306.433594 106.167969 305.035156 105.046875 304.527344 105.269531 L 299.246094 107.570312 C 298.316406 107.976562 297.234375 107.714844 296.585938 106.9375 C 296.304688 106.597656 296.019531 106.265625 295.730469 105.9375 C 295.058594 105.175781 294.964844 104.066406 295.507812 103.207031 L 298.597656 98.335938 C 298.890625 97.871094 298 96.3125 297.882812 96.140625 C 297.617188 95.757812 296.929688 95.15625 296.5 94.964844 C 296.308594 94.875 294.636719 94.246094 294.222656 94.609375 L 289.902344 98.441406 C 289.144531 99.113281 288.03125 99.199219 287.175781 98.660156 C 286.808594 98.425781 286.433594 98.195312 286.058594 97.976562 C 285.183594 97.460938 284.757812 96.429688 285.003906 95.449219 L 286.441406 89.851562 C 286.574219 89.316406 285.25 88.109375 285.085938 87.984375 C 284.710938 87.699219 283.871094 87.34375 283.40625 87.289062 C 283.199219 87.265625 281.410156 87.179688 281.128906 87.660156 L 278.210938 92.632812 C 277.695312 93.507812 276.667969 93.933594 275.683594 93.683594 C 275.261719 93.570312 274.832031 93.472656 274.40625 93.375 C 273.417969 93.15625 272.691406 92.308594 272.628906 91.296875 L 272.261719 85.539062 C 272.226562 84.984375 270.589844 84.25 270.394531 84.179688 C 269.957031 84.027344 269.046875 83.945312 268.585938 84.039062 C 268.382812 84.082031 266.652344 84.554688 266.535156 85.09375 L 265.292969 90.730469 C 265.078125 91.722656 264.230469 92.445312 263.21875 92.507812 C 262.785156 92.539062 262.351562 92.574219 261.914062 92.613281 C 260.902344 92.714844 259.949219 92.132812 259.574219 91.1875 L 257.449219 85.820312 C 257.246094 85.304688 255.464844 85.113281 255.257812 85.105469 C 254.785156 85.082031 253.902344 85.308594 253.492188 85.535156 C 253.308594 85.628906 251.816406 86.617188 251.867188 87.167969 L 252.429688 92.914062 C 252.527344 93.921875 251.945312 94.875 251.003906 95.25 C 250.597656 95.410156 250.191406 95.578125 249.789062 95.753906 C 248.863281 96.15625 247.777344 95.898438 247.128906 95.117188 L 243.449219 90.667969 C 243.097656 90.242188 241.347656 90.609375 241.148438 90.667969 C 240.695312 90.789062 239.921875 91.28125 239.601562 91.617188 C 239.457031 91.769531 238.339844 93.167969 238.5625 93.671875 L 240.871094 98.964844 C 241.273438 99.894531 241.015625 100.980469 240.234375 101.625 C 239.898438 101.90625 239.566406 102.191406 239.242188 102.480469 C 238.480469 103.15625 237.367188 103.246094 236.511719 102.699219 L 231.640625 99.605469 C 231.175781 99.3125 229.621094 100.203125 229.449219 100.316406 C 229.058594 100.578125 228.472656 101.28125 228.273438 101.703125 C 228.179688 101.890625 227.554688 103.566406 227.921875 103.980469 L 231.753906 108.304688 C 232.425781 109.066406 232.515625 110.179688 231.972656 111.035156 C 231.738281 111.402344 231.511719 111.773438 231.289062 112.152344 C 230.777344 113.023438 229.75 113.453125 228.765625 113.203125 L 223.171875 111.765625 C 222.636719 111.625 221.4375 112.957031 221.304688 113.117188 C 221.011719 113.488281 220.675781 114.335938 220.613281 114.796875 C 220.585938 115.007812 220.507812 116.792969 220.984375 117.074219 L 225.957031 120.003906 C 226.832031 120.515625 227.257812 121.546875 227.007812 122.53125 C 226.898438 122.953125 226.796875 123.378906 226.703125 123.808594 C 226.480469 124.796875 225.636719 125.523438 224.628906 125.585938 L 218.875 125.945312 C 218.324219 125.980469 217.589844 127.617188 217.515625 127.8125 C 217.351562 128.253906 217.292969 129.164062 217.378906 129.625 C 217.417969 129.828125 217.890625 131.558594 218.429688 131.679688 L 224.066406 132.921875 C 225.054688 133.140625 225.777344 133.988281 225.847656 135 C 225.871094 135.4375 225.910156 135.871094 225.953125 136.308594 C 226.050781 137.320312 225.472656 138.273438 224.527344 138.648438 L 219.167969 140.769531 C 218.652344 140.976562 218.464844 142.753906 218.453125 142.960938 C 218.429688 143.433594 218.65625 144.316406 218.882812 144.730469 C 218.980469 144.910156 219.964844 146.410156 220.515625 146.359375 L 226.257812 145.796875 C 227.265625 145.703125 228.21875 146.285156 228.59375 147.230469 C 228.753906 147.636719 228.921875 148.039062 229.097656 148.441406 C 229.503906 149.371094 229.246094 150.457031 228.460938 151.101562 L 224.019531 154.78125 C 223.597656 155.132812 223.964844 156.886719 224.019531 157.085938 C 224.148438 157.542969 224.632812 158.3125 224.972656 158.636719 C 225.121094 158.78125 226.527344 159.898438 227.03125 159.675781 L 232.316406 157.371094 C 233.242188 156.96875 234.328125 157.226562 234.976562 158.007812 C 235.257812 158.347656 235.539062 158.675781 235.832031 159.003906 C 236.503906 159.765625 236.59375 160.878906 236.054688 161.734375 L 232.964844 166.605469 C 232.667969 167.070312 233.5625 168.625 233.675781 168.800781 C 233.933594 169.195312 234.636719 169.777344 235.058594 169.980469 C 235.246094 170.070312 236.925781 170.699219 237.339844 170.332031 L 241.65625 166.5 C 242.417969 165.828125 243.527344 165.742188 244.386719 166.285156 C 244.753906 166.519531 245.125 166.746094 245.5 166.964844 C 246.375 167.480469 246.804688 168.511719 246.554688 169.496094 L 245.121094 175.09375 C 244.984375 175.625 246.3125 176.828125 246.476562 176.957031 C 246.84375 177.253906 247.691406 177.589844 248.15625 177.652344 C 248.359375 177.679688 250.152344 177.761719 250.429688 177.285156 L 253.351562 172.3125 C 253.863281 171.4375 254.894531 171.007812 255.878906 171.261719 C 256.300781 171.367188 256.726562 171.472656 257.152344 171.566406 C 258.144531 171.789062 258.871094 172.632812 258.933594 173.644531 L 259.300781 179.402344 C 259.332031 179.953125 260.96875 180.6875 261.164062 180.761719 C 261.601562 180.925781 262.515625 180.988281 262.972656 180.902344 C 263.179688 180.863281 264.90625 180.386719 265.023438 179.847656 L 266.265625 174.214844 C 266.480469 173.222656 267.328125 172.5 268.339844 172.433594 C 268.773438 172.40625 269.210938 172.371094 269.648438 172.328125 C 270.660156 172.230469 271.609375 172.8125 271.984375 173.753906 L 274.113281 179.121094 C 274.316406 179.636719 276.097656 179.832031 276.304688 179.835938 C 276.769531 179.847656 277.660156 179.644531 278.066406 179.410156 C 278.25 179.308594 279.746094 178.328125 279.695312 177.777344 L 279.132812 172.03125 C 279.03125 171.019531 279.613281 170.066406 280.558594 169.695312 C 280.964844 169.53125 281.371094 169.363281 281.769531 169.191406 C 282.699219 168.789062 283.785156 169.046875 284.429688 169.828125 L 288.109375 174.277344 C 288.460938 174.699219 290.214844 174.335938 290.414062 174.277344 C 290.863281 174.144531 291.644531 173.671875 291.960938 173.324219 C 292.101562 173.171875 293.21875 171.773438 292.996094 171.265625 L 290.691406 165.976562 C 290.289062 165.046875 290.546875 163.964844 291.324219 163.316406 C 291.660156 163.035156 291.992188 162.75 292.320312 162.460938 C 293.078125 161.789062 294.191406 161.699219 295.046875 162.242188 L 299.921875 165.335938 C 300.386719 165.632812 301.941406 164.742188 302.113281 164.621094 C 302.496094 164.359375 303.097656 163.671875 303.289062 163.242188 C 303.375 163.050781 304.007812 161.375 303.640625 160.964844 L 299.808594 156.636719 C 299.136719 155.875 299.046875 154.765625 299.589844 153.90625 C 299.820312 153.539062 300.050781 153.164062 300.269531 152.792969 C 300.785156 151.914062 301.8125 151.488281 302.792969 151.742188 L 308.390625 153.175781 C 308.921875 153.316406 310.128906 151.988281 310.253906 151.820312 C 310.539062 151.449219 310.894531 150.609375 310.945312 150.144531 C 310.96875 149.9375 311.054688 148.144531 310.574219 147.867188 L 305.605469 144.941406 C 304.726562 144.425781 304.300781 143.394531 304.550781 142.410156 C 304.660156 141.988281 304.761719 141.5625 304.855469 141.132812 C 305.078125 140.144531 305.921875 139.421875 306.933594 139.355469 L 312.6875 138.992188 C 313.238281 138.960938 313.972656 137.324219 314.042969 137.128906 C 314.195312 136.691406 314.277344 135.777344 314.183594 135.316406 Z M 54.625 244.929688 C 54.625 249.765625 50.703125 253.6875 45.875 253.6875 C 41.042969 253.6875 37.121094 249.765625 37.121094 244.929688 C 37.121094 240.097656 41.042969 236.171875 45.875 236.171875 C 50.703125 236.171875 54.625 240.097656 54.625 244.929688 Z M 45.8125 260.472656 C 37.234375 260.472656 30.28125 253.515625 30.28125 244.929688 C 30.28125 236.347656 37.234375 229.390625 45.8125 229.390625 C 54.390625 229.390625 61.34375 236.347656 61.34375 244.929688 C 61.34375 253.515625 54.390625 260.472656 45.8125 260.472656 Z M 63.492188 234.980469 C 63.042969 234.210938 62.546875 233.464844 62.003906 232.761719 L 65.246094 228.300781 C 65.421875 228.058594 64.941406 227.121094 64.875 227.015625 C 64.730469 226.777344 64.351562 226.386719 64.109375 226.246094 C 64.003906 226.1875 63.066406 225.703125 62.828125 225.875 L 58.371094 229.125 C 57.664062 228.582031 56.925781 228.082031 56.148438 227.632812 L 57.441406 222.273438 C 57.507812 221.984375 56.703125 221.300781 56.605469 221.226562 C 56.378906 221.066406 55.882812 220.851562 55.605469 220.816406 C 55.484375 220.796875 54.429688 220.710938 54.277344 220.960938 L 51.402344 225.664062 C 50.550781 225.4375 49.671875 225.261719 48.777344 225.144531 L 47.921875 219.699219 C 47.875 219.40625 46.871094 219.078125 46.75 219.050781 C 46.480469 218.988281 45.9375 218.984375 45.667969 219.050781 C 45.546875 219.082031 44.542969 219.40625 44.5 219.699219 L 43.640625 225.144531 C 42.746094 225.261719 41.867188 225.4375 41.015625 225.664062 L 38.140625 220.960938 C 37.988281 220.710938 36.933594 220.796875 36.816406 220.816406 C 36.539062 220.851562 36.039062 221.066406 35.8125 221.226562 C 35.714844 221.300781 34.910156 221.984375 34.980469 222.273438 L 36.269531 227.632812 C 35.492188 228.082031 34.753906 228.582031 34.050781 229.125 L 29.589844 225.875 C 29.351562 225.703125 28.414062 226.1875 28.308594 226.246094 C 28.066406 226.386719 27.6875 226.777344 27.542969 227.015625 C 27.476562 227.121094 26.996094 228.058594 27.171875 228.300781 L 30.414062 232.761719 C 29.871094 233.464844 29.375 234.210938 28.925781 234.980469 L 23.570312 233.691406 C 23.28125 233.625 22.601562 234.429688 22.527344 234.527344 C 22.359375 234.75 22.15625 235.253906 22.109375 235.527344 C 22.09375 235.648438 22.007812 236.703125 22.261719 236.855469 L 26.960938 239.734375 C 26.730469 240.585938 26.554688 241.464844 26.441406 242.363281 L 20.996094 243.21875 C 20.703125 243.265625 20.382812 244.269531 20.351562 244.390625 C 20.28125 244.660156 20.285156 245.203125 20.351562 245.472656 C 20.378906 245.59375 20.703125 246.597656 20.996094 246.644531 L 26.441406 247.5 C 26.554688 248.398438 26.730469 249.273438 26.960938 250.128906 L 22.261719 253.007812 C 22.007812 253.160156 22.097656 254.214844 22.109375 254.335938 C 22.152344 254.609375 22.367188 255.113281 22.527344 255.335938 C 22.601562 255.4375 23.28125 256.242188 23.570312 256.171875 L 28.925781 254.878906 C 29.375 255.652344 29.871094 256.394531 30.414062 257.101562 L 27.171875 261.566406 C 26.996094 261.800781 27.480469 262.742188 27.542969 262.847656 C 27.683594 263.085938 28.074219 263.46875 28.308594 263.613281 C 28.414062 263.679688 29.351562 264.160156 29.589844 263.984375 L 34.050781 260.738281 C 34.753906 261.285156 35.492188 261.78125 36.269531 262.230469 L 34.980469 267.589844 C 34.910156 267.875 35.714844 268.558594 35.8125 268.632812 C 36.035156 268.800781 36.539062 269.003906 36.816406 269.046875 C 36.933594 269.066406 37.988281 269.152344 38.140625 268.902344 L 41.015625 264.195312 C 41.867188 264.425781 42.746094 264.605469 43.640625 264.71875 L 44.5 270.164062 C 44.542969 270.457031 45.546875 270.78125 45.667969 270.8125 C 45.9375 270.882812 46.480469 270.875 46.75 270.8125 C 46.871094 270.78125 47.875 270.457031 47.921875 270.164062 L 48.777344 264.71875 C 49.671875 264.605469 50.550781 264.425781 51.402344 264.195312 L 54.277344 268.902344 C 54.429688 269.152344 55.484375 269.066406 55.605469 269.046875 C 55.878906 269.003906 56.382812 268.800781 56.605469 268.632812 C 56.703125 268.558594 57.507812 267.875 57.441406 267.589844 L 56.148438 262.230469 C 56.925781 261.78125 57.664062 261.285156 58.371094 260.738281 L 62.828125 263.984375 C 63.066406 264.160156 64.003906 263.679688 64.109375 263.613281 C 64.34375 263.46875 64.734375 263.085938 64.875 262.847656 C 64.941406 262.742188 65.421875 261.800781 65.246094 261.566406 L 62.003906 257.101562 C 62.546875 256.394531 63.042969 255.652344 63.492188 254.878906 L 68.847656 256.171875 C 69.136719 256.242188 69.820312 255.4375 69.890625 255.335938 C 70.054688 255.113281 70.269531 254.609375 70.308594 254.335938 C 70.324219 254.214844 70.410156 253.160156 70.15625 253.007812 L 65.457031 250.128906 C 65.691406 249.273438 65.863281 248.398438 65.980469 247.5 L 71.421875 246.644531 C 71.714844 246.597656 72.039062 245.59375 72.066406 245.472656 C 72.132812 245.203125 72.136719 244.660156 72.066406 244.390625 C 72.035156 244.269531 71.714844 243.265625 71.421875 243.21875 L 65.980469 242.363281 C 65.863281 241.464844 65.691406 240.585938 65.457031 239.734375 L 70.15625 236.855469 C 70.410156 236.703125 70.324219 235.648438 70.308594 235.527344 C 70.261719 235.253906 70.058594 234.75 69.890625 234.527344 C 69.816406 234.429688 69.136719 233.625 68.847656 233.691406 Z M 45.875 277.660156 C 27.816406 277.660156 13.175781 263.003906 13.175781 244.929688 C 13.175781 226.855469 27.816406 212.203125 45.875 212.203125 C 63.933594 212.203125 78.570312 226.855469 78.570312 244.929688 C 78.570312 263.003906 63.933594 277.660156 45.875 277.660156 Z M 90.515625 241.554688 L 83.523438 240.324219 C 83.089844 236.730469 82.152344 233.289062 80.789062 230.074219 L 86.222656 225.515625 C 86.625 225.179688 86.132812 223.175781 86.054688 222.945312 C 85.890625 222.429688 85.363281 221.496094 84.988281 221.097656 C 84.824219 220.917969 83.335938 219.484375 82.847656 219.664062 L 76.175781 222.101562 C 74.042969 219.265625 71.519531 216.738281 68.6875 214.601562 L 71.117188 207.925781 C 71.300781 207.433594 69.871094 205.945312 69.6875 205.78125 C 69.289062 205.417969 68.363281 204.871094 67.839844 204.714844 C 67.609375 204.644531 65.609375 204.144531 65.269531 204.546875 L 60.71875 209.988281 C 57.507812 208.617188 54.070312 207.683594 50.476562 207.25 L 49.25 200.25 C 49.160156 199.734375 47.175781 199.160156 46.941406 199.109375 C 46.410156 198.996094 45.335938 198.984375 44.804688 199.109375 C 44.570312 199.164062 42.585938 199.734375 42.5 200.25 L 41.269531 207.25 C 37.675781 207.683594 34.238281 208.617188 31.027344 209.988281 L 26.476562 204.546875 C 26.140625 204.144531 24.136719 204.644531 23.90625 204.714844 C 23.386719 204.871094 22.460938 205.417969 22.054688 205.78125 C 21.875 205.945312 20.445312 207.433594 20.628906 207.925781 L 23.058594 214.601562 C 20.226562 216.738281 17.703125 219.265625 15.570312 222.101562 L 8.902344 219.664062 C 8.410156 219.484375 6.921875 220.917969 6.757812 221.097656 C 6.382812 221.496094 5.855469 222.429688 5.691406 222.945312 C 5.617188 223.175781 5.121094 225.179688 5.523438 225.515625 L 10.957031 230.074219 C 9.59375 233.289062 8.65625 236.730469 8.222656 240.324219 L 1.230469 241.554688 C 0.714844 241.644531 0.144531 243.625 0.0898438 243.863281 C -0.0351562 244.394531 -0.0234375 245.46875 0.0898438 246 C 0.140625 246.238281 0.714844 248.222656 1.230469 248.308594 L 8.222656 249.539062 C 8.65625 253.136719 9.59375 256.574219 10.957031 259.789062 L 5.523438 264.347656 C 5.121094 264.683594 5.621094 266.683594 5.691406 266.917969 C 5.847656 267.441406 6.394531 268.363281 6.757812 268.769531 C 6.921875 268.949219 8.410156 270.378906 8.902344 270.199219 L 15.570312 267.761719 C 17.703125 270.597656 20.226562 273.125 23.058594 275.261719 L 20.628906 281.933594 C 20.445312 282.429688 21.878906 283.914062 22.054688 284.082031 C 22.453125 284.453125 23.386719 284.980469 23.90625 285.148438 C 24.136719 285.222656 26.140625 285.714844 26.476562 285.316406 L 31.027344 279.878906 C 34.238281 281.242188 37.675781 282.179688 41.269531 282.617188 L 42.5 289.613281 C 42.585938 290.128906 44.570312 290.699219 44.804688 290.753906 C 45.335938 290.878906 46.410156 290.867188 46.941406 290.753906 C 47.175781 290.703125 49.160156 290.128906 49.25 289.613281 L 50.476562 282.617188 C 54.070312 282.179688 57.507812 281.242188 60.71875 279.878906 L 65.269531 285.316406 C 65.609375 285.714844 67.613281 285.222656 67.839844 285.148438 C 68.359375 284.980469 69.292969 284.453125 69.6875 284.082031 C 69.867188 283.914062 71.300781 282.429688 71.117188 281.933594 L 68.6875 275.261719 C 71.519531 273.125 74.042969 270.597656 76.175781 267.761719 L 82.847656 270.199219 C 83.335938 270.378906 84.824219 268.949219 84.988281 268.769531 C 85.351562 268.363281 85.898438 267.441406 86.054688 266.917969 C 86.125 266.683594 86.625 264.683594 86.222656 264.347656 L 80.789062 259.789062 C 82.152344 256.574219 83.089844 253.136719 83.523438 249.539062 L 90.515625 248.308594 C 91.03125 248.222656 91.605469 246.238281 91.65625 246 C 91.769531 245.46875 91.78125 244.394531 91.65625 243.863281 C 91.601562 243.625 91.03125 241.644531 90.515625 241.554688 " fill-opacity="1" fill-rule="nonzero"/></g><path fill="#646a90" d="M 365.804688 161.90625 C 365.800781 162.109375 365.734375 162.304688 365.699219 162.492188 C 365.664062 162.675781 365.625 162.851562 365.59375 163.015625 C 365.394531 163.652344 365.261719 164.070312 365.261719 164.070312 C 365.261719 164.070312 365.082031 164.480469 364.808594 165.085938 C 364.730469 165.230469 364.640625 165.386719 364.546875 165.550781 C 364.449219 165.714844 364.375 165.902344 364.242188 166.0625 C 363.996094 166.394531 363.765625 166.773438 363.460938 167.089844 C 362.910156 167.78125 362.203125 168.320312 361.683594 168.730469 C 361.402344 168.914062 361.171875 169.0625 361.011719 169.164062 C 360.929688 169.21875 360.863281 169.257812 360.820312 169.289062 C 360.773438 169.3125 360.75 169.324219 360.75 169.324219 C 360.75 169.324219 360.648438 169.371094 360.476562 169.460938 C 360.390625 169.503906 360.285156 169.558594 360.167969 169.617188 C 360.105469 169.652344 360.042969 169.6875 359.976562 169.722656 C 359.90625 169.75 359.828125 169.777344 359.753906 169.804688 C 359.441406 169.917969 359.09375 170.097656 358.6875 170.1875 C 358.484375 170.246094 358.28125 170.316406 358.070312 170.367188 C 357.859375 170.402344 357.640625 170.445312 357.425781 170.484375 C 357.316406 170.503906 357.207031 170.539062 357.097656 170.542969 C 356.988281 170.550781 356.878906 170.5625 356.769531 170.570312 C 356.554688 170.585938 356.34375 170.617188 356.136719 170.625 C 355.929688 170.621094 355.730469 170.621094 355.539062 170.617188 C 355.351562 170.617188 355.171875 170.625 355.011719 170.597656 C 354.679688 170.554688 354.40625 170.527344 354.214844 170.511719 C 354.027344 170.46875 353.917969 170.445312 353.917969 170.445312 C 353.917969 170.445312 353.808594 170.421875 353.621094 170.382812 C 353.527344 170.363281 353.410156 170.339844 353.277344 170.316406 C 353.148438 170.292969 353.007812 170.226562 352.84375 170.179688 C 352.6875 170.132812 352.515625 170.074219 352.332031 170.019531 C 352.144531 169.972656 351.972656 169.863281 351.777344 169.789062 C 351.589844 169.699219 351.386719 169.628906 351.191406 169.53125 C 351.003906 169.417969 350.8125 169.3125 350.617188 169.207031 C 350.523438 169.148438 350.421875 169.105469 350.332031 169.046875 C 350.242188 168.980469 350.152344 168.917969 350.066406 168.851562 C 349.886719 168.730469 349.710938 168.609375 349.539062 168.492188 C 349.386719 168.355469 349.234375 168.222656 349.09375 168.097656 C 348.953125 167.972656 348.800781 167.871094 348.695312 167.742188 C 348.472656 167.5 348.28125 167.304688 348.144531 167.164062 C 348.019531 167.015625 347.957031 166.929688 347.957031 166.929688 C 347.957031 166.929688 347.886719 166.839844 347.769531 166.6875 C 347.710938 166.613281 347.636719 166.523438 347.550781 166.417969 C 347.46875 166.308594 347.398438 166.171875 347.308594 166.035156 C 347.21875 165.894531 347.117188 165.746094 347.015625 165.589844 C 346.921875 165.421875 346.839844 165.238281 346.742188 165.054688 C 346.527344 164.695312 346.398438 164.269531 346.222656 163.863281 C 345.953125 163.019531 345.742188 162.15625 345.707031 161.496094 C 345.683594 161.167969 345.636719 160.894531 345.652344 160.699219 C 345.660156 160.507812 345.660156 160.398438 345.660156 160.398438 C 345.660156 160.398438 345.660156 160.289062 345.660156 160.097656 C 345.640625 159.902344 345.707031 159.632812 345.730469 159.300781 C 345.78125 158.640625 346.015625 157.789062 346.292969 156.941406 C 346.644531 156.125 347.03125 155.324219 347.429688 154.796875 C 347.625 154.53125 347.757812 154.285156 347.898438 154.152344 C 348.023438 154.007812 348.097656 153.925781 348.097656 153.925781 C 348.097656 153.925781 348.167969 153.84375 348.292969 153.695312 C 348.402344 153.539062 348.621094 153.363281 348.859375 153.128906 C 349.320312 152.660156 350.050781 152.148438 350.804688 151.691406 C 351.207031 151.503906 351.585938 151.265625 351.984375 151.136719 C 352.175781 151.0625 352.359375 150.980469 352.539062 150.917969 C 352.722656 150.863281 352.894531 150.816406 353.054688 150.769531 C 353.214844 150.726562 353.359375 150.671875 353.488281 150.644531 C 353.621094 150.621094 353.738281 150.605469 353.832031 150.585938 C 354.023438 150.550781 354.132812 150.527344 354.132812 150.527344 C 354.132812 150.527344 354.238281 150.503906 354.429688 150.472656 C 354.625 150.457031 354.898438 150.4375 355.226562 150.402344 C 355.390625 150.375 355.574219 150.398438 355.761719 150.398438 C 355.949219 150.398438 356.148438 150.398438 356.355469 150.398438 C 356.558594 150.421875 356.773438 150.445312 356.988281 150.46875 C 357.097656 150.480469 357.203125 150.492188 357.316406 150.5 C 357.425781 150.515625 357.53125 150.546875 357.636719 150.570312 C 357.855469 150.617188 358.070312 150.660156 358.28125 150.703125 C 358.492188 150.753906 358.695312 150.835938 358.894531 150.894531 C 359.089844 150.964844 359.292969 150.996094 359.464844 151.085938 C 359.640625 151.164062 359.804688 151.238281 359.957031 151.300781 C 360.105469 151.371094 360.253906 151.414062 360.367188 151.488281 C 360.484375 151.554688 360.589844 151.613281 360.671875 151.660156 C 360.839844 151.753906 360.9375 151.808594 360.9375 151.808594 C 360.9375 151.808594 361.035156 151.863281 361.203125 151.953125 C 361.359375 152.066406 361.582031 152.230469 361.855469 152.417969 C 361.996094 152.5 362.125 152.628906 362.269531 152.75 C 362.414062 152.875 362.566406 153 362.722656 153.132812 C 362.871094 153.28125 363.011719 153.441406 363.164062 153.597656 C 363.238281 153.671875 363.316406 153.75 363.390625 153.832031 C 363.472656 153.90625 363.53125 154.003906 363.601562 154.085938 C 363.734375 154.261719 363.871094 154.4375 364.007812 154.605469 C 364.132812 154.785156 364.238281 154.972656 364.351562 155.140625 C 364.597656 155.476562 364.738281 155.84375 364.902344 156.132812 C 364.941406 156.207031 364.984375 156.273438 365.011719 156.34375 C 365.042969 156.414062 365.066406 156.480469 365.089844 156.546875 C 365.136719 156.667969 365.183594 156.78125 365.21875 156.871094 C 365.289062 157.050781 365.332031 157.152344 365.332031 157.152344 C 365.332031 157.152344 365.34375 157.179688 365.363281 157.226562 C 365.378906 157.273438 365.398438 157.347656 365.421875 157.441406 C 365.476562 157.628906 365.554688 157.894531 365.644531 158.210938 C 365.765625 158.863281 365.9375 159.734375 365.898438 160.617188 C 365.921875 161.058594 365.839844 161.492188 365.804688 161.90625 Z M 374.953125 159.171875 C 374.914062 158.753906 374.890625 158.476562 374.890625 158.476562 C 374.890625 158.476562 374.410156 158.386719 373.691406 158.285156 C 372.980469 158.179688 372.003906 158.078125 371.035156 158.019531 C 370.597656 157.988281 370.164062 157.972656 369.75 157.960938 C 369.707031 157.71875 369.660156 157.492188 369.625 157.28125 C 369.503906 156.832031 369.390625 156.460938 369.316406 156.199219 C 369.277344 156.074219 369.246094 155.96875 369.226562 155.898438 C 369.199219 155.832031 369.183594 155.796875 369.183594 155.796875 C 369.183594 155.796875 369.128906 155.652344 369.027344 155.398438 C 368.980469 155.273438 368.917969 155.121094 368.847656 154.945312 C 368.8125 154.859375 368.773438 154.765625 368.734375 154.664062 C 368.691406 154.570312 368.640625 154.472656 368.585938 154.367188 C 368.484375 154.179688 368.382812 153.96875 368.269531 153.753906 C 368.585938 153.484375 368.917969 153.199219 369.242188 152.898438 C 369.960938 152.246094 370.632812 151.570312 371.132812 151.039062 C 371.628906 150.511719 371.953125 150.140625 371.953125 150.140625 C 371.953125 150.140625 371.800781 149.90625 371.570312 149.550781 C 371.339844 149.199219 370.980469 148.769531 370.636719 148.324219 C 370.304688 147.875 369.894531 147.484375 369.609375 147.175781 C 369.320312 146.871094 369.121094 146.671875 369.121094 146.671875 C 369.121094 146.671875 368.703125 146.90625 368.078125 147.300781 C 367.453125 147.691406 366.640625 148.230469 365.863281 148.804688 C 365.511719 149.0625 365.167969 149.324219 364.84375 149.582031 C 364.660156 149.421875 364.488281 149.265625 364.304688 149.148438 C 363.925781 148.882812 363.605469 148.660156 363.386719 148.507812 C 363.148438 148.371094 363.015625 148.296875 363.015625 148.296875 C 363.015625 148.296875 362.878906 148.21875 362.640625 148.085938 C 362.523438 148.019531 362.382812 147.9375 362.214844 147.847656 C 362.054688 147.75 361.847656 147.679688 361.636719 147.582031 C 361.441406 147.5 361.226562 147.40625 361.003906 147.308594 C 361.074219 146.898438 361.140625 146.464844 361.199219 146.03125 C 361.457031 144.140625 361.496094 142.179688 361.496094 142.179688 C 361.496094 142.179688 361.230469 142.097656 360.828125 141.96875 C 360.425781 141.855469 359.875 141.753906 359.324219 141.632812 C 358.777344 141.5 358.214844 141.464844 357.796875 141.414062 C 357.378906 141.371094 357.097656 141.339844 357.097656 141.339844 C 357.097656 141.339844 357.054688 141.453125 356.984375 141.652344 C 356.914062 141.851562 356.816406 142.140625 356.699219 142.492188 C 356.476562 143.191406 356.199219 144.128906 355.972656 145.0625 C 355.867188 145.488281 355.773438 145.914062 355.691406 146.3125 C 355.449219 146.3125 355.214844 146.300781 355 146.328125 C 354.539062 146.371094 354.152344 146.40625 353.882812 146.425781 C 353.617188 146.46875 353.464844 146.503906 353.464844 146.503906 C 353.464844 146.503906 353.3125 146.53125 353.042969 146.582031 C 352.914062 146.605469 352.75 146.636719 352.5625 146.671875 C 352.378906 146.710938 352.175781 146.78125 351.953125 146.84375 C 351.746094 146.902344 351.519531 146.964844 351.285156 147.035156 C 351.078125 146.675781 350.851562 146.300781 350.617188 145.941406 C 349.597656 144.324219 348.363281 142.792969 348.363281 142.792969 C 348.363281 142.792969 348.296875 142.820312 348.183594 142.867188 C 348.074219 142.914062 347.902344 142.96875 347.71875 143.066406 C 347.34375 143.25 346.84375 143.507812 346.347656 143.765625 C 345.859375 144.042969 345.394531 144.359375 345.039062 144.582031 C 344.863281 144.699219 344.710938 144.789062 344.613281 144.863281 C 344.515625 144.933594 344.460938 144.980469 344.460938 144.980469 C 344.460938 144.980469 345.132812 146.835938 345.992188 148.550781 C 346.1875 148.945312 346.382812 149.324219 346.578125 149.683594 C 346.390625 149.84375 346.21875 150 346.066406 150.152344 C 345.730469 150.476562 345.4375 150.726562 345.273438 150.945312 C 345.097656 151.152344 344.996094 151.269531 344.996094 151.269531 C 344.996094 151.269531 344.894531 151.386719 344.71875 151.589844 C 344.527344 151.789062 344.328125 152.121094 344.054688 152.496094 C 343.925781 152.667969 343.796875 152.863281 343.671875 153.070312 C 343.285156 152.929688 342.875 152.792969 342.460938 152.664062 C 340.632812 152.078125 338.691406 151.699219 338.691406 151.699219 C 338.691406 151.699219 338.546875 151.941406 338.386719 152.328125 C 338.21875 152.714844 337.996094 153.226562 337.777344 153.738281 C 337.605469 154.273438 337.433594 154.804688 337.304688 155.203125 C 337.171875 155.601562 337.117188 155.878906 337.117188 155.878906 C 337.117188 155.878906 338.828125 156.867188 340.589844 157.632812 C 340.984375 157.8125 341.382812 157.976562 341.769531 158.128906 C 341.726562 158.367188 341.695312 158.597656 341.675781 158.8125 C 341.632812 159.273438 341.5625 159.65625 341.578125 159.925781 C 341.574219 160.199219 341.574219 160.355469 341.574219 160.355469 C 341.574219 160.355469 341.574219 160.507812 341.570312 160.777344 C 341.550781 161.050781 341.605469 161.4375 341.640625 161.898438 C 341.65625 162.113281 341.683594 162.34375 341.722656 162.585938 C 341.335938 162.726562 340.933594 162.886719 340.527344 163.054688 C 338.75 163.777344 337.023438 164.734375 337.023438 164.734375 C 337.023438 164.734375 337.035156 164.800781 337.058594 164.921875 C 337.085938 165.039062 337.140625 165.207031 337.195312 165.410156 C 337.316406 165.8125 337.453125 166.355469 337.640625 166.886719 C 337.84375 167.40625 338.050781 167.925781 338.207031 168.316406 C 338.285156 168.507812 338.375 168.660156 338.429688 168.773438 C 338.484375 168.882812 338.511719 168.945312 338.511719 168.945312 C 338.511719 168.945312 340.453125 168.605469 342.285156 168.0625 C 342.699219 167.945312 343.117188 167.8125 343.511719 167.679688 C 343.644531 167.886719 343.769531 168.082031 343.886719 168.261719 C 344.011719 168.457031 344.117188 168.644531 344.230469 168.792969 C 344.347656 168.941406 344.453125 169.070312 344.535156 169.179688 C 344.699219 169.394531 344.796875 169.511719 344.796875 169.511719 C 344.796875 169.511719 344.890625 169.640625 345.0625 169.847656 C 345.25 170.042969 345.519531 170.320312 345.839844 170.65625 C 345.980469 170.820312 346.164062 170.964844 346.351562 171.125 C 346.148438 171.480469 345.9375 171.859375 345.734375 172.25 C 345.289062 173.101562 344.875 173.988281 344.585938 174.664062 C 344.4375 175.003906 344.324219 175.285156 344.246094 175.480469 C 344.167969 175.675781 344.125 175.789062 344.125 175.789062 C 344.125 175.789062 344.355469 175.953125 344.699219 176.195312 C 345.046875 176.433594 345.496094 176.773438 345.992188 177.035156 C 346.480469 177.308594 346.964844 177.59375 347.347656 177.773438 C 347.730469 177.941406 347.984375 178.054688 347.984375 178.054688 C 347.984375 178.054688 349.25 176.554688 350.300781 174.964844 C 350.546875 174.597656 350.78125 174.230469 350.996094 173.875 C 351.230469 173.949219 351.453125 174.019531 351.660156 174.085938 C 351.882812 174.152344 352.082031 174.230469 352.265625 174.269531 C 352.449219 174.308594 352.609375 174.339844 352.742188 174.371094 C 353.007812 174.425781 353.160156 174.457031 353.160156 174.457031 C 353.160156 174.457031 353.3125 174.488281 353.578125 174.542969 C 353.847656 174.570312 354.234375 174.613281 354.695312 174.664062 C 354.910156 174.695312 355.140625 174.695312 355.386719 174.695312 C 355.460938 175.101562 355.542969 175.527344 355.640625 175.949219 C 355.847656 176.890625 356.101562 177.835938 356.3125 178.539062 C 356.523438 179.246094 356.683594 179.703125 356.683594 179.703125 C 356.683594 179.703125 356.964844 179.675781 357.382812 179.640625 C 357.800781 179.597656 358.363281 179.574219 358.914062 179.453125 C 359.464844 179.347656 360.019531 179.261719 360.425781 179.148438 C 360.832031 179.03125 361.101562 178.957031 361.101562 178.957031 C 361.101562 178.957031 361.101562 178.46875 361.078125 177.738281 C 361.050781 177.007812 360.996094 176.0625 360.882812 175.09375 C 360.835938 174.65625 360.777344 174.222656 360.714844 173.816406 C 360.941406 173.726562 361.15625 173.632812 361.359375 173.558594 C 361.46875 173.515625 361.574219 173.476562 361.667969 173.433594 C 361.761719 173.386719 361.851562 173.34375 361.9375 173.296875 C 362.101562 173.210938 362.253906 173.136719 362.371094 173.074219 C 362.613281 172.953125 362.75 172.878906 362.75 172.878906 C 362.75 172.878906 362.785156 172.863281 362.851562 172.828125 C 362.910156 172.792969 363.003906 172.734375 363.117188 172.664062 C 363.34375 172.511719 363.671875 172.3125 364.058594 172.050781 C 364.230469 171.917969 364.410156 171.777344 364.605469 171.625 C 364.921875 171.890625 365.261719 172.164062 365.609375 172.429688 C 366.378906 173.023438 367.179688 173.585938 367.785156 173.976562 C 368.390625 174.375 368.808594 174.625 368.808594 174.625 C 368.808594 174.625 369.011719 174.429688 369.316406 174.140625 C 369.464844 173.992188 369.652344 173.832031 369.824219 173.632812 C 370 173.433594 370.179688 173.222656 370.363281 173.007812 C 370.550781 172.792969 370.730469 172.582031 370.902344 172.382812 C 371.066406 172.175781 371.199219 171.96875 371.324219 171.800781 C 371.566406 171.453125 371.726562 171.222656 371.726562 171.222656 C 371.726562 171.222656 371.417969 170.847656 370.933594 170.308594 C 370.457031 169.773438 369.769531 169.066406 369.066406 168.398438 C 368.75 168.09375 368.429688 167.800781 368.117188 167.527344 C 368.238281 167.316406 368.351562 167.113281 368.457031 166.925781 C 368.660156 166.511719 368.804688 166.148438 368.914062 165.902344 C 369.023438 165.652344 369.085938 165.507812 369.085938 165.507812 C 369.085938 165.507812 369.132812 165.363281 369.214844 165.105469 C 369.292969 164.84375 369.425781 164.480469 369.546875 164.03125 C 369.589844 163.820312 369.640625 163.59375 369.691406 163.355469 C 370.105469 163.355469 370.539062 163.347656 370.976562 163.324219 C 371.945312 163.289062 372.929688 163.207031 373.640625 163.117188 C 374.359375 163.03125 374.839844 162.953125 374.839844 162.953125 C 374.839844 162.953125 374.875 162.671875 374.917969 162.257812 C 374.9375 162.046875 374.972656 161.800781 374.984375 161.539062 C 374.988281 161.277344 374.992188 160.996094 374.996094 160.714844 C 374.996094 160.433594 374.996094 160.152344 375 159.890625 C 375.003906 159.625 374.964844 159.382812 374.953125 159.171875 Z M 267.089844 214.460938 C 268.023438 217.796875 266.074219 221.257812 262.738281 222.1875 C 259.402344 223.117188 255.941406 221.164062 255.011719 217.824219 C 254.078125 214.484375 256.027344 211.023438 259.363281 210.097656 C 262.703125 209.164062 266.160156 211.121094 267.089844 214.460938 Z M 267.859375 240.554688 C 254.390625 244.308594 240.417969 236.417969 236.65625 222.933594 C 232.894531 209.453125 240.765625 195.480469 254.242188 191.730469 C 267.710938 187.976562 281.683594 195.867188 285.445312 209.347656 C 289.207031 222.832031 281.335938 236.804688 267.859375 240.554688 Z M 290.191406 219.972656 C 290.539062 217.292969 290.523438 214.527344 290.101562 211.757812 L 295.058594 209.386719 C 295.421875 209.210938 295.441406 207.613281 295.429688 207.425781 C 295.402344 207.007812 295.1875 206.203125 294.984375 205.835938 C 294.894531 205.667969 294.054688 204.308594 293.652344 204.347656 L 288.179688 204.882812 C 287.109375 202.289062 285.695312 199.917969 284.007812 197.804688 L 287.113281 193.277344 C 287.339844 192.941406 286.554688 191.546875 286.453125 191.394531 C 286.222656 191.042969 285.632812 190.453125 285.269531 190.234375 C 285.109375 190.136719 283.703125 189.375 283.375 189.613281 L 278.90625 192.816406 C 276.722656 191.140625 274.316406 189.78125 271.757812 188.777344 L 272.183594 183.292969 C 272.214844 182.886719 270.835938 182.074219 270.671875 181.988281 C 270.296875 181.800781 269.488281 181.585938 269.066406 181.574219 C 268.878906 181.574219 267.285156 181.617188 267.117188 181.984375 L 264.851562 186.992188 C 262.171875 186.636719 259.410156 186.652344 256.644531 187.074219 L 254.269531 182.109375 C 254.097656 181.742188 252.496094 181.726562 252.308594 181.738281 C 251.890625 181.761719 251.089844 181.980469 250.714844 182.179688 C 250.550781 182.273438 249.191406 183.109375 249.234375 183.511719 L 249.773438 188.988281 C 247.183594 190.058594 244.816406 191.46875 242.703125 193.15625 L 238.175781 190.046875 C 237.839844 189.816406 236.453125 190.601562 236.292969 190.703125 C 235.9375 190.929688 235.363281 191.53125 235.136719 191.882812 C 235.035156 192.042969 234.277344 193.449219 234.515625 193.78125 L 237.71875 198.253906 C 236.054688 200.4375 234.695312 202.847656 233.691406 205.40625 L 228.210938 204.972656 C 227.804688 204.941406 226.996094 206.320312 226.910156 206.488281 C 226.714844 206.863281 226.515625 207.667969 226.496094 208.089844 C 226.492188 208.277344 226.539062 209.875 226.910156 210.039062 L 231.914062 212.3125 C 231.5625 214.992188 231.578125 217.753906 232.003906 220.527344 L 227.042969 222.898438 C 226.679688 223.070312 226.667969 224.667969 226.675781 224.855469 C 226.691406 225.277344 226.925781 226.078125 227.117188 226.449219 C 227.207031 226.617188 228.046875 227.976562 228.449219 227.9375 L 233.921875 227.402344 C 234.992188 229.996094 236.40625 232.367188 238.09375 234.480469 L 234.988281 239.007812 C 234.761719 239.339844 235.550781 240.730469 235.648438 240.890625 C 235.878906 241.25 236.476562 241.824219 236.832031 242.050781 C 236.992188 242.152344 238.398438 242.910156 238.726562 242.671875 L 243.195312 239.46875 C 245.378906 241.140625 247.785156 242.5 250.34375 243.507812 L 249.917969 248.992188 C 249.886719 249.398438 251.265625 250.207031 251.429688 250.292969 C 251.804688 250.488281 252.613281 250.6875 253.035156 250.707031 C 253.222656 250.714844 254.816406 250.667969 254.984375 250.296875 L 257.25 245.292969 C 259.929688 245.648438 262.691406 245.628906 265.457031 245.210938 L 267.832031 250.171875 C 268.007812 250.542969 269.605469 250.554688 269.792969 250.546875 C 270.214844 250.527344 271.011719 250.300781 271.386719 250.101562 C 271.550781 250.015625 272.910156 249.175781 272.867188 248.773438 L 272.328125 243.296875 C 274.917969 242.226562 277.289062 240.8125 279.398438 239.128906 L 283.925781 242.238281 C 284.261719 242.46875 285.652344 241.683594 285.808594 241.578125 C 286.160156 241.347656 286.746094 240.761719 286.964844 240.398438 C 287.0625 240.238281 287.824219 238.835938 287.585938 238.503906 L 284.382812 234.027344 C 286.050781 231.847656 287.40625 229.4375 288.410156 226.878906 L 293.890625 227.308594 C 294.296875 227.34375 295.109375 225.96875 295.191406 225.796875 C 295.378906 225.421875 295.59375 224.617188 295.605469 224.195312 C 295.609375 224.007812 295.5625 222.410156 295.191406 222.242188 Z M 279.839844 216.835938 L 276.742188 215.949219 C 276.738281 215.265625 276.683594 214.574219 276.585938 213.882812 L 279.5 212.550781 C 279.78125 213.988281 279.894531 215.421875 279.839844 216.835938 Z M 278.167969 223.890625 L 275.617188 221.871094 C 275.875 221.230469 276.09375 220.574219 276.265625 219.902344 L 279.488281 219.789062 C 279.203125 221.207031 278.757812 222.585938 278.167969 223.890625 Z M 273.933594 229.816406 L 272.316406 226.914062 C 272.800781 226.417969 273.25 225.890625 273.664062 225.335938 L 276.730469 226.484375 C 275.933594 227.695312 274.996094 228.8125 273.933594 229.816406 Z M 267.730469 233.699219 L 267.335938 230.300781 C 267.976562 230.027344 268.597656 229.714844 269.183594 229.367188 L 271.644531 231.65625 C 270.445312 232.476562 269.136719 233.164062 267.730469 233.699219 Z M 264.238281 227.75 C 257.839844 229.53125 251.207031 225.785156 249.417969 219.382812 C 247.632812 212.976562 251.371094 206.339844 257.769531 204.558594 C 264.167969 202.777344 270.804688 206.527344 272.589844 212.925781 C 274.375 219.332031 270.636719 225.96875 264.238281 227.75 Z M 260.472656 234.917969 L 261.4375 231.523438 C 262.121094 231.515625 262.808594 231.46875 263.503906 231.367188 L 264.941406 234.515625 C 263.445312 234.832031 261.945312 234.964844 260.472656 234.917969 Z M 253.269531 233.230469 L 255.519531 230.390625 C 256.160156 230.648438 256.816406 230.871094 257.488281 231.042969 L 257.617188 234.605469 C 256.109375 234.324219 254.652344 233.859375 253.269531 233.230469 Z M 250.773438 231.859375 C 249.488281 231.019531 248.300781 230.019531 247.246094 228.886719 L 250.480469 227.082031 C 250.972656 227.566406 251.5 228.019531 252.050781 228.433594 Z M 243.375 222.527344 L 247.089844 222.097656 C 247.363281 222.742188 247.675781 223.359375 248.023438 223.949219 L 245.488281 226.671875 C 244.628906 225.40625 243.914062 224.019531 243.375 222.527344 Z M 242.277344 215.171875 L 245.859375 216.195312 C 245.863281 216.878906 245.917969 217.570312 246.015625 218.261719 L 242.617188 219.8125 C 242.304688 218.257812 242.195312 216.699219 242.277344 215.171875 Z M 244.121094 208.003906 L 246.988281 210.273438 C 246.726562 210.914062 246.507812 211.570312 246.335938 212.242188 L 242.640625 212.371094 C 242.953125 210.851562 243.453125 209.386719 244.121094 208.003906 Z M 248.550781 202.117188 L 250.289062 205.230469 C 249.800781 205.726562 249.351562 206.253906 248.941406 206.804688 L 245.546875 205.535156 C 246.402344 204.285156 247.410156 203.136719 248.550781 202.117188 Z M 254.867188 198.40625 L 255.265625 201.84375 C 254.621094 202.117188 254.007812 202.429688 253.417969 202.777344 L 250.832031 200.371094 C 252.074219 199.570312 253.421875 198.910156 254.867188 198.40625 Z M 262.082031 197.390625 L 261.167969 200.621094 C 260.480469 200.628906 259.792969 200.675781 259.101562 200.777344 L 257.679688 197.664062 C 259.15625 197.394531 260.632812 197.308594 262.082031 197.390625 Z M 269.113281 199.1875 L 267.085938 201.753906 C 266.445312 201.492188 265.785156 201.277344 265.117188 201.105469 L 264.996094 197.78125 C 266.425781 198.09375 267.804688 198.5625 269.113281 199.1875 Z M 271.6875 200.664062 C 272.871094 201.476562 273.964844 202.425781 274.941406 203.492188 L 272.125 205.0625 C 271.628906 204.574219 271.105469 204.125 270.550781 203.710938 Z M 278.699219 209.679688 L 275.511719 210.046875 C 275.242188 209.402344 274.925781 208.785156 274.578125 208.195312 L 276.773438 205.839844 C 277.550781 207.019531 278.195312 208.304688 278.699219 209.679688 Z M 256.398438 193.933594 C 242.972656 196.761719 235.097656 210.707031 239.617188 223.648438 C 243.355469 234.347656 254.613281 240.691406 265.703125 238.351562 C 279.128906 235.519531 287.003906 221.578125 282.484375 208.632812 C 278.746094 197.9375 267.492188 191.59375 256.398438 193.933594 Z M 62.070312 152.40625 C 61.648438 154.304688 59.761719 155.5 57.863281 155.078125 C 55.964844 154.652344 54.769531 152.769531 55.191406 150.871094 C 55.617188 148.972656 57.5 147.777344 59.402344 148.203125 C 61.300781 148.625 62.496094 150.511719 62.070312 152.40625 Z M 73.613281 153.9375 L 69.4375 152.679688 C 69.675781 150.246094 69.078125 147.875 67.847656 145.902344 L 71.023438 142.917969 C 73.214844 146.027344 74.230469 149.945312 73.613281 153.9375 Z M 64.128906 165.753906 L 63.132812 161.511719 C 65.273438 160.53125 67.074219 158.875 68.210938 156.742188 L 72.386719 158 C 70.71875 161.609375 67.71875 164.355469 64.128906 165.753906 Z M 62.261719 157.800781 C 61.039062 158.519531 59.609375 158.875 58.128906 158.769531 C 57.777344 158.746094 57.425781 158.699219 57.070312 158.625 C 56.363281 158.464844 55.703125 158.203125 55.101562 157.863281 C 53.828125 157.144531 52.824219 156.054688 52.195312 154.769531 C 51.734375 153.828125 51.484375 152.78125 51.476562 151.695312 C 51.472656 151.164062 51.523438 150.621094 51.640625 150.078125 C 51.84375 149.175781 52.214844 148.359375 52.703125 147.636719 C 53.304688 146.746094 54.09375 146.015625 55.003906 145.480469 C 56.222656 144.757812 57.65625 144.402344 59.136719 144.511719 C 59.488281 144.535156 59.84375 144.578125 60.195312 144.65625 C 60.902344 144.816406 61.566406 145.074219 62.164062 145.414062 C 63.441406 146.136719 64.441406 147.226562 65.070312 148.507812 C 65.527344 149.453125 65.78125 150.496094 65.789062 151.582031 C 65.792969 152.113281 65.742188 152.65625 65.621094 153.199219 C 65.421875 154.101562 65.050781 154.921875 64.566406 155.640625 C 63.960938 156.53125 63.171875 157.265625 62.261719 157.800781 Z M 55.328125 166.417969 C 52.988281 165.898438 50.898438 164.859375 49.144531 163.453125 L 52.324219 160.472656 C 53.472656 161.292969 54.800781 161.898438 56.265625 162.226562 C 57.183594 162.429688 58.101562 162.511719 59 162.484375 L 59.996094 166.722656 C 58.472656 166.863281 56.902344 166.769531 55.328125 166.417969 Z M 43.652344 149.339844 L 47.828125 150.597656 C 47.589844 153.035156 48.1875 155.402344 49.421875 157.378906 L 46.238281 160.359375 C 44.046875 157.25 43.035156 153.335938 43.652344 149.339844 Z M 53.136719 137.527344 L 54.132812 141.769531 C 51.992188 142.746094 50.1875 144.40625 49.050781 146.535156 L 44.878906 145.277344 C 46.542969 141.667969 49.546875 138.925781 53.136719 137.527344 Z M 61.941406 136.859375 C 64.277344 137.382812 66.367188 138.421875 68.117188 139.828125 L 64.941406 142.808594 C 63.792969 141.988281 62.464844 141.382812 61 141.054688 C 60.082031 140.847656 59.164062 140.765625 58.265625 140.796875 L 57.265625 136.554688 C 58.792969 136.417969 60.363281 136.507812 61.941406 136.859375 Z M 84.433594 144.0625 L 77.765625 144.304688 C 77.242188 142.953125 76.582031 141.664062 75.789062 140.453125 L 79.902344 135.195312 C 80.09375 134.949219 79.554688 133.835938 79.480469 133.710938 C 79.316406 133.429688 78.890625 132.945312 78.621094 132.757812 C 78.503906 132.675781 77.453125 132.019531 77.183594 132.1875 L 71.53125 135.730469 C 70.417969 134.828125 69.207031 134.035156 67.898438 133.375 L 68.824219 126.777344 C 68.867188 126.460938 67.839844 125.773438 67.71875 125.695312 C 67.4375 125.527344 66.820312 125.335938 66.496094 125.300781 C 66.351562 125.285156 65.113281 125.246094 64.964844 125.527344 L 61.839844 131.421875 C 60.386719 131.191406 58.941406 131.121094 57.515625 131.195312 L 55.015625 125.011719 C 54.898438 124.722656 53.660156 124.636719 53.515625 124.632812 C 53.1875 124.628906 52.558594 124.769531 52.261719 124.902344 C 52.128906 124.960938 51.035156 125.546875 51.050781 125.859375 L 51.292969 132.523438 C 49.941406 133.042969 48.648438 133.707031 47.4375 134.496094 L 42.175781 130.386719 C 41.925781 130.195312 40.8125 130.734375 40.6875 130.804688 C 40.402344 130.964844 39.925781 131.398438 39.734375 131.664062 C 39.648438 131.785156 38.996094 132.835938 39.164062 133.101562 L 42.710938 138.75 C 41.804688 139.863281 41.011719 141.078125 40.351562 142.378906 L 33.746094 141.453125 C 33.433594 141.410156 32.738281 142.4375 32.667969 142.5625 C 32.496094 142.84375 32.304688 143.457031 32.269531 143.78125 C 32.257812 143.925781 32.21875 145.164062 32.496094 145.308594 L 38.398438 148.433594 C 38.164062 149.886719 38.09375 151.332031 38.171875 152.753906 L 31.984375 155.253906 C 31.691406 155.371094 31.605469 156.605469 31.601562 156.75 C 31.597656 157.078125 31.738281 157.707031 31.871094 158.003906 C 31.929688 158.136719 32.515625 159.226562 32.832031 159.214844 L 39.5 158.96875 C 40.019531 160.324219 40.683594 161.613281 41.46875 162.820312 L 37.363281 168.078125 C 37.167969 168.328125 37.710938 169.441406 37.78125 169.566406 C 37.941406 169.851562 38.375 170.328125 38.640625 170.519531 C 38.757812 170.605469 39.8125 171.257812 40.078125 171.089844 L 45.730469 167.546875 C 46.84375 168.449219 48.058594 169.242188 49.367188 169.90625 L 48.441406 176.503906 C 48.394531 176.8125 49.421875 177.507812 49.546875 177.582031 C 49.828125 177.742188 50.441406 177.949219 50.769531 177.976562 C 50.914062 177.988281 52.152344 178.03125 52.296875 177.753906 L 55.421875 171.859375 C 56.878906 172.089844 58.324219 172.160156 59.75 172.082031 L 62.246094 178.265625 C 62.363281 178.554688 63.601562 178.644531 63.746094 178.644531 C 64.074219 178.644531 64.707031 178.515625 65 178.375 C 65.132812 178.316406 66.226562 177.730469 66.214844 177.417969 L 65.972656 170.757812 C 67.324219 170.234375 68.617188 169.570312 69.828125 168.785156 L 75.085938 172.890625 C 75.332031 173.085938 76.449219 172.542969 76.574219 172.46875 C 76.855469 172.308594 77.339844 171.882812 77.527344 171.613281 C 77.609375 171.492188 78.265625 170.441406 78.097656 170.175781 L 74.554688 164.527344 C 75.460938 163.417969 76.253906 162.203125 76.914062 160.894531 L 83.515625 161.820312 C 83.828125 161.863281 84.523438 160.839844 84.597656 160.714844 C 84.761719 160.433594 84.964844 159.820312 84.992188 159.496094 C 85.003906 159.351562 85.046875 158.113281 84.765625 157.964844 L 78.871094 154.847656 C 79.101562 153.390625 79.171875 151.945312 79.09375 150.523438 L 85.28125 148.027344 C 85.574219 147.910156 85.660156 146.671875 85.660156 146.527344 C 85.660156 146.203125 85.53125 145.570312 85.390625 145.273438 C 85.328125 145.144531 84.746094 144.050781 84.433594 144.0625 " fill-opacity="1" fill-rule="nonzero"/><path fill="#191937" d="M 154.128906 205.355469 C 145.476562 205.355469 138.460938 198.34375 138.460938 189.699219 C 138.460938 181.054688 145.476562 174.042969 154.128906 174.042969 C 162.785156 174.042969 169.796875 181.054688 169.796875 189.699219 C 169.796875 198.34375 162.785156 205.355469 154.128906 205.355469 Z M 176.480469 192.429688 C 176.589844 191.535156 176.648438 190.621094 176.648438 189.699219 C 176.648438 188.777344 176.589844 187.867188 176.480469 186.96875 L 182.601562 183.371094 C 182.898438 183.195312 182.746094 181.535156 182.722656 181.339844 C 182.664062 180.902344 182.382812 180.066406 182.179688 179.671875 C 182.085938 179.5 181.230469 178.070312 180.886719 178.101562 L 173.820312 178.78125 C 172.929688 177.183594 171.847656 175.699219 170.605469 174.371094 L 173.441406 167.859375 C 173.578125 167.546875 172.480469 166.289062 172.339844 166.148438 C 172.035156 165.832031 171.324219 165.308594 170.921875 165.121094 C 170.746094 165.035156 169.210938 164.375 168.953125 164.605469 L 163.636719 169.304688 C 162.003906 168.542969 160.257812 167.972656 158.441406 167.617188 L 156.902344 160.695312 C 156.828125 160.359375 155.203125 159.984375 155.007812 159.949219 C 154.574219 159.871094 153.691406 159.878906 153.253906 159.949219 C 153.0625 159.984375 151.433594 160.359375 151.359375 160.695312 L 149.824219 167.617188 C 148 167.972656 146.261719 168.542969 144.625 169.304688 L 139.308594 164.605469 C 139.050781 164.375 137.515625 165.03125 137.339844 165.121094 C 136.941406 165.316406 136.226562 165.824219 135.917969 166.148438 C 135.785156 166.289062 134.6875 167.546875 134.824219 167.859375 L 137.65625 174.371094 C 136.414062 175.699219 135.332031 177.179688 134.441406 178.78125 L 127.375 178.101562 C 127.035156 178.070312 126.179688 179.5 126.085938 179.671875 C 125.875 180.0625 125.605469 180.902344 125.542969 181.339844 C 125.511719 181.535156 125.367188 183.195312 125.664062 183.371094 L 131.78125 186.96875 C 131.671875 187.867188 131.617188 188.777344 131.617188 189.699219 C 131.617188 190.621094 131.671875 191.535156 131.78125 192.429688 L 125.664062 196.027344 C 125.367188 196.203125 125.511719 197.863281 125.542969 198.0625 C 125.605469 198.496094 125.875 199.335938 126.085938 199.726562 C 126.179688 199.898438 127.035156 201.332031 127.375 201.296875 L 134.441406 200.617188 C 135.332031 202.21875 136.414062 203.699219 137.65625 205.03125 L 134.824219 211.539062 C 134.6875 211.851562 135.785156 213.109375 135.917969 213.253906 C 136.226562 213.574219 136.941406 214.085938 137.339844 214.28125 C 137.515625 214.371094 139.050781 215.023438 139.308594 214.792969 L 144.625 210.097656 C 146.261719 210.859375 148 211.429688 149.824219 211.78125 L 151.359375 218.707031 C 151.433594 219.042969 153.0625 219.417969 153.253906 219.449219 C 153.691406 219.523438 154.574219 219.527344 155.007812 219.449219 C 155.203125 219.414062 156.828125 219.042969 156.902344 218.707031 L 158.441406 211.78125 C 160.257812 211.429688 162.003906 210.859375 163.636719 210.097656 L 168.953125 214.792969 C 169.210938 215.023438 170.746094 214.367188 170.921875 214.28125 C 171.324219 214.089844 172.035156 213.566406 172.339844 213.253906 C 172.480469 213.113281 173.578125 211.851562 173.441406 211.539062 L 170.605469 205.03125 C 171.847656 203.699219 172.929688 202.21875 173.820312 200.617188 L 180.886719 201.296875 C 181.230469 201.332031 182.085938 199.898438 182.179688 199.726562 C 182.382812 199.332031 182.664062 198.5 182.722656 198.0625 C 182.746094 197.863281 182.898438 196.203125 182.601562 196.027344 Z M 154.015625 249.824219 C 120.882812 250.007812 93.738281 222.890625 93.917969 189.78125 C 94.101562 157.078125 120.605469 130.597656 153.34375 130.417969 C 186.480469 130.234375 213.621094 157.351562 213.4375 190.460938 C 213.257812 223.164062 186.753906 249.644531 154.015625 249.824219 Z M 209.25 241.484375 C 209.714844 241.246094 210.390625 240.519531 210.570312 240.019531 C 210.648438 239.796875 211.183594 237.8125 210.609375 237.1875 L 206.347656 232.511719 C 205.878906 231.996094 205.84375 231.222656 206.265625 230.671875 C 207.007812 229.707031 207.722656 228.726562 208.410156 227.726562 C 208.808594 227.152344 209.558594 226.949219 210.191406 227.234375 L 215.953125 229.839844 C 216.726562 230.1875 218.457031 229.074219 218.640625 228.921875 C 219.046875 228.59375 219.554688 227.742188 219.625 227.21875 C 219.660156 226.984375 219.765625 224.929688 219.074219 224.433594 L 213.941406 220.757812 C 213.378906 220.351562 213.179688 219.597656 213.484375 218.96875 C 214.007812 217.875 214.503906 216.765625 214.972656 215.640625 C 215.234375 215 215.925781 214.640625 216.605469 214.792969 L 222.773438 216.136719 C 223.601562 216.320312 225.0625 214.871094 225.210938 214.6875 C 225.539062 214.277344 225.859375 213.339844 225.820312 212.808594 C 225.800781 212.574219 225.480469 210.542969 224.699219 210.203125 L 218.921875 207.671875 C 218.28125 207.394531 217.933594 206.703125 218.09375 206.023438 C 218.378906 204.847656 218.628906 203.660156 218.847656 202.460938 C 218.972656 201.773438 219.578125 201.28125 220.269531 201.285156 L 226.589844 201.320312 C 227.441406 201.328125 228.570312 199.601562 228.671875 199.394531 C 228.910156 198.925781 229.03125 197.941406 228.882812 197.429688 C 228.8125 197.207031 228.078125 195.285156 227.242188 195.117188 L 221.046875 193.839844 C 220.363281 193.695312 219.878906 193.089844 219.898438 192.394531 C 219.917969 191.789062 219.925781 191.183594 219.925781 190.578125 C 219.925781 189.96875 219.917969 189.363281 219.898438 188.757812 C 219.878906 188.0625 220.363281 187.453125 221.046875 187.3125 L 227.242188 186.035156 C 228.078125 185.863281 228.824219 183.945312 228.882812 183.71875 C 229.015625 183.207031 228.929688 182.222656 228.671875 181.753906 C 228.5625 181.550781 227.441406 179.824219 226.589844 179.828125 L 220.269531 179.867188 C 219.578125 179.871094 218.972656 179.378906 218.847656 178.691406 C 218.628906 177.492188 218.378906 176.300781 218.09375 175.125 C 217.933594 174.449219 218.28125 173.753906 218.921875 173.476562 L 224.699219 170.945312 C 225.480469 170.605469 225.808594 168.574219 225.820312 168.339844 C 225.847656 167.816406 225.554688 166.867188 225.210938 166.464844 C 225.058594 166.285156 223.601562 164.828125 222.773438 165.011719 L 216.605469 166.359375 C 215.925781 166.507812 215.234375 166.152344 214.972656 165.507812 C 214.503906 164.382812 214.007812 163.273438 213.484375 162.179688 C 213.179688 161.550781 213.378906 160.800781 213.941406 160.394531 L 219.074219 156.714844 C 219.765625 156.222656 219.664062 154.164062 219.625 153.9375 C 219.542969 153.417969 219.0625 152.546875 218.640625 152.226562 C 218.453125 152.082031 216.726562 150.960938 215.953125 151.3125 L 210.191406 153.917969 C 209.558594 154.203125 208.808594 153.996094 208.410156 153.425781 C 207.722656 152.421875 207.007812 151.441406 206.265625 150.480469 C 205.84375 149.929688 205.878906 149.152344 206.347656 148.636719 L 210.609375 143.964844 C 211.183594 143.335938 210.65625 141.347656 210.570312 141.128906 C 210.378906 140.640625 209.730469 139.890625 209.25 139.664062 C 209.035156 139.5625 207.117188 138.824219 206.429688 139.328125 L 201.332031 143.078125 C 200.769531 143.488281 199.996094 143.441406 199.492188 142.960938 C 198.613281 142.125 197.710938 141.3125 196.785156 140.523438 C 196.253906 140.074219 196.128906 139.304688 196.480469 138.710938 L 199.675781 133.253906 C 200.105469 132.519531 199.175781 130.683594 199.046875 130.488281 C 198.761719 130.046875 197.96875 129.449219 197.453125 129.324219 C 197.21875 129.273438 195.191406 128.949219 194.621094 129.585938 L 190.421875 134.300781 C 189.960938 134.820312 189.191406 134.9375 188.597656 134.574219 C 187.5625 133.933594 186.511719 133.328125 185.441406 132.75 C 184.828125 132.417969 184.542969 131.691406 184.761719 131.035156 L 186.753906 125.042969 C 187.019531 124.238281 185.730469 122.632812 185.5625 122.46875 C 185.1875 122.101562 184.289062 121.679688 183.757812 121.667969 C 183.519531 121.660156 181.46875 121.765625 181.046875 122.503906 L 177.921875 127.988281 C 177.578125 128.59375 176.851562 128.867188 176.195312 128.632812 C 175.050781 128.226562 173.894531 127.851562 172.726562 127.507812 C 172.058594 127.3125 171.625 126.660156 171.707031 125.96875 L 172.402344 119.699219 C 172.496094 118.855469 170.898438 117.554688 170.703125 117.429688 C 170.261719 117.144531 169.292969 116.921875 168.769531 117.015625 C 168.539062 117.0625 166.550781 117.59375 166.292969 118.402344 L 164.375 124.417969 C 164.164062 125.082031 163.511719 125.503906 162.824219 125.410156 C 161.621094 125.253906 160.414062 125.128906 159.195312 125.035156 C 158.5 124.984375 157.945312 124.4375 157.878906 123.742188 L 157.253906 117.453125 C 157.171875 116.605469 155.335938 115.671875 155.117188 115.585938 C 154.628906 115.382812 153.636719 115.398438 153.144531 115.585938 C 152.921875 115.667969 151.09375 116.605469 151.007812 117.453125 L 150.382812 123.742188 C 150.316406 124.4375 149.761719 124.984375 149.066406 125.035156 C 147.847656 125.128906 146.640625 125.253906 145.441406 125.410156 C 144.75 125.503906 144.097656 125.082031 143.886719 124.417969 L 141.96875 118.402344 C 141.710938 117.59375 139.722656 117.0625 139.492188 117.015625 C 138.96875 116.921875 138.003906 117.144531 137.558594 117.429688 C 137.363281 117.554688 135.765625 118.855469 135.859375 119.699219 L 136.558594 125.96875 C 136.632812 126.660156 136.207031 127.3125 135.539062 127.507812 C 134.367188 127.851562 133.210938 128.226562 132.066406 128.632812 C 131.410156 128.867188 130.683594 128.59375 130.339844 127.988281 L 127.214844 122.503906 C 126.792969 121.765625 124.738281 121.660156 124.503906 121.667969 C 123.972656 121.679688 123.074219 122.101562 122.699219 122.46875 C 122.535156 122.632812 121.242188 124.238281 121.511719 125.042969 L 123.496094 131.035156 C 123.71875 131.691406 123.433594 132.417969 122.820312 132.75 C 121.75 133.328125 120.695312 133.933594 119.664062 134.574219 C 119.070312 134.9375 118.300781 134.820312 117.835938 134.300781 L 113.640625 129.585938 C 113.074219 128.949219 111.039062 129.273438 110.8125 129.324219 C 110.292969 129.449219 109.503906 130.046875 109.210938 130.488281 C 109.085938 130.683594 108.15625 132.519531 108.585938 133.253906 L 111.78125 138.710938 C 112.132812 139.304688 112.007812 140.074219 111.476562 140.523438 C 110.554688 141.3125 109.652344 142.125 108.773438 142.960938 C 108.269531 143.441406 107.488281 143.488281 106.929688 143.078125 L 101.828125 139.328125 C 101.148438 138.824219 99.226562 139.5625 99.011719 139.664062 C 98.535156 139.890625 97.878906 140.640625 97.691406 141.128906 C 97.605469 141.347656 97.078125 143.335938 97.652344 143.964844 L 101.914062 148.636719 C 102.382812 149.152344 102.417969 149.929688 101.992188 150.480469 C 101.253906 151.441406 100.539062 152.421875 99.847656 153.425781 C 99.457031 153.996094 98.707031 154.203125 98.074219 153.917969 L 92.308594 151.3125 C 91.535156 150.960938 89.808594 152.082031 89.621094 152.226562 C 89.199219 152.546875 88.71875 153.417969 88.632812 153.9375 C 88.597656 154.164062 88.496094 156.222656 89.183594 156.714844 L 94.316406 160.394531 C 94.882812 160.800781 95.078125 161.550781 94.777344 162.179688 C 94.253906 163.273438 93.753906 164.382812 93.292969 165.507812 C 93.027344 166.152344 92.335938 166.507812 91.65625 166.359375 L 85.492188 165.011719 C 84.660156 164.828125 83.203125 166.285156 83.050781 166.464844 C 82.707031 166.867188 82.414062 167.816406 82.441406 168.339844 C 82.453125 168.574219 82.78125 170.605469 83.558594 170.945312 L 89.34375 173.476562 C 89.980469 173.753906 90.328125 174.449219 90.167969 175.125 C 89.882812 176.300781 89.632812 177.492188 89.414062 178.691406 C 89.289062 179.378906 88.6875 179.871094 87.988281 179.867188 L 81.671875 179.828125 C 80.820312 179.824219 79.699219 181.550781 79.585938 181.753906 C 79.332031 182.222656 79.246094 183.207031 79.378906 183.71875 C 79.441406 183.945312 80.183594 185.863281 81.015625 186.035156 L 87.214844 187.3125 C 87.894531 187.453125 88.382812 188.0625 88.363281 188.757812 C 88.347656 189.363281 88.335938 189.96875 88.335938 190.578125 C 88.335938 191.183594 88.347656 191.789062 88.363281 192.394531 C 88.382812 193.089844 87.894531 193.695312 87.214844 193.839844 L 81.015625 195.117188 C 80.183594 195.285156 79.445312 197.207031 79.378906 197.429688 C 79.230469 197.941406 79.351562 198.925781 79.585938 199.394531 C 79.691406 199.601562 80.820312 201.328125 81.671875 201.320312 L 87.988281 201.285156 C 88.6875 201.28125 89.289062 201.773438 89.414062 202.460938 C 89.632812 203.660156 89.882812 204.847656 90.167969 206.023438 C 90.328125 206.703125 89.980469 207.394531 89.34375 207.671875 L 83.558594 210.203125 C 82.78125 210.542969 82.457031 212.574219 82.441406 212.808594 C 82.398438 213.339844 82.722656 214.277344 83.050781 214.6875 C 83.195312 214.871094 84.660156 216.320312 85.492188 216.136719 L 91.65625 214.792969 C 92.335938 214.640625 93.027344 215 93.292969 215.640625 C 93.753906 216.765625 94.253906 217.875 94.777344 218.96875 C 95.078125 219.597656 94.882812 220.351562 94.316406 220.757812 L 89.183594 224.433594 C 88.496094 224.929688 88.605469 226.984375 88.632812 227.21875 C 88.703125 227.742188 89.214844 228.59375 89.621094 228.921875 C 89.804688 229.074219 91.535156 230.1875 92.308594 229.839844 L 98.074219 227.234375 C 98.707031 226.949219 99.457031 227.152344 99.847656 227.726562 C 100.539062 228.726562 101.253906 229.707031 101.992188 230.671875 C 102.417969 231.222656 102.382812 231.996094 101.914062 232.511719 L 97.652344 237.183594 C 97.078125 237.8125 97.609375 239.796875 97.691406 240.019531 C 97.867188 240.519531 98.546875 241.246094 99.011719 241.484375 C 99.21875 241.59375 101.148438 242.328125 101.828125 241.824219 L 106.929688 238.074219 C 107.488281 237.660156 108.269531 237.707031 108.773438 238.1875 C 109.652344 239.023438 110.554688 239.839844 111.476562 240.625 C 112.007812 241.078125 112.132812 241.84375 111.78125 242.441406 L 108.585938 247.898438 C 108.15625 248.632812 109.089844 250.464844 109.210938 250.664062 C 109.492188 251.117188 110.304688 251.683594 110.8125 251.824219 C 111.039062 251.886719 113.074219 252.203125 113.640625 251.566406 L 117.835938 246.847656 C 118.300781 246.332031 119.070312 246.214844 119.664062 246.578125 C 120.695312 247.214844 121.75 247.824219 122.820312 248.402344 C 123.433594 248.734375 123.71875 249.457031 123.496094 250.113281 L 121.511719 256.105469 C 121.242188 256.914062 122.535156 258.511719 122.699219 258.679688 C 123.066406 259.066406 123.980469 259.457031 124.503906 259.484375 C 124.738281 259.496094 126.792969 259.382812 127.214844 258.644531 L 130.339844 253.160156 C 130.683594 252.558594 131.410156 252.285156 132.066406 252.519531 C 133.210938 252.925781 134.367188 253.300781 135.539062 253.644531 C 136.207031 253.839844 136.632812 254.492188 136.558594 255.183594 L 135.859375 261.453125 C 135.765625 262.292969 137.363281 263.589844 137.558594 263.722656 C 137.996094 264.019531 138.972656 264.210938 139.492188 264.132812 C 139.722656 264.097656 141.710938 263.558594 141.96875 262.75 L 143.886719 256.730469 C 144.097656 256.070312 144.75 255.648438 145.441406 255.742188 C 146.640625 255.894531 147.847656 256.023438 149.066406 256.117188 C 149.761719 256.164062 150.316406 256.710938 150.382812 257.40625 L 151.007812 263.695312 C 151.09375 264.542969 152.921875 265.480469 153.144531 265.566406 C 153.636719 265.75 154.628906 265.769531 155.117188 265.566406 C 155.335938 265.476562 157.171875 264.542969 157.253906 263.695312 L 157.878906 257.40625 C 157.945312 256.710938 158.5 256.164062 159.195312 256.117188 C 160.414062 256.023438 161.621094 255.894531 162.824219 255.742188 C 163.511719 255.648438 164.164062 256.070312 164.375 256.730469 L 166.292969 262.75 C 166.550781 263.558594 168.539062 264.097656 168.769531 264.132812 C 169.289062 264.210938 170.265625 264.019531 170.703125 263.722656 C 170.898438 263.589844 172.496094 262.292969 172.402344 261.453125 L 171.707031 255.183594 C 171.625 254.492188 172.058594 253.839844 172.726562 253.644531 C 173.894531 253.300781 175.050781 252.925781 176.195312 252.519531 C 176.851562 252.285156 177.578125 252.558594 177.921875 253.160156 L 181.046875 258.644531 C 181.46875 259.382812 183.523438 259.496094 183.757812 259.484375 C 184.28125 259.457031 185.195312 259.066406 185.5625 258.679688 C 185.722656 258.511719 187.019531 256.914062 186.753906 256.105469 L 184.761719 250.113281 C 184.542969 249.457031 184.828125 248.734375 185.441406 248.402344 C 186.511719 247.824219 187.5625 247.214844 188.597656 246.578125 C 189.191406 246.214844 189.960938 246.332031 190.421875 246.847656 L 194.621094 251.566406 C 195.191406 252.203125 197.222656 251.886719 197.453125 251.824219 C 197.957031 251.683594 198.769531 251.117188 199.046875 250.664062 C 199.171875 250.464844 200.105469 248.632812 199.675781 247.898438 L 196.480469 242.441406 C 196.128906 241.84375 196.253906 241.078125 196.785156 240.625 C 197.710938 239.839844 198.613281 239.023438 199.492188 238.1875 C 199.996094 237.707031 200.769531 237.660156 201.332031 238.074219 L 206.429688 241.824219 C 207.117188 242.328125 209.042969 241.59375 209.25 241.484375 Z M 154.128906 196.125 C 150.578125 196.125 147.699219 193.25 147.699219 189.699219 C 147.699219 186.152344 150.578125 183.277344 154.128906 183.277344 C 157.679688 183.277344 160.5625 186.152344 160.5625 189.699219 C 160.5625 193.25 157.679688 196.125 154.128906 196.125 Z M 154.128906 179.097656 C 148.269531 179.097656 143.523438 183.847656 143.523438 189.699219 C 143.523438 195.550781 148.269531 200.300781 154.128906 200.300781 C 159.988281 200.300781 164.738281 195.550781 164.738281 189.699219 C 164.738281 183.847656 159.988281 179.097656 154.128906 179.097656 Z M 202.164062 192.707031 C 200.074219 193.050781 198.292969 191.269531 198.636719 189.183594 C 198.84375 187.917969 199.863281 186.898438 201.132812 186.691406 C 203.21875 186.347656 205 188.128906 204.660156 190.214844 C 204.449219 191.480469 203.429688 192.503906 202.164062 192.707031 Z M 197.234375 168.308594 C 195.597656 169.652344 193.164062 169 192.414062 167.019531 C 191.960938 165.824219 192.332031 164.429688 193.328125 163.617188 C 194.964844 162.273438 197.398438 162.925781 198.148438 164.90625 C 198.601562 166.105469 198.226562 167.5 197.234375 168.308594 Z M 198.148438 214.492188 C 197.398438 216.476562 194.964844 217.125 193.328125 215.785156 C 192.332031 214.96875 191.960938 213.578125 192.414062 212.378906 C 193.164062 210.402344 195.597656 209.75 197.234375 211.089844 C 198.226562 211.898438 198.601562 213.292969 198.148438 214.492188 Z M 154.128906 231.28125 C 131.148438 231.28125 112.515625 212.664062 112.515625 189.699219 C 112.515625 166.734375 131.148438 148.121094 154.128906 148.121094 C 177.117188 148.121094 195.746094 166.734375 195.746094 189.699219 C 195.746094 212.664062 177.117188 231.28125 154.128906 231.28125 Z M 179.839844 233.160156 C 178.203125 234.503906 175.769531 233.847656 175.023438 231.871094 C 174.570312 230.671875 174.941406 229.277344 175.9375 228.464844 C 177.574219 227.125 180.007812 227.777344 180.753906 229.757812 C 181.210938 230.953125 180.835938 232.347656 179.839844 233.160156 Z M 157.140625 237.691406 C 156.933594 238.953125 155.914062 239.972656 154.648438 240.179688 C 152.558594 240.527344 150.777344 238.742188 151.117188 236.65625 C 151.328125 235.390625 152.347656 234.371094 153.613281 234.164062 C 155.703125 233.820312 157.484375 235.601562 157.140625 237.691406 Z M 133.238281 231.867188 C 132.492188 233.847656 130.058594 234.503906 128.417969 233.160156 C 127.425781 232.347656 127.054688 230.953125 127.503906 229.757812 C 128.253906 227.777344 130.6875 227.125 132.324219 228.464844 C 133.316406 229.277344 133.691406 230.671875 133.238281 231.867188 Z M 114.933594 215.785156 C 113.296875 217.125 110.863281 216.476562 110.113281 214.492188 C 109.660156 213.292969 110.035156 211.898438 111.027344 211.089844 C 112.667969 209.75 115.101562 210.402344 115.847656 212.378906 C 116.300781 213.578125 115.925781 214.96875 114.933594 215.785156 Z M 109.625 190.214844 C 109.417969 191.480469 108.398438 192.503906 107.132812 192.707031 C 105.039062 193.050781 103.257812 191.269531 103.601562 189.183594 C 103.808594 187.917969 104.832031 186.898438 106.097656 186.691406 C 108.1875 186.347656 109.96875 188.128906 109.625 190.214844 Z M 110.113281 164.90625 C 110.863281 162.925781 113.296875 162.273438 114.933594 163.617188 C 115.925781 164.429688 116.300781 165.820312 115.847656 167.019531 C 115.101562 169 112.667969 169.652344 111.027344 168.308594 C 110.035156 167.5 109.660156 166.105469 110.113281 164.90625 Z M 128.417969 146.242188 C 130.058594 144.898438 132.492188 145.550781 133.238281 147.527344 C 133.691406 148.726562 133.316406 150.121094 132.324219 150.933594 C 130.6875 152.273438 128.253906 151.625 127.503906 149.644531 C 127.054688 148.445312 127.425781 147.050781 128.417969 146.242188 Z M 151.117188 141.710938 C 151.328125 140.445312 152.347656 139.425781 153.613281 139.21875 C 155.703125 138.875 157.484375 140.65625 157.140625 142.742188 C 156.933594 144.007812 155.914062 145.027344 154.648438 145.238281 C 152.558594 145.578125 150.777344 143.800781 151.117188 141.710938 Z M 175.023438 147.527344 C 175.773438 145.550781 178.203125 144.898438 179.839844 146.242188 C 180.835938 147.050781 181.210938 148.445312 180.753906 149.644531 C 180.007812 151.625 177.574219 152.277344 175.9375 150.933594 C 174.941406 150.121094 174.570312 148.726562 175.023438 147.527344 Z M 154.128906 136.191406 C 124.550781 136.191406 100.574219 160.148438 100.574219 189.699219 C 100.574219 219.253906 124.550781 243.207031 154.128906 243.207031 C 183.707031 243.207031 207.6875 219.253906 207.6875 189.699219 C 207.6875 160.148438 183.707031 136.191406 154.128906 136.191406 Z M 235.609375 265.542969 C 234.3125 271.769531 228.050781 275.601562 221.925781 273.914062 C 216.378906 272.390625 212.925781 266.738281 214.101562 261.101562 C 215.394531 254.875 221.65625 251.042969 227.78125 252.726562 C 233.328125 254.253906 236.78125 259.90625 235.609375 265.542969 Z M 245.378906 266.054688 L 241.746094 264.277344 C 241.640625 264.226562 241.578125 264.117188 241.582031 264 C 241.679688 261.757812 241.316406 259.558594 240.566406 257.523438 C 240.523438 257.414062 240.554688 257.292969 240.636719 257.210938 L 243.550781 254.398438 C 243.644531 254.3125 243.667969 254.171875 243.613281 254.054688 C 243.050781 252.925781 242.394531 251.84375 241.644531 250.835938 C 241.566406 250.730469 241.429688 250.6875 241.308594 250.730469 L 237.484375 252.046875 C 237.371094 252.085938 237.25 252.054688 237.167969 251.964844 C 235.703125 250.371094 233.917969 249.046875 231.875 248.105469 C 231.769531 248.058594 231.703125 247.953125 231.707031 247.835938 L 231.78125 243.789062 C 231.785156 243.660156 231.703125 243.539062 231.578125 243.5 C 230.988281 243.300781 230.382812 243.125 229.765625 242.976562 C 229.148438 242.828125 228.53125 242.710938 227.910156 242.617188 C 227.78125 242.597656 227.660156 242.664062 227.601562 242.78125 L 225.824219 246.417969 C 225.773438 246.523438 225.664062 246.585938 225.542969 246.582031 C 223.300781 246.488281 221.105469 246.851562 219.074219 247.605469 C 218.964844 247.644531 218.839844 247.617188 218.757812 247.535156 L 215.957031 244.621094 C 215.863281 244.527344 215.722656 244.5 215.605469 244.558594 C 214.480469 245.117188 213.402344 245.78125 212.386719 246.53125 C 212.285156 246.609375 212.242188 246.746094 212.285156 246.867188 L 213.59375 250.695312 C 213.632812 250.804688 213.601562 250.925781 213.515625 251.003906 C 211.917969 252.472656 210.59375 254.265625 209.652344 256.304688 C 209.605469 256.414062 209.5 256.480469 209.382812 256.476562 L 205.339844 256.40625 C 205.210938 256.402344 205.09375 256.484375 205.050781 256.605469 C 204.851562 257.199219 204.675781 257.804688 204.527344 258.421875 C 204.378906 259.042969 204.257812 259.660156 204.167969 260.277344 C 204.144531 260.40625 204.214844 260.53125 204.332031 260.589844 L 207.960938 262.363281 C 208.066406 262.417969 208.128906 262.527344 208.125 262.644531 C 208.03125 264.886719 208.390625 267.082031 209.140625 269.117188 C 209.183594 269.230469 209.15625 269.351562 209.070312 269.433594 L 206.160156 272.242188 C 206.066406 272.332031 206.039062 272.472656 206.097656 272.589844 C 206.652344 273.71875 207.3125 274.796875 208.0625 275.808594 C 208.140625 275.914062 208.277344 275.953125 208.398438 275.910156 L 212.226562 274.597656 C 212.335938 274.558594 212.457031 274.589844 212.535156 274.679688 C 214.003906 276.273438 215.792969 277.597656 217.832031 278.535156 C 217.9375 278.582031 218.007812 278.691406 218.003906 278.808594 L 217.925781 282.855469 C 217.925781 282.984375 218.007812 283.101562 218.128906 283.140625 C 218.71875 283.34375 219.324219 283.515625 219.941406 283.664062 C 220.5625 283.8125 221.179688 283.933594 221.796875 284.023438 C 221.921875 284.046875 222.050781 283.976562 222.109375 283.859375 L 223.882812 280.226562 C 223.9375 280.121094 224.042969 280.054688 224.160156 280.0625 C 226.40625 280.15625 228.601562 279.792969 230.632812 279.035156 C 230.746094 279 230.867188 279.023438 230.949219 279.109375 L 233.753906 282.023438 C 233.839844 282.117188 233.984375 282.140625 234.097656 282.085938 C 235.230469 281.523438 236.308594 280.863281 237.320312 280.109375 C 237.425781 280.035156 237.464844 279.898438 237.425781 279.773438 L 236.113281 275.949219 C 236.074219 275.835938 236.105469 275.71875 236.195312 275.636719 C 237.789062 274.167969 239.113281 272.378906 240.050781 270.339844 C 240.101562 270.230469 240.207031 270.164062 240.324219 270.164062 L 244.367188 270.238281 C 244.496094 270.242188 244.613281 270.160156 244.65625 270.035156 C 244.855469 269.445312 245.03125 268.839844 245.183594 268.21875 C 245.332031 267.601562 245.453125 266.984375 245.542969 266.363281 C 245.558594 266.238281 245.496094 266.109375 245.378906 266.054688 Z M 231.023438 264.808594 C 230.199219 268.21875 226.773438 270.316406 223.363281 269.496094 C 219.953125 268.675781 217.859375 265.246094 218.683594 261.835938 C 219.507812 258.425781 222.9375 256.328125 226.34375 257.144531 C 229.75 257.96875 231.847656 261.398438 231.023438 264.808594 Z M 322.199219 192.789062 C 321.789062 194.621094 319.964844 195.773438 318.132812 195.363281 C 316.296875 194.953125 315.144531 193.136719 315.554688 191.304688 C 315.960938 189.46875 317.78125 188.316406 319.617188 188.726562 C 321.449219 189.136719 322.609375 190.953125 322.199219 192.789062 Z M 333.339844 194.265625 L 329.308594 193.050781 C 329.539062 190.699219 328.960938 188.414062 327.773438 186.503906 L 330.84375 183.621094 C 332.957031 186.625 333.9375 190.410156 333.339844 194.265625 Z M 324.183594 205.675781 L 323.21875 201.578125 C 325.289062 200.636719 327.027344 199.03125 328.128906 196.976562 L 332.160156 198.1875 C 330.546875 201.679688 327.648438 204.328125 324.183594 205.675781 Z M 322.378906 197.996094 C 321.199219 198.691406 319.816406 199.035156 318.386719 198.933594 C 318.046875 198.90625 317.707031 198.867188 317.367188 198.789062 C 316.679688 198.636719 316.046875 198.386719 315.460938 198.058594 C 314.230469 197.359375 313.265625 196.308594 312.660156 195.070312 C 312.214844 194.160156 311.96875 193.148438 311.960938 192.101562 C 311.957031 191.585938 312.003906 191.066406 312.121094 190.539062 C 312.320312 189.667969 312.671875 188.875 313.144531 188.179688 C 313.726562 187.320312 314.488281 186.613281 315.367188 186.09375 C 316.550781 185.402344 317.933594 185.054688 319.363281 185.160156 C 319.703125 185.183594 320.042969 185.226562 320.382812 185.300781 C 321.066406 185.453125 321.707031 185.707031 322.285156 186.035156 C 323.515625 186.730469 324.484375 187.785156 325.089844 189.023438 C 325.535156 189.933594 325.777344 190.941406 325.785156 191.988281 C 325.789062 192.503906 325.742188 193.027344 325.625 193.554688 C 325.429688 194.425781 325.074219 195.214844 324.601562 195.914062 C 324.019531 196.769531 323.257812 197.476562 322.378906 197.996094 Z M 315.683594 206.320312 C 313.421875 205.816406 311.40625 204.8125 309.710938 203.457031 L 312.78125 200.574219 C 313.890625 201.367188 315.171875 201.953125 316.585938 202.269531 C 317.476562 202.46875 318.359375 202.546875 319.230469 202.519531 L 320.191406 206.617188 C 318.71875 206.75 317.203125 206.660156 315.683594 206.320312 Z M 304.410156 189.824219 L 308.441406 191.042969 C 308.207031 193.390625 308.789062 195.679688 309.976562 197.585938 L 306.90625 200.46875 C 304.789062 197.464844 303.8125 193.683594 304.410156 189.824219 Z M 313.566406 178.414062 L 314.527344 182.511719 C 312.460938 183.453125 310.71875 185.058594 309.621094 187.117188 L 305.589844 185.902344 C 307.199219 182.414062 310.101562 179.765625 313.566406 178.414062 Z M 322.070312 177.769531 C 324.328125 178.277344 326.347656 179.277344 328.035156 180.636719 L 324.964844 183.515625 C 323.859375 182.726562 322.574219 182.136719 321.160156 181.820312 C 320.273438 181.621094 319.386719 181.546875 318.519531 181.574219 L 317.558594 177.476562 C 319.03125 177.347656 320.546875 177.429688 322.070312 177.769531 Z M 344.722656 185.898438 C 344.664062 185.769531 344.097656 184.714844 343.792969 184.726562 L 337.351562 184.960938 C 336.851562 183.65625 336.210938 182.414062 335.449219 181.246094 L 339.417969 176.167969 C 339.605469 175.925781 339.082031 174.847656 339.011719 174.730469 C 338.851562 174.457031 338.441406 173.992188 338.183594 173.808594 C 338.066406 173.730469 337.050781 173.097656 336.792969 173.261719 L 331.332031 176.679688 C 330.257812 175.808594 329.085938 175.042969 327.824219 174.40625 L 328.714844 168.03125 C 328.761719 167.730469 327.765625 167.058594 327.648438 166.988281 C 327.378906 166.828125 326.78125 166.640625 326.46875 166.605469 C 326.328125 166.59375 325.132812 166.558594 324.988281 166.824219 L 321.972656 172.519531 C 320.570312 172.292969 319.171875 172.226562 317.796875 172.300781 L 315.378906 166.328125 C 315.265625 166.046875 314.074219 165.964844 313.933594 165.960938 C 313.617188 165.957031 313.011719 166.09375 312.722656 166.21875 C 312.59375 166.277344 311.539062 166.84375 311.550781 167.148438 L 311.785156 173.585938 C 310.480469 174.085938 309.230469 174.722656 308.066406 175.488281 L 302.980469 171.519531 C 302.742188 171.332031 301.667969 171.859375 301.542969 171.925781 C 301.265625 172.078125 300.808594 172.5 300.625 172.753906 C 300.542969 172.867188 299.910156 173.882812 300.074219 174.140625 L 303.496094 179.597656 C 302.621094 180.671875 301.855469 181.84375 301.214844 183.101562 L 294.835938 182.210938 C 294.535156 182.167969 293.867188 183.160156 293.792969 183.277344 C 293.632812 183.546875 293.445312 184.144531 293.414062 184.457031 C 293.398438 184.597656 293.359375 185.789062 293.628906 185.933594 L 299.328125 188.949219 C 299.105469 190.355469 299.039062 191.75 299.113281 193.121094 L 293.136719 195.535156 C 292.855469 195.648438 292.773438 196.839844 292.769531 196.980469 C 292.761719 197.296875 292.898438 197.90625 293.027344 198.191406 C 293.085938 198.320312 293.652344 199.375 293.953125 199.363281 L 300.394531 199.125 C 300.894531 200.433594 301.539062 201.679688 302.300781 202.847656 L 298.328125 207.925781 C 298.140625 208.160156 298.667969 209.238281 298.738281 209.363281 C 298.890625 209.636719 299.3125 210.097656 299.566406 210.28125 C 299.679688 210.363281 300.695312 210.992188 300.953125 210.832031 L 306.414062 207.410156 C 307.488281 208.28125 308.664062 209.046875 309.925781 209.6875 L 309.027344 216.058594 C 308.988281 216.359375 309.976562 217.03125 310.101562 217.101562 C 310.375 217.257812 310.960938 217.457031 311.277344 217.480469 C 311.417969 217.492188 312.613281 217.535156 312.753906 217.265625 L 315.773438 211.574219 C 317.179688 211.796875 318.578125 211.863281 319.949219 211.792969 L 322.367188 217.757812 C 322.480469 218.039062 323.675781 218.125 323.816406 218.125 C 324.128906 218.125 324.742188 218.003906 325.023438 217.867188 C 325.152344 217.808594 326.207031 217.246094 326.195312 216.941406 L 325.960938 210.507812 C 327.269531 210.007812 328.515625 209.367188 329.6875 208.605469 L 334.765625 212.570312 C 335.007812 212.757812 336.085938 212.234375 336.203125 212.164062 C 336.476562 212.007812 336.945312 211.59375 337.125 211.335938 C 337.207031 211.21875 337.839844 210.203125 337.675781 209.949219 L 334.253906 204.496094 C 335.125 203.421875 335.894531 202.246094 336.53125 200.984375 L 342.910156 201.878906 C 343.210938 201.921875 343.882812 200.933594 343.949219 200.8125 C 344.109375 200.539062 344.308594 199.949219 344.335938 199.632812 C 344.347656 199.496094 344.386719 198.296875 344.117188 198.15625 L 338.417969 195.140625 C 338.644531 193.738281 338.710938 192.339844 338.636719 190.96875 L 344.613281 188.554688 C 344.894531 188.441406 344.980469 187.25 344.980469 187.109375 C 344.980469 186.792969 344.855469 186.183594 344.722656 185.898438 " fill-opacity="1" fill-rule="nonzero"/></svg>