<svg xmlns="http://www.w3.org/2000/svg" xmlns:xlink="http://www.w3.org/1999/xlink" width="500" zoomAndPan="magnify" viewBox="0 0 375 374.999991" height="500" preserveAspectRatio="xMidYMid meet" version="1.0"><defs><clipPath id="796140ec5a"><path d="M 1 56.25 L 375 56.25 L 375 318.75 L 1 318.75 Z M 1 56.25 " clip-rule="nonzero"/></clipPath></defs><g clip-path="url(#796140ec5a)"><path fill="#6d636d" d="M 20.523438 56.902344 C 19.90625 56.894531 19.289062 56.917969 18.675781 56.96875 C 18.0625 57.019531 17.453125 57.101562 16.84375 57.214844 C 16.238281 57.328125 15.640625 57.472656 15.046875 57.644531 C 14.457031 57.816406 13.875 58.015625 13.300781 58.246094 C 12.730469 58.476562 12.171875 58.734375 11.625 59.019531 C 11.078125 59.304688 10.546875 59.617188 10.03125 59.953125 C 9.515625 60.292969 9.015625 60.65625 8.535156 61.042969 C 8.058594 61.429688 7.597656 61.839844 7.160156 62.273438 C 6.71875 62.707031 6.304688 63.160156 5.910156 63.632812 C 5.515625 64.109375 5.144531 64.601562 4.800781 65.113281 C 4.453125 65.621094 4.136719 66.148438 3.84375 66.691406 C 3.550781 67.234375 3.285156 67.789062 3.046875 68.359375 C 2.808594 68.925781 2.597656 69.507812 2.417969 70.097656 C 2.238281 70.6875 2.085938 71.28125 1.964844 71.886719 C 1.84375 72.492188 1.753906 73.101562 1.691406 73.714844 C 1.628906 74.328125 1.601562 74.941406 1.601562 75.558594 C 1.601562 76.175781 1.628906 76.792969 1.691406 77.40625 C 1.753906 78.019531 1.84375 78.628906 1.964844 79.230469 C 2.085938 79.835938 2.238281 80.433594 2.417969 81.023438 C 2.597656 81.613281 2.808594 82.191406 3.046875 82.761719 C 3.285156 83.328125 3.550781 83.886719 3.84375 84.429688 C 4.136719 84.96875 4.453125 85.496094 4.800781 86.007812 C 5.144531 86.519531 5.515625 87.011719 5.910156 87.484375 C 6.304688 87.960938 6.71875 88.414062 7.160156 88.847656 C 7.597656 89.277344 8.058594 89.6875 8.535156 90.078125 C 9.015625 90.464844 9.515625 90.828125 10.03125 91.164062 C 10.546875 91.503906 11.078125 91.8125 11.625 92.101562 C 12.171875 92.386719 12.730469 92.644531 13.300781 92.871094 C 13.875 93.101562 14.457031 93.304688 15.046875 93.476562 C 15.640625 93.648438 16.238281 93.789062 16.84375 93.902344 C 17.453125 94.015625 18.0625 94.097656 18.675781 94.152344 C 19.289062 94.203125 19.90625 94.226562 20.523438 94.214844 L 356.34375 94.214844 C 356.960938 94.226562 357.574219 94.203125 358.191406 94.152344 C 358.804688 94.097656 359.414062 94.015625 360.019531 93.902344 C 360.625 93.789062 361.226562 93.648438 361.816406 93.476562 C 362.410156 93.304688 362.992188 93.101562 363.5625 92.871094 C 364.136719 92.644531 364.695312 92.386719 365.242188 92.101562 C 365.789062 91.8125 366.320312 91.503906 366.835938 91.164062 C 367.351562 90.828125 367.847656 90.464844 368.328125 90.078125 C 368.808594 89.6875 369.269531 89.277344 369.707031 88.847656 C 370.144531 88.414062 370.5625 87.960938 370.957031 87.484375 C 371.351562 87.011719 371.71875 86.519531 372.066406 86.007812 C 372.410156 85.496094 372.730469 84.96875 373.023438 84.429688 C 373.316406 83.886719 373.582031 83.328125 373.820312 82.761719 C 374.058594 82.191406 374.265625 81.613281 374.449219 81.023438 C 374.628906 80.433594 374.777344 79.835938 374.902344 79.230469 C 375.023438 78.628906 375.113281 78.019531 375.175781 77.40625 C 375.234375 76.792969 375.265625 76.175781 375.265625 75.558594 C 375.265625 74.941406 375.234375 74.328125 375.175781 73.714844 C 375.113281 73.101562 375.023438 72.492188 374.902344 71.886719 C 374.777344 71.28125 374.628906 70.6875 374.449219 70.097656 C 374.265625 69.507812 374.058594 68.925781 373.820312 68.359375 C 373.582031 67.789062 373.316406 67.234375 373.023438 66.691406 C 372.730469 66.148438 372.410156 65.621094 372.066406 65.113281 C 371.71875 64.601562 371.351562 64.109375 370.957031 63.632812 C 370.5625 63.160156 370.144531 62.707031 369.707031 62.273438 C 369.269531 61.839844 368.808594 61.429688 368.328125 61.042969 C 367.847656 60.65625 367.351562 60.292969 366.835938 59.953125 C 366.320312 59.617188 365.789062 59.304688 365.242188 59.019531 C 364.695312 58.734375 364.136719 58.476562 363.5625 58.246094 C 362.992188 58.015625 362.410156 57.816406 361.816406 57.644531 C 361.226562 57.472656 360.625 57.328125 360.019531 57.214844 C 359.414062 57.101562 358.804688 57.019531 358.191406 56.96875 C 357.574219 56.917969 356.960938 56.894531 356.34375 56.902344 Z M 20.523438 168.84375 C 19.90625 168.835938 19.289062 168.855469 18.675781 168.910156 C 18.0625 168.960938 17.453125 169.042969 16.84375 169.15625 C 16.238281 169.269531 15.640625 169.410156 15.046875 169.582031 C 14.457031 169.757812 13.875 169.957031 13.300781 170.1875 C 12.730469 170.417969 12.171875 170.675781 11.625 170.960938 C 11.078125 171.246094 10.546875 171.558594 10.03125 171.894531 C 9.515625 172.234375 9.015625 172.597656 8.535156 172.984375 C 8.058594 173.371094 7.597656 173.78125 7.160156 174.214844 C 6.71875 174.648438 6.304688 175.101562 5.910156 175.574219 C 5.515625 176.046875 5.144531 176.539062 4.800781 177.050781 C 4.453125 177.5625 4.136719 178.089844 3.84375 178.632812 C 3.550781 179.175781 3.285156 179.730469 3.046875 180.300781 C 2.808594 180.867188 2.597656 181.445312 2.417969 182.035156 C 2.238281 182.625 2.085938 183.222656 1.964844 183.828125 C 1.84375 184.433594 1.753906 185.042969 1.691406 185.65625 C 1.632812 186.269531 1.601562 186.882812 1.601562 187.5 C 1.601562 188.117188 1.632812 188.730469 1.691406 189.34375 C 1.753906 189.957031 1.84375 190.566406 1.964844 191.171875 C 2.085938 191.777344 2.238281 192.375 2.417969 192.964844 C 2.597656 193.554688 2.808594 194.132812 3.046875 194.699219 C 3.285156 195.269531 3.550781 195.824219 3.84375 196.367188 C 4.136719 196.910156 4.453125 197.4375 4.800781 197.949219 C 5.144531 198.457031 5.515625 198.953125 5.910156 199.425781 C 6.304688 199.898438 6.71875 200.351562 7.160156 200.785156 C 7.597656 201.21875 8.058594 201.628906 8.535156 202.015625 C 9.015625 202.402344 9.515625 202.765625 10.03125 203.105469 C 10.546875 203.441406 11.078125 203.753906 11.625 204.039062 C 12.171875 204.324219 12.730469 204.582031 13.300781 204.8125 C 13.875 205.042969 14.457031 205.242188 15.046875 205.417969 C 15.640625 205.589844 16.238281 205.730469 16.84375 205.84375 C 17.453125 205.957031 18.0625 206.039062 18.675781 206.089844 C 19.289062 206.144531 19.90625 206.164062 20.523438 206.15625 L 356.34375 206.15625 C 356.960938 206.164062 357.574219 206.144531 358.191406 206.089844 C 358.804688 206.039062 359.414062 205.957031 360.019531 205.84375 C 360.625 205.730469 361.226562 205.589844 361.816406 205.417969 C 362.410156 205.242188 362.992188 205.042969 363.5625 204.8125 C 364.136719 204.582031 364.695312 204.324219 365.242188 204.039062 C 365.789062 203.753906 366.320312 203.441406 366.835938 203.105469 C 367.351562 202.765625 367.847656 202.402344 368.328125 202.015625 C 368.808594 201.628906 369.269531 201.21875 369.707031 200.785156 C 370.144531 200.351562 370.5625 199.898438 370.957031 199.425781 C 371.351562 198.953125 371.71875 198.457031 372.066406 197.949219 C 372.410156 197.4375 372.730469 196.910156 373.023438 196.367188 C 373.316406 195.824219 373.582031 195.269531 373.820312 194.699219 C 374.058594 194.132812 374.265625 193.554688 374.449219 192.964844 C 374.628906 192.375 374.777344 191.777344 374.898438 191.171875 C 375.023438 190.566406 375.113281 189.957031 375.171875 189.34375 C 375.234375 188.730469 375.265625 188.117188 375.265625 187.5 C 375.265625 186.882812 375.234375 186.269531 375.171875 185.65625 C 375.113281 185.042969 375.023438 184.433594 374.898438 183.828125 C 374.777344 183.222656 374.628906 182.625 374.449219 182.035156 C 374.265625 181.445312 374.058594 180.867188 373.820312 180.300781 C 373.582031 179.730469 373.316406 179.175781 373.023438 178.632812 C 372.730469 178.089844 372.410156 177.5625 372.066406 177.050781 C 371.71875 176.542969 371.351562 176.046875 370.957031 175.574219 C 370.5625 175.101562 370.144531 174.648438 369.707031 174.214844 C 369.269531 173.78125 368.808594 173.371094 368.328125 172.984375 C 367.847656 172.597656 367.351562 172.234375 366.835938 171.894531 C 366.320312 171.558594 365.789062 171.246094 365.242188 170.960938 C 364.695312 170.675781 364.136719 170.417969 363.5625 170.1875 C 362.992188 169.957031 362.410156 169.757812 361.816406 169.582031 C 361.226562 169.410156 360.625 169.269531 360.019531 169.15625 C 359.414062 169.042969 358.804688 168.960938 358.191406 168.910156 C 357.574219 168.855469 356.960938 168.835938 356.34375 168.84375 Z M 20.523438 280.785156 C 19.90625 280.773438 19.289062 280.796875 18.675781 280.847656 C 18.0625 280.902344 17.453125 280.984375 16.84375 281.097656 C 16.238281 281.210938 15.640625 281.351562 15.046875 281.523438 C 14.457031 281.695312 13.875 281.898438 13.300781 282.128906 C 12.730469 282.355469 12.167969 282.613281 11.625 282.898438 C 11.078125 283.183594 10.546875 283.496094 10.03125 283.835938 C 9.515625 284.171875 9.015625 284.535156 8.535156 284.921875 C 8.058594 285.3125 7.597656 285.722656 7.160156 286.152344 C 6.71875 286.585938 6.304688 287.039062 5.910156 287.515625 C 5.515625 287.988281 5.144531 288.480469 4.800781 288.992188 C 4.453125 289.503906 4.136719 290.03125 3.84375 290.570312 C 3.550781 291.113281 3.285156 291.671875 3.046875 292.238281 C 2.808594 292.808594 2.597656 293.386719 2.417969 293.976562 C 2.238281 294.566406 2.085938 295.164062 1.964844 295.769531 C 1.84375 296.371094 1.753906 296.980469 1.691406 297.59375 C 1.628906 298.207031 1.601562 298.824219 1.601562 299.441406 C 1.601562 300.058594 1.628906 300.671875 1.691406 301.285156 C 1.753906 301.898438 1.84375 302.507812 1.964844 303.113281 C 2.085938 303.71875 2.238281 304.3125 2.417969 304.902344 C 2.597656 305.492188 2.808594 306.074219 3.046875 306.640625 C 3.285156 307.210938 3.550781 307.765625 3.84375 308.308594 C 4.136719 308.851562 4.453125 309.378906 4.800781 309.886719 C 5.144531 310.398438 5.515625 310.890625 5.910156 311.367188 C 6.304688 311.839844 6.71875 312.292969 7.160156 312.726562 C 7.597656 313.160156 8.058594 313.570312 8.535156 313.957031 C 9.015625 314.34375 9.515625 314.707031 10.03125 315.046875 C 10.546875 315.382812 11.078125 315.695312 11.625 315.980469 C 12.167969 316.265625 12.730469 316.523438 13.300781 316.753906 C 13.875 316.984375 14.457031 317.183594 15.046875 317.355469 C 15.640625 317.527344 16.238281 317.671875 16.84375 317.785156 C 17.453125 317.898438 18.0625 317.980469 18.675781 318.03125 C 19.289062 318.082031 19.90625 318.105469 20.523438 318.097656 L 356.34375 318.097656 C 356.960938 318.105469 357.574219 318.082031 358.191406 318.03125 C 358.804688 317.980469 359.414062 317.898438 360.019531 317.785156 C 360.625 317.671875 361.226562 317.527344 361.816406 317.355469 C 362.410156 317.183594 362.992188 316.984375 363.5625 316.753906 C 364.136719 316.523438 364.695312 316.265625 365.242188 315.980469 C 365.789062 315.695312 366.320312 315.382812 366.835938 315.046875 C 367.351562 314.707031 367.847656 314.34375 368.328125 313.957031 C 368.808594 313.570312 369.269531 313.160156 369.707031 312.726562 C 370.144531 312.292969 370.5625 311.839844 370.957031 311.367188 C 371.351562 310.890625 371.722656 310.398438 372.066406 309.886719 C 372.410156 309.378906 372.730469 308.851562 373.023438 308.308594 C 373.316406 307.765625 373.582031 307.210938 373.820312 306.640625 C 374.058594 306.074219 374.265625 305.492188 374.449219 304.902344 C 374.628906 304.3125 374.78125 303.71875 374.902344 303.113281 C 375.023438 302.507812 375.113281 301.898438 375.175781 301.285156 C 375.234375 300.671875 375.265625 300.058594 375.265625 299.441406 C 375.265625 298.824219 375.234375 298.207031 375.175781 297.59375 C 375.113281 296.980469 375.023438 296.371094 374.902344 295.769531 C 374.78125 295.164062 374.628906 294.566406 374.449219 293.976562 C 374.265625 293.386719 374.058594 292.808594 373.820312 292.238281 C 373.582031 291.671875 373.316406 291.113281 373.023438 290.570312 C 372.730469 290.03125 372.410156 289.503906 372.066406 288.992188 C 371.722656 288.480469 371.351562 287.988281 370.957031 287.515625 C 370.5625 287.039062 370.144531 286.585938 369.707031 286.152344 C 369.269531 285.722656 368.808594 285.3125 368.328125 284.921875 C 367.847656 284.535156 367.351562 284.171875 366.835938 283.835938 C 366.320312 283.496094 365.789062 283.183594 365.242188 282.898438 C 364.695312 282.613281 364.136719 282.355469 363.5625 282.128906 C 362.992188 281.898438 362.410156 281.695312 361.816406 281.523438 C 361.226562 281.351562 360.625 281.210938 360.019531 281.097656 C 359.414062 280.984375 358.804688 280.902344 358.191406 280.847656 C 357.574219 280.796875 356.960938 280.773438 356.34375 280.785156 Z M 20.523438 280.785156 " fill-opacity="1" fill-rule="nonzero"/></g></svg>