<svg xmlns="http://www.w3.org/2000/svg" xmlns:xlink="http://www.w3.org/1999/xlink" width="500" zoomAndPan="magnify" viewBox="0 0 375 374.999991" height="500" preserveAspectRatio="xMidYMid meet" version="1.0"><defs><g/><clipPath id="fcff519027"><path d="M 91.25 159.539062 L 108.5 159.539062 L 108.5 215 L 91.25 215 Z M 91.25 159.539062 " clip-rule="nonzero"/></clipPath><clipPath id="ac0bf1da0f"><path d="M 270.554688 159.929688 L 287.488281 159.929688 L 287.488281 215.429688 L 270.554688 215.429688 Z M 270.554688 159.929688 " clip-rule="nonzero"/></clipPath></defs><g clip-path="url(#fcff519027)"><path fill="#191937" d="M 95.1875 169.882812 C 95.421875 169.363281 95.667969 168.863281 95.960938 168.398438 C 96.027344 168.273438 96.097656 168.164062 96.175781 168.042969 C 96.242188 167.921875 96.320312 167.820312 96.398438 167.699219 C 96.476562 167.589844 96.554688 167.476562 96.625 167.367188 C 96.703125 167.253906 96.769531 167.144531 96.859375 167.046875 C 97.015625 166.835938 97.183594 166.625 97.339844 166.425781 C 97.507812 166.226562 97.675781 166.035156 97.847656 165.835938 C 98.003906 165.636719 98.183594 165.460938 98.363281 165.28125 C 98.542969 165.105469 98.699219 164.929688 98.878906 164.761719 C 99.058594 164.597656 99.226562 164.441406 99.40625 164.273438 C 99.585938 164.121094 99.761719 163.976562 99.933594 163.832031 C 100.28125 163.53125 100.636719 163.289062 100.984375 163.023438 C 102.386719 162.035156 103.722656 161.382812 104.855469 160.917969 C 107.121094 159.996094 108.5 159.832031 108.476562 159.652344 C 108.46875 159.585938 108.121094 159.5625 107.445312 159.597656 C 107.277344 159.609375 107.097656 159.640625 106.898438 159.664062 C 106.695312 159.699219 106.472656 159.71875 106.222656 159.765625 C 105.988281 159.820312 105.730469 159.863281 105.449219 159.929688 C 105.167969 159.996094 104.890625 160.085938 104.585938 160.164062 C 103.363281 160.527344 101.90625 161.117188 100.347656 162.070312 C 99.964844 162.324219 99.5625 162.558594 99.179688 162.855469 C 98.988281 163 98.777344 163.144531 98.585938 163.300781 C 98.394531 163.453125 98.195312 163.621094 98.003906 163.785156 C 97.800781 163.941406 97.621094 164.140625 97.417969 164.320312 C 97.230469 164.496094 97.027344 164.683594 96.835938 164.882812 C 96.644531 165.082031 96.453125 165.28125 96.265625 165.492188 C 96.085938 165.703125 95.90625 165.925781 95.714844 166.148438 C 95.613281 166.257812 95.535156 166.371094 95.445312 166.492188 C 95.355469 166.613281 95.265625 166.722656 95.1875 166.847656 C 95.097656 166.96875 95.007812 167.078125 94.929688 167.210938 C 94.851562 167.332031 94.761719 167.464844 94.683594 167.589844 C 94.347656 168.085938 94.042969 168.640625 93.761719 169.207031 C 93.214844 170.335938 92.765625 171.566406 92.417969 172.875 C 92.082031 174.183594 91.855469 175.566406 91.800781 177.019531 C 91.765625 177.75 91.800781 178.492188 91.902344 179.246094 C 91.992188 180 92.148438 180.777344 92.417969 181.53125 C 92.6875 182.296875 93.046875 183.046875 93.550781 183.734375 C 93.761719 184.035156 94.011719 184.324219 94.269531 184.589844 C 94.1875 184.746094 94.109375 184.898438 94.03125 185.054688 C 93.304688 186.5625 92.777344 188.101562 92.382812 189.621094 C 91.992188 191.148438 91.734375 192.667969 91.566406 194.152344 C 91.25 197.132812 91.363281 200.003906 91.855469 202.644531 C 92.351562 205.269531 93.257812 207.675781 94.558594 209.613281 C 95.210938 210.578125 95.949219 211.421875 96.734375 212.117188 C 97.53125 212.816406 98.371094 213.359375 99.214844 213.769531 C 100.894531 214.589844 102.488281 214.867188 103.757812 214.945312 C 105.035156 215.011719 106.023438 214.910156 106.683594 214.800781 C 107.34375 214.679688 107.671875 214.566406 107.671875 214.5 C 107.660156 214.421875 107.3125 214.402344 106.660156 214.390625 C 106.011719 214.367188 105.058594 214.335938 103.859375 214.15625 C 102.667969 213.96875 101.222656 213.59375 99.761719 212.761719 C 99.035156 212.351562 98.316406 211.820312 97.632812 211.164062 C 96.960938 210.5 96.332031 209.722656 95.78125 208.828125 C 94.695312 207.042969 93.929688 204.804688 93.539062 202.34375 C 93.144531 199.871094 93.113281 197.15625 93.449219 194.351562 C 93.628906 192.945312 93.886719 191.527344 94.277344 190.097656 C 94.671875 188.679688 95.164062 187.25 95.839844 185.90625 C 95.847656 185.875 95.871094 185.851562 95.882812 185.820312 C 96.488281 186.164062 97.148438 186.441406 97.8125 186.628906 C 98.710938 186.859375 99.617188 186.9375 100.527344 186.859375 C 100.984375 186.828125 101.433594 186.738281 101.894531 186.628906 L 102.230469 186.527344 L 102.398438 186.472656 L 102.902344 186.273438 L 103.230469 186.117188 L 103.398438 186.039062 L 103.554688 185.941406 C 103.65625 185.875 103.769531 185.820312 103.867188 185.753906 C 104.070312 185.597656 104.273438 185.464844 104.464844 185.289062 C 104.84375 184.953125 105.167969 184.542969 105.4375 184.078125 C 105.507812 183.957031 105.5625 183.835938 105.628906 183.714844 C 105.675781 183.582031 105.730469 183.449219 105.773438 183.316406 C 105.796875 183.25 105.820312 183.179688 105.832031 183.105469 L 105.875 182.882812 C 105.910156 182.738281 105.910156 182.582031 105.910156 182.4375 C 105.921875 181.828125 105.730469 181.207031 105.394531 180.710938 C 105.070312 180.210938 104.621094 179.824219 104.136719 179.535156 C 103.65625 179.246094 103.117188 179.082031 102.578125 179.003906 C 102.445312 178.980469 102.308594 178.96875 102.175781 178.960938 C 102.039062 178.949219 101.90625 178.949219 101.78125 178.949219 C 101.660156 178.960938 101.523438 178.949219 101.402344 178.96875 L 101.019531 179.015625 C 100.527344 179.09375 100.042969 179.214844 99.585938 179.390625 C 99.125 179.558594 98.699219 179.777344 98.292969 180.023438 C 97.890625 180.265625 97.507812 180.542969 97.160156 180.84375 C 96.453125 181.429688 95.847656 182.128906 95.355469 182.847656 C 95.355469 182.859375 95.34375 182.859375 95.34375 182.871094 C 94.863281 182.296875 94.492188 181.628906 94.234375 180.921875 C 94.011719 180.3125 93.863281 179.65625 93.773438 179.015625 C 93.683594 178.359375 93.640625 177.707031 93.652344 177.054688 C 93.664062 175.746094 93.839844 174.46875 94.109375 173.261719 C 94.335938 172.078125 94.714844 170.925781 95.1875 169.882812 Z M 98.441406 182.40625 C 98.71875 182.171875 99.011719 181.960938 99.316406 181.773438 C 99.617188 181.597656 99.941406 181.429688 100.269531 181.308594 C 100.59375 181.1875 100.929688 181.097656 101.265625 181.054688 L 101.523438 181.03125 C 101.613281 181.019531 101.691406 181.019531 101.78125 181.019531 C 101.871094 181.007812 101.941406 181.019531 102.019531 181.03125 C 102.097656 181.03125 102.175781 181.03125 102.242188 181.054688 C 102.847656 181.132812 103.386719 181.453125 103.644531 181.851562 C 103.769531 182.050781 103.835938 182.25 103.835938 182.460938 C 103.835938 182.515625 103.847656 182.570312 103.824219 182.628906 L 103.8125 182.714844 C 103.8125 182.75 103.800781 182.773438 103.789062 182.804688 C 103.769531 182.859375 103.746094 182.925781 103.734375 182.980469 C 103.699219 183.039062 103.667969 183.105469 103.644531 183.160156 C 103.5 183.402344 103.320312 183.65625 103.082031 183.859375 C 102.984375 183.96875 102.835938 184.058594 102.714844 184.15625 L 102.511719 184.277344 L 102.410156 184.34375 L 102.296875 184.402344 L 102.074219 184.511719 L 101.839844 184.601562 L 101.726562 184.644531 L 101.601562 184.679688 L 101.355469 184.753906 C 101.019531 184.832031 100.683594 184.910156 100.347656 184.933594 C 99.664062 185.011719 98.96875 184.945312 98.339844 184.789062 C 97.8125 184.644531 97.320312 184.445312 96.871094 184.191406 C 96.902344 184.132812 96.9375 184.078125 96.980469 184.023438 C 97.410156 183.414062 97.878906 182.871094 98.441406 182.40625 Z M 98.441406 182.40625 " fill-opacity="1" fill-rule="nonzero"/></g><g fill="#191937" fill-opacity="1"><g transform="translate(110.455074, 197.074264)"><g><path d="M 0.75 10.984375 C 0.96875 7.921875 1.125 5.375 1.21875 3.34375 C 1.320312 1.3125 1.390625 -0.425781 1.421875 -1.875 C 1.460938 -3.320312 1.46875 -4.601562 1.4375 -5.71875 C 1.414062 -6.832031 1.378906 -8.015625 1.328125 -9.265625 C 1.285156 -10.515625 1.234375 -11.945312 1.171875 -13.5625 C 1.109375 -15.1875 1.050781 -17.234375 1 -19.703125 C 1.050781 -19.972656 1.148438 -20.210938 1.296875 -20.421875 C 1.441406 -20.640625 1.609375 -20.789062 1.796875 -20.875 C 1.984375 -20.957031 2.1875 -20.945312 2.40625 -20.84375 C 2.632812 -20.75 2.859375 -20.53125 3.078125 -20.1875 L 2.96875 -15.359375 C 3.8125 -16.453125 4.757812 -17.441406 5.8125 -18.328125 C 6.863281 -19.222656 7.925781 -19.957031 9 -20.53125 C 10.070312 -21.113281 11.113281 -21.523438 12.125 -21.765625 C 13.144531 -22.003906 14.03125 -22.023438 14.78125 -21.828125 C 15.539062 -21.628906 16.125 -21.1875 16.53125 -20.5 C 16.9375 -19.820312 17.078125 -18.863281 16.953125 -17.625 C 16.859375 -16.539062 16.523438 -15.375 15.953125 -14.125 C 15.390625 -12.875 14.691406 -11.632812 13.859375 -10.40625 C 13.035156 -9.1875 12.128906 -8.003906 11.140625 -6.859375 C 10.148438 -5.722656 9.179688 -4.722656 8.234375 -3.859375 C 7.296875 -2.992188 6.425781 -2.296875 5.625 -1.765625 C 4.820312 -1.234375 4.1875 -0.96875 3.71875 -0.96875 C 3.6875 -0.625 3.644531 -0.132812 3.59375 0.5 C 3.550781 1.132812 3.503906 1.851562 3.453125 2.65625 C 3.398438 3.457031 3.34375 4.289062 3.28125 5.15625 C 3.21875 6.019531 3.160156 6.847656 3.109375 7.640625 C 3.066406 8.429688 3.019531 9.148438 2.96875 9.796875 C 2.914062 10.441406 2.890625 10.925781 2.890625 11.25 C 2.765625 11.375 2.613281 11.484375 2.4375 11.578125 C 2.269531 11.679688 2.085938 11.742188 1.890625 11.765625 C 1.691406 11.785156 1.492188 11.738281 1.296875 11.625 C 1.097656 11.519531 0.914062 11.304688 0.75 10.984375 Z M 3.53125 -3.078125 C 4.34375 -3.398438 5.316406 -4.050781 6.453125 -5.03125 C 7.597656 -6.007812 8.734375 -7.179688 9.859375 -8.546875 C 10.984375 -9.921875 12 -11.425781 12.90625 -13.0625 C 13.820312 -14.695312 14.46875 -16.316406 14.84375 -17.921875 C 14.695312 -18.710938 14.363281 -19.234375 13.84375 -19.484375 C 13.320312 -19.734375 12.707031 -19.789062 12 -19.65625 C 11.300781 -19.519531 10.53125 -19.207031 9.6875 -18.71875 C 8.84375 -18.238281 8.03125 -17.671875 7.25 -17.015625 C 6.476562 -16.359375 5.753906 -15.632812 5.078125 -14.84375 C 4.410156 -14.050781 3.894531 -13.269531 3.53125 -12.5 Z M 3.53125 -3.078125 "/></g></g></g><g fill="#191937" fill-opacity="1"><g transform="translate(127.967097, 197.074264)"><g><path d="M 1.15625 -0.703125 C 1.082031 -4.117188 1.019531 -7.015625 0.96875 -9.390625 C 0.914062 -11.765625 0.875 -13.726562 0.84375 -15.28125 C 0.820312 -16.84375 0.804688 -18.0625 0.796875 -18.9375 C 0.785156 -19.820312 0.773438 -20.472656 0.765625 -20.890625 C 0.753906 -21.316406 0.75 -21.570312 0.75 -21.65625 C 0.75 -21.738281 0.75 -21.796875 0.75 -21.828125 C 0.769531 -22.046875 0.878906 -22.226562 1.078125 -22.375 C 1.273438 -22.519531 1.488281 -22.613281 1.71875 -22.65625 C 1.957031 -22.695312 2.1875 -22.664062 2.40625 -22.5625 C 2.632812 -22.46875 2.796875 -22.304688 2.890625 -22.078125 L 3 -13.546875 C 3.375 -15.253906 3.972656 -16.675781 4.796875 -17.8125 C 5.628906 -18.945312 6.566406 -19.84375 7.609375 -20.5 C 8.648438 -21.15625 9.734375 -21.582031 10.859375 -21.78125 C 11.984375 -21.976562 13.023438 -21.992188 13.984375 -21.828125 C 14.304688 -21.742188 14.546875 -21.601562 14.703125 -21.40625 C 14.867188 -21.207031 14.957031 -20.988281 14.96875 -20.75 C 14.988281 -20.519531 14.925781 -20.300781 14.78125 -20.09375 C 14.644531 -19.882812 14.46875 -19.726562 14.25 -19.625 C 13.132812 -19.707031 12.085938 -19.617188 11.109375 -19.359375 C 10.140625 -19.097656 9.25 -18.710938 8.4375 -18.203125 C 7.632812 -17.691406 6.929688 -17.085938 6.328125 -16.390625 C 5.722656 -15.703125 5.25 -14.976562 4.90625 -14.21875 C 4.382812 -13.101562 4.03125 -11.929688 3.84375 -10.703125 C 3.65625 -9.484375 3.539062 -8.265625 3.5 -7.046875 C 3.46875 -5.835938 3.46875 -4.6875 3.5 -3.59375 C 3.539062 -2.507812 3.550781 -1.5625 3.53125 -0.75 C 3.5 -0.46875 3.378906 -0.257812 3.171875 -0.125 C 2.960938 0.0078125 2.726562 0.0820312 2.46875 0.09375 C 2.207031 0.101562 1.945312 0.0390625 1.6875 -0.09375 C 1.425781 -0.226562 1.25 -0.429688 1.15625 -0.703125 Z M 1.15625 -0.703125 "/></g></g></g><g fill="#191937" fill-opacity="1"><g transform="translate(143.327219, 197.074264)"><g><path d="M 5.375 -0.15625 C 4.382812 -0.269531 3.570312 -0.660156 2.9375 -1.328125 C 2.3125 -2.003906 1.8125 -2.820312 1.4375 -3.78125 C 1.070312 -4.75 0.832031 -5.804688 0.71875 -6.953125 C 0.613281 -8.109375 0.582031 -9.242188 0.625 -10.359375 C 0.707031 -12.066406 1.023438 -13.695312 1.578125 -15.25 C 2.128906 -16.8125 2.820312 -18.164062 3.65625 -19.3125 C 4.488281 -20.46875 5.40625 -21.359375 6.40625 -21.984375 C 7.40625 -22.617188 8.390625 -22.863281 9.359375 -22.71875 C 10.367188 -22.5625 11.1875 -22.078125 11.8125 -21.265625 C 12.445312 -20.453125 12.9375 -19.453125 13.28125 -18.265625 C 13.632812 -17.078125 13.847656 -15.78125 13.921875 -14.375 C 13.992188 -12.976562 13.976562 -11.640625 13.875 -10.359375 C 13.75 -8.898438 13.425781 -7.535156 12.90625 -6.265625 C 12.394531 -5.003906 11.75 -3.914062 10.96875 -3 C 10.1875 -2.09375 9.304688 -1.382812 8.328125 -0.875 C 7.347656 -0.363281 6.363281 -0.125 5.375 -0.15625 Z M 8.984375 -20.59375 C 8.160156 -20.695312 7.394531 -20.441406 6.6875 -19.828125 C 5.988281 -19.222656 5.359375 -18.421875 4.796875 -17.421875 C 4.242188 -16.421875 3.78125 -15.28125 3.40625 -14 C 3.039062 -12.726562 2.796875 -11.476562 2.671875 -10.25 C 2.578125 -9.351562 2.539062 -8.4375 2.5625 -7.5 C 2.582031 -6.5625 2.695312 -5.707031 2.90625 -4.9375 C 3.125 -4.164062 3.460938 -3.539062 3.921875 -3.0625 C 4.378906 -2.582031 4.988281 -2.34375 5.75 -2.34375 C 6.375 -2.3125 7.023438 -2.519531 7.703125 -2.96875 C 8.378906 -3.414062 9.015625 -4.015625 9.609375 -4.765625 C 10.203125 -5.523438 10.726562 -6.382812 11.1875 -7.34375 C 11.644531 -8.3125 11.945312 -9.300781 12.09375 -10.3125 C 12.269531 -11.375 12.3125 -12.46875 12.21875 -13.59375 C 12.132812 -14.726562 11.953125 -15.773438 11.671875 -16.734375 C 11.390625 -17.703125 11.019531 -18.535156 10.5625 -19.234375 C 10.101562 -19.941406 9.578125 -20.394531 8.984375 -20.59375 Z M 8.984375 -20.59375 "/></g></g></g><g fill="#191937" fill-opacity="1"><g transform="translate(157.834001, 197.074264)"><g><path d="M -7.875 8.5 C -8.019531 8.320312 -8.066406 8.078125 -8.015625 7.765625 C -7.960938 7.460938 -7.863281 7.191406 -7.71875 6.953125 C -7.570312 6.722656 -7.378906 6.578125 -7.140625 6.515625 C -6.910156 6.453125 -6.671875 6.59375 -6.421875 6.9375 C -5.722656 7.875 -4.976562 8.5625 -4.1875 9 C -3.394531 9.4375 -2.644531 9.554688 -1.9375 9.359375 C -1.238281 9.160156 -0.613281 8.601562 -0.0625 7.6875 C 0.476562 6.769531 0.847656 5.421875 1.046875 3.640625 C 1.191406 1.910156 1.265625 0.0234375 1.265625 -2.015625 C 1.265625 -4.054688 1.238281 -6.15625 1.1875 -8.3125 C 1.132812 -10.46875 1.085938 -12.640625 1.046875 -14.828125 C 1.015625 -17.015625 1.035156 -19.109375 1.109375 -21.109375 C 1.179688 -21.285156 1.316406 -21.425781 1.515625 -21.53125 C 1.710938 -21.644531 1.921875 -21.703125 2.140625 -21.703125 C 2.367188 -21.703125 2.585938 -21.660156 2.796875 -21.578125 C 3.015625 -21.492188 3.160156 -21.335938 3.234375 -21.109375 C 3.179688 -18.859375 3.164062 -16.722656 3.1875 -14.703125 C 3.21875 -12.691406 3.25 -10.695312 3.28125 -8.71875 C 3.320312 -6.738281 3.332031 -4.726562 3.3125 -2.6875 C 3.300781 -0.644531 3.222656 1.535156 3.078125 3.859375 C 3.109375 4.671875 2.984375 5.507812 2.703125 6.375 C 2.429688 7.25 2.046875 8.039062 1.546875 8.75 C 1.054688 9.46875 0.472656 10.066406 -0.203125 10.546875 C -0.878906 11.035156 -1.625 11.316406 -2.4375 11.390625 C -3.257812 11.460938 -4.128906 11.28125 -5.046875 10.84375 C -5.960938 10.414062 -6.90625 9.632812 -7.875 8.5 Z M 1.8125 -25.609375 C 1.375 -25.679688 1.09375 -25.832031 0.96875 -26.0625 C 0.84375 -26.300781 0.832031 -26.550781 0.9375 -26.8125 C 1.050781 -27.070312 1.238281 -27.300781 1.5 -27.5 C 1.757812 -27.695312 2.050781 -27.785156 2.375 -27.765625 C 2.644531 -27.765625 2.804688 -27.625 2.859375 -27.34375 C 2.910156 -27.070312 2.9375 -26.863281 2.9375 -26.71875 C 2.9375 -25.976562 2.5625 -25.609375 1.8125 -25.609375 Z M 1.8125 -25.609375 "/></g></g></g><g fill="#191937" fill-opacity="1"><g transform="translate(161.878091, 197.074264)"><g><path d="M 2.234375 -9.90625 C 2.054688 -9.757812 1.75 -9.703125 1.3125 -9.734375 C 0.882812 -9.773438 0.488281 -9.867188 0.125 -10.015625 C -0.226562 -10.171875 -0.46875 -10.375 -0.59375 -10.625 C -0.71875 -10.882812 -0.570312 -11.191406 -0.15625 -11.546875 C 0.0195312 -11.691406 0.210938 -11.796875 0.421875 -11.859375 C 0.640625 -11.921875 0.851562 -11.984375 1.0625 -12.046875 C 1.269531 -12.109375 1.441406 -12.195312 1.578125 -12.3125 C 1.710938 -12.4375 1.789062 -12.640625 1.8125 -12.921875 C 1.84375 -14.023438 1.9375 -15.160156 2.09375 -16.328125 C 2.257812 -17.492188 2.5625 -18.53125 3 -19.4375 C 3.445312 -20.351562 4.082031 -21.082031 4.90625 -21.625 C 5.738281 -22.175781 6.835938 -22.390625 8.203125 -22.265625 C 8.691406 -22.265625 9.242188 -22.144531 9.859375 -21.90625 C 10.484375 -21.675781 11.078125 -21.367188 11.640625 -20.984375 C 12.210938 -20.597656 12.707031 -20.140625 13.125 -19.609375 C 13.550781 -19.078125 13.816406 -18.503906 13.921875 -17.890625 C 14.085938 -17.640625 13.984375 -17.328125 13.609375 -16.953125 C 13.242188 -16.585938 12.726562 -16.175781 12.0625 -15.71875 C 11.394531 -15.257812 10.640625 -14.796875 9.796875 -14.328125 C 8.953125 -13.859375 8.140625 -13.410156 7.359375 -12.984375 C 6.585938 -12.566406 5.90625 -12.195312 5.3125 -11.875 C 4.71875 -11.550781 4.332031 -11.328125 4.15625 -11.203125 C 4.300781 -10.242188 4.460938 -9.226562 4.640625 -8.15625 C 4.816406 -7.09375 5.0625 -6.113281 5.375 -5.21875 C 5.695312 -4.332031 6.097656 -3.597656 6.578125 -3.015625 C 7.066406 -2.441406 7.679688 -2.15625 8.421875 -2.15625 C 9.515625 -2.082031 10.445312 -2.242188 11.21875 -2.640625 C 12 -3.035156 12.648438 -3.550781 13.171875 -4.1875 C 13.691406 -4.832031 14.101562 -5.535156 14.40625 -6.296875 C 14.71875 -7.066406 14.953125 -7.796875 15.109375 -8.484375 C 15.273438 -9.179688 15.390625 -9.769531 15.453125 -10.25 C 15.515625 -10.738281 15.570312 -11.007812 15.625 -11.0625 C 15.894531 -11.207031 16.203125 -11.210938 16.546875 -11.078125 C 16.898438 -10.941406 17.097656 -10.578125 17.140625 -9.984375 C 17.171875 -9.015625 16.960938 -7.910156 16.515625 -6.671875 C 16.066406 -5.441406 15.453125 -4.304688 14.671875 -3.265625 C 13.898438 -2.222656 12.972656 -1.382812 11.890625 -0.75 C 10.816406 -0.125 9.675781 0.0859375 8.46875 -0.109375 C 7.195312 -0.140625 6.191406 -0.503906 5.453125 -1.203125 C 4.710938 -1.910156 4.125 -2.765625 3.6875 -3.765625 C 3.257812 -4.765625 2.945312 -5.820312 2.75 -6.9375 C 2.550781 -8.050781 2.378906 -9.039062 2.234375 -9.90625 Z M 11.953125 -17.890625 C 11.160156 -18.972656 10.351562 -19.660156 9.53125 -19.953125 C 8.71875 -20.253906 7.878906 -20.34375 7.015625 -20.21875 C 6.492188 -20.144531 6.035156 -19.90625 5.640625 -19.5 C 5.242188 -19.09375 4.921875 -18.570312 4.671875 -17.9375 C 4.429688 -17.3125 4.257812 -16.609375 4.15625 -15.828125 C 4.0625 -15.046875 4.050781 -14.25 4.125 -13.4375 Z M 11.953125 -17.890625 "/></g></g></g><g fill="#191937" fill-opacity="1"><g transform="translate(179.390113, 197.074264)"><g><path d="M 1.078125 -9.5 C 1.148438 -10.507812 1.234375 -11.535156 1.328125 -12.578125 C 1.429688 -13.617188 1.582031 -14.628906 1.78125 -15.609375 C 1.976562 -16.585938 2.238281 -17.507812 2.5625 -18.375 C 2.882812 -19.238281 3.296875 -19.988281 3.796875 -20.625 C 4.304688 -21.269531 4.925781 -21.78125 5.65625 -22.15625 C 6.382812 -22.53125 7.257812 -22.703125 8.28125 -22.671875 C 8.96875 -22.671875 9.492188 -22.378906 9.859375 -21.796875 C 10.234375 -21.222656 10.5 -20.523438 10.65625 -19.703125 C 10.820312 -18.890625 10.910156 -18.050781 10.921875 -17.1875 C 10.941406 -16.320312 10.953125 -15.613281 10.953125 -15.0625 C 10.578125 -14.914062 10.257812 -14.914062 10 -15.0625 C 9.738281 -15.21875 9.523438 -15.460938 9.359375 -15.796875 C 9.203125 -16.128906 9.0625 -16.515625 8.9375 -16.953125 C 8.820312 -17.398438 8.71875 -17.847656 8.625 -18.296875 C 8.539062 -18.742188 8.441406 -19.164062 8.328125 -19.5625 C 8.222656 -19.957031 8.09375 -20.273438 7.9375 -20.515625 C 7.5 -20.710938 7.066406 -20.648438 6.640625 -20.328125 C 6.222656 -20.015625 5.835938 -19.550781 5.484375 -18.9375 C 5.140625 -18.332031 4.828125 -17.609375 4.546875 -16.765625 C 4.265625 -15.929688 4.023438 -15.085938 3.828125 -14.234375 C 3.628906 -13.378906 3.46875 -12.554688 3.34375 -11.765625 C 3.21875 -10.972656 3.15625 -10.304688 3.15625 -9.765625 C 3.175781 -9.015625 3.25 -8.210938 3.375 -7.359375 C 3.5 -6.515625 3.695312 -5.71875 3.96875 -4.96875 C 4.238281 -4.226562 4.597656 -3.59375 5.046875 -3.0625 C 5.492188 -2.53125 6.0625 -2.191406 6.75 -2.046875 C 7.695312 -2.046875 8.492188 -2.195312 9.140625 -2.5 C 9.796875 -2.8125 10.34375 -3.207031 10.78125 -3.6875 C 11.21875 -4.175781 11.554688 -4.71875 11.796875 -5.3125 C 12.046875 -5.90625 12.242188 -6.503906 12.390625 -7.109375 C 12.546875 -7.710938 12.664062 -8.28125 12.75 -8.8125 C 12.832031 -9.34375 12.925781 -9.78125 13.03125 -10.125 C 13.664062 -10.300781 14.160156 -10.289062 14.515625 -10.09375 C 14.878906 -9.894531 15.0625 -9.660156 15.0625 -9.390625 C 15.0625 -8.253906 14.863281 -7.125 14.46875 -6 C 14.070312 -4.875 13.507812 -3.863281 12.78125 -2.96875 C 12.050781 -2.082031 11.164062 -1.363281 10.125 -0.8125 C 9.09375 -0.269531 7.921875 0 6.609375 0 C 5.492188 0 4.578125 -0.347656 3.859375 -1.046875 C 3.140625 -1.753906 2.578125 -2.601562 2.171875 -3.59375 C 1.765625 -4.582031 1.476562 -5.617188 1.3125 -6.703125 C 1.15625 -7.796875 1.078125 -8.726562 1.078125 -9.5 Z M 1.078125 -9.5 "/></g></g></g><g fill="#191937" fill-opacity="1"><g transform="translate(194.972846, 197.074264)"><g><path d="M 2.671875 -17.625 L -0.75 -16.484375 C -1.019531 -16.554688 -1.242188 -16.691406 -1.421875 -16.890625 C -1.609375 -17.085938 -1.738281 -17.296875 -1.8125 -17.515625 C -1.894531 -17.734375 -1.914062 -17.941406 -1.875 -18.140625 C -1.832031 -18.335938 -1.726562 -18.488281 -1.5625 -18.59375 L 2.671875 -20.1875 L 2.59375 -30.6875 C 2.664062 -31.007812 2.828125 -31.242188 3.078125 -31.390625 C 3.328125 -31.546875 3.582031 -31.613281 3.84375 -31.59375 C 4.101562 -31.582031 4.34375 -31.492188 4.5625 -31.328125 C 4.789062 -31.171875 4.941406 -30.972656 5.015625 -30.734375 C 4.960938 -29.960938 4.921875 -29.148438 4.890625 -28.296875 C 4.867188 -27.441406 4.851562 -26.585938 4.84375 -25.734375 C 4.832031 -24.878906 4.835938 -24.050781 4.859375 -23.25 C 4.890625 -22.445312 4.941406 -21.710938 5.015625 -21.046875 L 10.765625 -23.375 C 11.109375 -23.476562 11.378906 -23.445312 11.578125 -23.28125 C 11.773438 -23.125 11.90625 -22.914062 11.96875 -22.65625 C 12.03125 -22.394531 12.007812 -22.140625 11.90625 -21.890625 C 11.8125 -21.648438 11.640625 -21.476562 11.390625 -21.375 L 5.015625 -18.484375 C 5.015625 -18.234375 5.023438 -17.644531 5.046875 -16.71875 C 5.066406 -15.789062 5.085938 -14.695312 5.109375 -13.4375 C 5.140625 -12.175781 5.164062 -10.828125 5.1875 -9.390625 C 5.21875 -7.953125 5.238281 -6.601562 5.25 -5.34375 C 5.257812 -4.082031 5.269531 -2.988281 5.28125 -2.0625 C 5.300781 -1.132812 5.3125 -0.546875 5.3125 -0.296875 C 5.257812 0.515625 5.019531 0.921875 4.59375 0.921875 C 4.175781 0.921875 3.722656 0.722656 3.234375 0.328125 Z M 2.671875 -17.625 "/></g></g></g><g fill="#191937" fill-opacity="1"><g transform="translate(203.728857, 197.074264)"><g><path d="M 1.046875 -7.390625 C 1.046875 -8.273438 1.132812 -9.484375 1.3125 -11.015625 C 1.5 -12.554688 1.769531 -14.21875 2.125 -16 C 2.488281 -17.78125 2.953125 -19.578125 3.515625 -21.390625 C 4.085938 -23.210938 4.757812 -24.859375 5.53125 -26.328125 C 6.300781 -27.796875 7.171875 -29 8.140625 -29.9375 C 9.117188 -30.882812 10.203125 -31.359375 11.390625 -31.359375 C 12.054688 -31.359375 12.628906 -31.234375 13.109375 -30.984375 C 13.597656 -30.734375 14.003906 -30.398438 14.328125 -29.984375 C 14.648438 -29.566406 14.882812 -29.082031 15.03125 -28.53125 C 15.175781 -27.988281 15.25 -27.410156 15.25 -26.796875 C 14.582031 -26.472656 14.078125 -26.394531 13.734375 -26.5625 C 13.390625 -26.738281 13.109375 -27.003906 12.890625 -27.359375 C 12.679688 -27.722656 12.476562 -28.101562 12.28125 -28.5 C 12.082031 -28.894531 11.800781 -29.144531 11.4375 -29.25 C 10.539062 -29.25 9.722656 -28.820312 8.984375 -27.96875 C 8.242188 -27.113281 7.578125 -26.03125 6.984375 -24.71875 C 6.390625 -23.40625 5.867188 -21.941406 5.421875 -20.328125 C 4.972656 -18.722656 4.597656 -17.160156 4.296875 -15.640625 C 4.003906 -14.117188 3.785156 -12.738281 3.640625 -11.5 C 3.492188 -10.269531 3.421875 -9.359375 3.421875 -8.765625 C 3.421875 -7.972656 3.445312 -7.207031 3.5 -6.46875 C 3.5625 -5.738281 3.722656 -5.085938 3.984375 -4.515625 C 4.242188 -3.953125 4.632812 -3.503906 5.15625 -3.171875 C 5.675781 -2.835938 6.40625 -2.671875 7.34375 -2.671875 C 8.457031 -2.671875 9.550781 -2.992188 10.625 -3.640625 C 11.707031 -4.285156 12.695312 -5.085938 13.59375 -6.046875 C 14.5 -7.015625 15.289062 -8.046875 15.96875 -9.140625 C 16.65625 -10.242188 17.144531 -11.242188 17.4375 -12.140625 C 17.488281 -12.160156 17.613281 -12.175781 17.8125 -12.1875 C 18.007812 -12.195312 18.132812 -12.203125 18.1875 -12.203125 C 18.507812 -12.203125 18.816406 -12.164062 19.109375 -12.09375 C 19.410156 -12.019531 19.5625 -11.773438 19.5625 -11.359375 C 19.382812 -10.460938 18.992188 -9.523438 18.390625 -8.546875 C 17.785156 -7.578125 17.066406 -6.628906 16.234375 -5.703125 C 15.410156 -4.773438 14.507812 -3.90625 13.53125 -3.09375 C 12.550781 -2.289062 11.585938 -1.617188 10.640625 -1.078125 C 9.703125 -0.535156 8.832031 -0.160156 8.03125 0.046875 C 7.226562 0.265625 6.582031 0.25 6.09375 0 C 5.195312 0 4.425781 -0.25 3.78125 -0.75 C 3.144531 -1.257812 2.617188 -1.882812 2.203125 -2.625 C 1.796875 -3.375 1.5 -4.175781 1.3125 -5.03125 C 1.132812 -5.882812 1.046875 -6.671875 1.046875 -7.390625 Z M 1.046875 -7.390625 "/></g></g></g><g fill="#191937" fill-opacity="1"><g transform="translate(223.8009, 197.074264)"><g><path d="M 5.375 -0.15625 C 4.382812 -0.269531 3.570312 -0.660156 2.9375 -1.328125 C 2.3125 -2.003906 1.8125 -2.820312 1.4375 -3.78125 C 1.070312 -4.75 0.832031 -5.804688 0.71875 -6.953125 C 0.613281 -8.109375 0.582031 -9.242188 0.625 -10.359375 C 0.707031 -12.066406 1.023438 -13.695312 1.578125 -15.25 C 2.128906 -16.8125 2.820312 -18.164062 3.65625 -19.3125 C 4.488281 -20.46875 5.40625 -21.359375 6.40625 -21.984375 C 7.40625 -22.617188 8.390625 -22.863281 9.359375 -22.71875 C 10.367188 -22.5625 11.1875 -22.078125 11.8125 -21.265625 C 12.445312 -20.453125 12.9375 -19.453125 13.28125 -18.265625 C 13.632812 -17.078125 13.847656 -15.78125 13.921875 -14.375 C 13.992188 -12.976562 13.976562 -11.640625 13.875 -10.359375 C 13.75 -8.898438 13.425781 -7.535156 12.90625 -6.265625 C 12.394531 -5.003906 11.75 -3.914062 10.96875 -3 C 10.1875 -2.09375 9.304688 -1.382812 8.328125 -0.875 C 7.347656 -0.363281 6.363281 -0.125 5.375 -0.15625 Z M 8.984375 -20.59375 C 8.160156 -20.695312 7.394531 -20.441406 6.6875 -19.828125 C 5.988281 -19.222656 5.359375 -18.421875 4.796875 -17.421875 C 4.242188 -16.421875 3.78125 -15.28125 3.40625 -14 C 3.039062 -12.726562 2.796875 -11.476562 2.671875 -10.25 C 2.578125 -9.351562 2.539062 -8.4375 2.5625 -7.5 C 2.582031 -6.5625 2.695312 -5.707031 2.90625 -4.9375 C 3.125 -4.164062 3.460938 -3.539062 3.921875 -3.0625 C 4.378906 -2.582031 4.988281 -2.34375 5.75 -2.34375 C 6.375 -2.3125 7.023438 -2.519531 7.703125 -2.96875 C 8.378906 -3.414062 9.015625 -4.015625 9.609375 -4.765625 C 10.203125 -5.523438 10.726562 -6.382812 11.1875 -7.34375 C 11.644531 -8.3125 11.945312 -9.300781 12.09375 -10.3125 C 12.269531 -11.375 12.3125 -12.46875 12.21875 -13.59375 C 12.132812 -14.726562 11.953125 -15.773438 11.671875 -16.734375 C 11.390625 -17.703125 11.019531 -18.535156 10.5625 -19.234375 C 10.101562 -19.941406 9.578125 -20.394531 8.984375 -20.59375 Z M 8.984375 -20.59375 "/></g></g></g><g fill="#191937" fill-opacity="1"><g transform="translate(238.307682, 197.074264)"><g><path d="M 11.6875 -7.125 C 11.414062 -6.507812 11.007812 -5.789062 10.46875 -4.96875 C 9.925781 -4.15625 9.296875 -3.390625 8.578125 -2.671875 C 7.859375 -1.953125 7.070312 -1.335938 6.21875 -0.828125 C 5.363281 -0.328125 4.476562 -0.078125 3.5625 -0.078125 C 3.164062 -0.078125 2.847656 -0.125 2.609375 -0.21875 C 2.378906 -0.320312 2.171875 -0.460938 1.984375 -0.640625 C 1.796875 -0.828125 1.628906 -1.054688 1.484375 -1.328125 C 1.335938 -1.609375 1.148438 -1.921875 0.921875 -2.265625 C 0.703125 -3.503906 0.585938 -4.875 0.578125 -6.375 C 0.566406 -7.882812 0.691406 -9.40625 0.953125 -10.9375 C 1.210938 -12.476562 1.609375 -13.945312 2.140625 -15.34375 C 2.671875 -16.738281 3.363281 -17.929688 4.21875 -18.921875 C 5.070312 -19.910156 6.097656 -20.617188 7.296875 -21.046875 C 8.492188 -21.484375 9.882812 -21.519531 11.46875 -21.15625 C 11.613281 -22.707031 11.625 -24.269531 11.5 -25.84375 C 11.375 -27.414062 11.273438 -29.054688 11.203125 -30.765625 C 11.203125 -31.015625 11.3125 -31.191406 11.53125 -31.296875 C 11.757812 -31.410156 12.015625 -31.484375 12.296875 -31.515625 C 12.585938 -31.554688 12.863281 -31.5625 13.125 -31.53125 C 13.382812 -31.507812 13.550781 -31.460938 13.625 -31.390625 C 13.59375 -29.171875 13.570312 -27.128906 13.5625 -25.265625 C 13.550781 -23.410156 13.546875 -21.660156 13.546875 -20.015625 C 13.546875 -18.367188 13.546875 -16.78125 13.546875 -15.25 C 13.546875 -13.71875 13.550781 -12.144531 13.5625 -10.53125 C 13.570312 -8.925781 13.582031 -7.234375 13.59375 -5.453125 C 13.613281 -3.671875 13.625 -1.71875 13.625 0.40625 C 13.75 0.800781 13.71875 1.132812 13.53125 1.40625 C 13.34375 1.675781 13.113281 1.847656 12.84375 1.921875 C 12.570312 2.003906 12.289062 1.96875 12 1.8125 C 11.71875 1.664062 11.539062 1.382812 11.46875 0.96875 Z M 9.90625 -19.109375 C 8.96875 -19.253906 8.082031 -19 7.25 -18.34375 C 6.425781 -17.695312 5.691406 -16.804688 5.046875 -15.671875 C 4.398438 -14.546875 3.867188 -13.285156 3.453125 -11.890625 C 3.035156 -10.492188 2.769531 -9.144531 2.65625 -7.84375 C 2.539062 -6.550781 2.59375 -5.382812 2.8125 -4.34375 C 3.039062 -3.300781 3.476562 -2.582031 4.125 -2.1875 C 4.738281 -2.1875 5.34375 -2.398438 5.9375 -2.828125 C 6.53125 -3.265625 7.09375 -3.816406 7.625 -4.484375 C 8.15625 -5.160156 8.648438 -5.910156 9.109375 -6.734375 C 9.566406 -7.566406 9.96875 -8.378906 10.3125 -9.171875 C 10.664062 -9.960938 10.929688 -10.6875 11.109375 -11.34375 C 11.296875 -12 11.390625 -12.5 11.390625 -12.84375 C 11.390625 -13.113281 11.390625 -13.59375 11.390625 -14.28125 C 11.390625 -14.976562 11.347656 -15.6875 11.265625 -16.40625 C 11.179688 -17.125 11.03125 -17.753906 10.8125 -18.296875 C 10.601562 -18.835938 10.300781 -19.109375 9.90625 -19.109375 Z M 9.90625 -19.109375 "/></g></g></g><g fill="#191937" fill-opacity="1"><g transform="translate(253.037075, 197.074264)"><g><path d="M 2.234375 -9.90625 C 2.054688 -9.757812 1.75 -9.703125 1.3125 -9.734375 C 0.882812 -9.773438 0.488281 -9.867188 0.125 -10.015625 C -0.226562 -10.171875 -0.46875 -10.375 -0.59375 -10.625 C -0.71875 -10.882812 -0.570312 -11.191406 -0.15625 -11.546875 C 0.0195312 -11.691406 0.210938 -11.796875 0.421875 -11.859375 C 0.640625 -11.921875 0.851562 -11.984375 1.0625 -12.046875 C 1.269531 -12.109375 1.441406 -12.195312 1.578125 -12.3125 C 1.710938 -12.4375 1.789062 -12.640625 1.8125 -12.921875 C 1.84375 -14.023438 1.9375 -15.160156 2.09375 -16.328125 C 2.257812 -17.492188 2.5625 -18.53125 3 -19.4375 C 3.445312 -20.351562 4.082031 -21.082031 4.90625 -21.625 C 5.738281 -22.175781 6.835938 -22.390625 8.203125 -22.265625 C 8.691406 -22.265625 9.242188 -22.144531 9.859375 -21.90625 C 10.484375 -21.675781 11.078125 -21.367188 11.640625 -20.984375 C 12.210938 -20.597656 12.707031 -20.140625 13.125 -19.609375 C 13.550781 -19.078125 13.816406 -18.503906 13.921875 -17.890625 C 14.085938 -17.640625 13.984375 -17.328125 13.609375 -16.953125 C 13.242188 -16.585938 12.726562 -16.175781 12.0625 -15.71875 C 11.394531 -15.257812 10.640625 -14.796875 9.796875 -14.328125 C 8.953125 -13.859375 8.140625 -13.410156 7.359375 -12.984375 C 6.585938 -12.566406 5.90625 -12.195312 5.3125 -11.875 C 4.71875 -11.550781 4.332031 -11.328125 4.15625 -11.203125 C 4.300781 -10.242188 4.460938 -9.226562 4.640625 -8.15625 C 4.816406 -7.09375 5.0625 -6.113281 5.375 -5.21875 C 5.695312 -4.332031 6.097656 -3.597656 6.578125 -3.015625 C 7.066406 -2.441406 7.679688 -2.15625 8.421875 -2.15625 C 9.515625 -2.082031 10.445312 -2.242188 11.21875 -2.640625 C 12 -3.035156 12.648438 -3.550781 13.171875 -4.1875 C 13.691406 -4.832031 14.101562 -5.535156 14.40625 -6.296875 C 14.71875 -7.066406 14.953125 -7.796875 15.109375 -8.484375 C 15.273438 -9.179688 15.390625 -9.769531 15.453125 -10.25 C 15.515625 -10.738281 15.570312 -11.007812 15.625 -11.0625 C 15.894531 -11.207031 16.203125 -11.210938 16.546875 -11.078125 C 16.898438 -10.941406 17.097656 -10.578125 17.140625 -9.984375 C 17.171875 -9.015625 16.960938 -7.910156 16.515625 -6.671875 C 16.066406 -5.441406 15.453125 -4.304688 14.671875 -3.265625 C 13.898438 -2.222656 12.972656 -1.382812 11.890625 -0.75 C 10.816406 -0.125 9.675781 0.0859375 8.46875 -0.109375 C 7.195312 -0.140625 6.191406 -0.503906 5.453125 -1.203125 C 4.710938 -1.910156 4.125 -2.765625 3.6875 -3.765625 C 3.257812 -4.765625 2.945312 -5.820312 2.75 -6.9375 C 2.550781 -8.050781 2.378906 -9.039062 2.234375 -9.90625 Z M 11.953125 -17.890625 C 11.160156 -18.972656 10.351562 -19.660156 9.53125 -19.953125 C 8.71875 -20.253906 7.878906 -20.34375 7.015625 -20.21875 C 6.492188 -20.144531 6.035156 -19.90625 5.640625 -19.5 C 5.242188 -19.09375 4.921875 -18.570312 4.671875 -17.9375 C 4.429688 -17.3125 4.257812 -16.609375 4.15625 -15.828125 C 4.0625 -15.046875 4.050781 -14.25 4.125 -13.4375 Z M 11.953125 -17.890625 "/></g></g></g><g clip-path="url(#ac0bf1da0f)"><path fill="#191937" d="M 283.554688 170.277344 C 283.316406 169.753906 283.070312 169.253906 282.78125 168.789062 C 282.710938 168.667969 282.644531 168.558594 282.566406 168.4375 C 282.5 168.3125 282.421875 168.214844 282.34375 168.09375 C 282.261719 167.980469 282.183594 167.871094 282.117188 167.757812 C 282.039062 167.648438 281.972656 167.539062 281.882812 167.4375 C 281.726562 167.226562 281.558594 167.015625 281.398438 166.816406 C 281.230469 166.617188 281.0625 166.429688 280.894531 166.230469 C 280.738281 166.03125 280.558594 165.851562 280.378906 165.675781 C 280.199219 165.5 280.042969 165.320312 279.863281 165.15625 C 279.683594 164.988281 279.515625 164.832031 279.335938 164.667969 C 279.15625 164.511719 278.976562 164.367188 278.808594 164.222656 C 278.460938 163.925781 278.101562 163.679688 277.753906 163.414062 C 276.351562 162.429688 275.019531 161.773438 273.886719 161.308594 C 271.621094 160.390625 270.238281 160.222656 270.261719 160.046875 C 270.273438 159.980469 270.621094 159.957031 271.292969 159.992188 C 271.460938 160 271.640625 160.035156 271.84375 160.058594 C 272.046875 160.089844 272.269531 160.113281 272.515625 160.15625 C 272.753906 160.210938 273.011719 160.257812 273.289062 160.324219 C 273.570312 160.390625 273.851562 160.476562 274.15625 160.554688 C 275.378906 160.921875 276.835938 161.507812 278.394531 162.460938 C 278.777344 162.71875 279.179688 162.949219 279.5625 163.25 C 279.75 163.394531 279.964844 163.539062 280.15625 163.691406 C 280.347656 163.847656 280.546875 164.015625 280.738281 164.179688 C 280.941406 164.335938 281.121094 164.535156 281.320312 164.710938 C 281.511719 164.890625 281.714844 165.078125 281.90625 165.277344 C 282.09375 165.476562 282.285156 165.675781 282.476562 165.886719 C 282.65625 166.097656 282.835938 166.320312 283.027344 166.539062 C 283.128906 166.652344 283.207031 166.761719 283.296875 166.882812 C 283.386719 167.007812 283.476562 167.117188 283.554688 167.238281 C 283.644531 167.359375 283.734375 167.472656 283.8125 167.605469 C 283.890625 167.726562 283.980469 167.859375 284.058594 167.980469 C 284.394531 168.480469 284.699219 169.035156 284.976562 169.597656 C 285.527344 170.730469 285.976562 171.960938 286.324219 173.269531 C 286.660156 174.574219 286.882812 175.960938 286.941406 177.414062 C 286.972656 178.144531 286.941406 178.886719 286.839844 179.640625 C 286.75 180.394531 286.59375 181.167969 286.324219 181.921875 C 286.054688 182.6875 285.695312 183.441406 285.191406 184.128906 C 284.976562 184.429688 284.730469 184.714844 284.472656 184.980469 C 284.550781 185.136719 284.628906 185.292969 284.707031 185.449219 C 285.4375 186.953125 285.964844 188.496094 286.359375 190.015625 C 286.75 191.542969 287.007812 193.0625 287.175781 194.546875 C 287.488281 197.527344 287.378906 200.398438 286.882812 203.035156 C 286.390625 205.664062 285.484375 208.066406 284.179688 210.007812 C 283.53125 210.972656 282.789062 211.8125 282.003906 212.511719 C 281.210938 213.210938 280.367188 213.753906 279.527344 214.164062 C 277.84375 214.984375 276.25 215.261719 274.984375 215.335938 C 273.707031 215.402344 272.71875 215.304688 272.058594 215.195312 C 271.394531 215.070312 271.070312 214.960938 271.070312 214.894531 C 271.082031 214.816406 271.429688 214.792969 272.078125 214.785156 C 272.730469 214.761719 273.683594 214.726562 274.882812 214.550781 C 276.074219 214.363281 277.519531 213.984375 278.976562 213.15625 C 279.707031 212.746094 280.425781 212.210938 281.109375 211.558594 C 281.78125 210.894531 282.410156 210.117188 282.960938 209.21875 C 284.046875 207.4375 284.808594 205.195312 285.203125 202.738281 C 285.59375 200.265625 285.628906 197.550781 285.292969 194.746094 C 285.113281 193.339844 284.855469 191.921875 284.460938 190.492188 C 284.070312 189.070312 283.574219 187.640625 282.902344 186.300781 C 282.890625 186.269531 282.871094 186.246094 282.859375 186.210938 C 282.253906 186.554688 281.589844 186.832031 280.929688 187.019531 C 280.03125 187.253906 279.125 187.332031 278.214844 187.253906 C 277.753906 187.222656 277.304688 187.132812 276.847656 187.019531 L 276.511719 186.921875 L 276.339844 186.867188 L 275.835938 186.667969 L 275.511719 186.511719 L 275.34375 186.433594 L 275.1875 186.335938 C 275.085938 186.269531 274.972656 186.210938 274.871094 186.144531 C 274.671875 185.992188 274.46875 185.859375 274.277344 185.679688 C 273.898438 185.347656 273.570312 184.9375 273.300781 184.472656 C 273.234375 184.351562 273.179688 184.230469 273.113281 184.105469 C 273.066406 183.972656 273.011719 183.839844 272.964844 183.707031 C 272.941406 183.640625 272.921875 183.574219 272.910156 183.496094 L 272.863281 183.277344 C 272.832031 183.132812 272.832031 182.976562 272.832031 182.832031 C 272.820312 182.222656 273.011719 181.601562 273.347656 181.101562 C 273.671875 180.605469 274.121094 180.214844 274.601562 179.929688 C 275.085938 179.640625 275.625 179.472656 276.164062 179.398438 C 276.296875 179.375 276.429688 179.363281 276.566406 179.351562 C 276.699219 179.339844 276.835938 179.339844 276.957031 179.339844 C 277.082031 179.351562 277.214844 179.339844 277.339844 179.363281 L 277.722656 179.40625 C 278.214844 179.484375 278.695312 179.605469 279.15625 179.785156 C 279.617188 179.949219 280.042969 180.171875 280.445312 180.417969 C 280.851562 180.660156 281.230469 180.9375 281.578125 181.234375 C 282.285156 181.824219 282.890625 182.523438 283.386719 183.242188 C 283.386719 183.253906 283.394531 183.253906 283.394531 183.265625 C 283.878906 182.6875 284.25 182.023438 284.507812 181.3125 C 284.730469 180.703125 284.875 180.050781 284.964844 179.40625 C 285.054688 178.753906 285.101562 178.101562 285.089844 177.445312 C 285.078125 176.136719 284.898438 174.863281 284.628906 173.65625 C 284.40625 172.46875 284.023438 171.316406 283.554688 170.277344 Z M 280.300781 182.800781 C 280.019531 182.566406 279.730469 182.355469 279.425781 182.167969 C 279.125 181.988281 278.796875 181.824219 278.472656 181.703125 C 278.148438 181.578125 277.8125 181.492188 277.472656 181.445312 L 277.214844 181.425781 C 277.125 181.414062 277.046875 181.414062 276.957031 181.414062 C 276.867188 181.402344 276.800781 181.414062 276.722656 181.425781 C 276.644531 181.425781 276.566406 181.425781 276.5 181.445312 C 275.894531 181.523438 275.355469 181.847656 275.097656 182.246094 C 274.972656 182.445312 274.90625 182.644531 274.90625 182.855469 C 274.90625 182.910156 274.894531 182.964844 274.917969 183.019531 L 274.929688 183.109375 C 274.929688 183.140625 274.941406 183.164062 274.949219 183.199219 C 274.972656 183.253906 274.996094 183.320312 275.007812 183.375 C 275.039062 183.429688 275.074219 183.496094 275.097656 183.550781 C 275.242188 183.796875 275.421875 184.050781 275.65625 184.25 C 275.757812 184.363281 275.902344 184.449219 276.027344 184.550781 L 276.230469 184.671875 L 276.332031 184.738281 L 276.667969 184.90625 L 276.902344 184.992188 L 277.015625 185.039062 L 277.136719 185.070312 L 277.382812 185.148438 C 277.722656 185.226562 278.058594 185.304688 278.394531 185.324219 C 279.078125 185.402344 279.773438 185.335938 280.402344 185.183594 C 280.929688 185.039062 281.421875 184.839844 281.871094 184.582031 C 281.835938 184.527344 281.804688 184.472656 281.757812 184.417969 C 281.332031 183.808594 280.863281 183.265625 280.300781 182.800781 Z M 280.300781 182.800781 " fill-opacity="1" fill-rule="nonzero"/></g><g fill="#191937" fill-opacity="1"><g transform="translate(145.857417, 228.574276)"><g><path d="M 3.871094 0 C 3.386719 0 2.945312 -0.117188 2.539062 -0.351562 C 2.136719 -0.585938 1.820312 -0.90625 1.582031 -1.308594 C 1.347656 -1.710938 1.230469 -2.15625 1.230469 -2.640625 L 1.230469 -13.199219 C 1.230469 -13.683594 1.347656 -14.125 1.582031 -14.53125 C 1.820312 -14.933594 2.136719 -15.25 2.539062 -15.484375 C 2.945312 -15.722656 3.386719 -15.839844 3.871094 -15.839844 L 17.027344 -15.839844 L 17.027344 -14.054688 L 3.871094 -14.054688 C 3.636719 -14.054688 3.433594 -13.972656 3.265625 -13.804688 C 3.097656 -13.636719 3.011719 -13.433594 3.011719 -13.199219 L 3.011719 -2.640625 C 3.011719 -2.40625 3.097656 -2.203125 3.265625 -2.035156 C 3.433594 -1.867188 3.636719 -1.78125 3.871094 -1.78125 L 17.027344 -1.78125 L 17.027344 0 Z M 3.871094 0 "/></g></g></g><g fill="#191937" fill-opacity="1"><g transform="translate(163.9382, 228.574276)"><g><path d="M 3.828125 0 C 3.34375 0 2.898438 -0.117188 2.496094 -0.351562 C 2.09375 -0.585938 1.773438 -0.90625 1.539062 -1.308594 C 1.304688 -1.710938 1.1875 -2.15625 1.1875 -2.640625 L 1.1875 -13.199219 C 1.1875 -13.683594 1.304688 -14.125 1.539062 -14.53125 C 1.773438 -14.933594 2.09375 -15.25 2.496094 -15.484375 C 2.898438 -15.722656 3.34375 -15.839844 3.828125 -15.839844 L 14.386719 -15.839844 C 14.871094 -15.839844 15.3125 -15.722656 15.71875 -15.484375 C 16.121094 -15.25 16.441406 -14.933594 16.675781 -14.53125 C 16.910156 -14.125 17.027344 -13.683594 17.027344 -13.199219 L 17.027344 -2.640625 C 17.027344 -2.15625 16.910156 -1.710938 16.675781 -1.308594 C 16.441406 -0.90625 16.121094 -0.585938 15.71875 -0.351562 C 15.3125 -0.117188 14.871094 0 14.386719 0 Z M 3.828125 -1.78125 L 14.386719 -1.78125 C 14.621094 -1.78125 14.824219 -1.867188 14.992188 -2.035156 C 15.160156 -2.203125 15.246094 -2.40625 15.246094 -2.640625 L 15.246094 -13.199219 C 15.246094 -13.433594 15.160156 -13.636719 14.992188 -13.804688 C 14.824219 -13.972656 14.621094 -14.054688 14.386719 -14.054688 L 3.828125 -14.054688 C 3.59375 -14.054688 3.390625 -13.972656 3.222656 -13.804688 C 3.054688 -13.636719 2.96875 -13.433594 2.96875 -13.199219 L 2.96875 -2.640625 C 2.96875 -2.40625 3.054688 -2.203125 3.222656 -2.035156 C 3.390625 -1.867188 3.59375 -1.78125 3.828125 -1.78125 Z M 3.828125 -1.78125 "/></g></g></g><g fill="#191937" fill-opacity="1"><g transform="translate(182.150956, 228.574276)"><g><path d="M 1.296875 -7.414062 L 9.875 -7.414062 L 9.875 -5.609375 L 1.296875 -5.609375 Z M 1.296875 -7.414062 "/></g></g></g><g fill="#191937" fill-opacity="1"><g transform="translate(193.522926, 228.574276)"><g><path d="M 3.828125 0 C 3.34375 0 2.898438 -0.117188 2.496094 -0.351562 C 2.09375 -0.585938 1.773438 -0.90625 1.539062 -1.308594 C 1.304688 -1.710938 1.1875 -2.15625 1.1875 -2.640625 L 1.1875 -13.199219 C 1.1875 -13.683594 1.304688 -14.125 1.539062 -14.53125 C 1.773438 -14.933594 2.09375 -15.25 2.496094 -15.484375 C 2.898438 -15.722656 3.34375 -15.839844 3.828125 -15.839844 L 14.386719 -15.839844 C 14.871094 -15.839844 15.3125 -15.722656 15.71875 -15.484375 C 16.121094 -15.25 16.441406 -14.933594 16.675781 -14.53125 C 16.910156 -14.125 17.027344 -13.683594 17.027344 -13.199219 L 17.027344 -2.640625 C 17.027344 -2.15625 16.910156 -1.710938 16.675781 -1.308594 C 16.441406 -0.90625 16.121094 -0.585938 15.71875 -0.351562 C 15.3125 -0.117188 14.871094 0 14.386719 0 Z M 3.828125 -1.78125 L 14.386719 -1.78125 C 14.621094 -1.78125 14.824219 -1.867188 14.992188 -2.035156 C 15.160156 -2.203125 15.246094 -2.40625 15.246094 -2.640625 L 15.246094 -13.199219 C 15.246094 -13.433594 15.160156 -13.636719 14.992188 -13.804688 C 14.824219 -13.972656 14.621094 -14.054688 14.386719 -14.054688 L 3.828125 -14.054688 C 3.59375 -14.054688 3.390625 -13.972656 3.222656 -13.804688 C 3.054688 -13.636719 2.96875 -13.433594 2.96875 -13.199219 L 2.96875 -2.640625 C 2.96875 -2.40625 3.054688 -2.203125 3.222656 -2.035156 C 3.390625 -1.867188 3.59375 -1.78125 3.828125 -1.78125 Z M 3.828125 -1.78125 "/></g></g></g><g fill="#191937" fill-opacity="1"><g transform="translate(211.735682, 228.574276)"><g><path d="M 1.230469 0 L 1.230469 -15.816406 L 14.429688 -15.816406 C 14.914062 -15.816406 15.359375 -15.695312 15.761719 -15.453125 C 16.164062 -15.210938 16.484375 -14.890625 16.71875 -14.496094 C 16.953125 -14.101562 17.070312 -13.660156 17.070312 -13.175781 L 17.070312 -8.535156 C 17.070312 -8.050781 16.953125 -7.609375 16.71875 -7.214844 C 16.484375 -6.820312 16.164062 -6.5 15.761719 -6.257812 C 15.359375 -6.015625 14.914062 -5.894531 14.429688 -5.894531 L 3.011719 -5.894531 L 3.011719 0 Z M 3.871094 -7.699219 L 14.429688 -7.699219 C 14.664062 -7.699219 14.867188 -7.78125 15.035156 -7.941406 C 15.203125 -8.101562 15.289062 -8.300781 15.289062 -8.535156 L 15.289062 -13.175781 C 15.289062 -13.410156 15.203125 -13.613281 15.035156 -13.78125 C 14.867188 -13.949219 14.664062 -14.035156 14.429688 -14.035156 L 3.871094 -14.035156 C 3.636719 -14.035156 3.433594 -13.949219 3.265625 -13.78125 C 3.097656 -13.613281 3.011719 -13.410156 3.011719 -13.175781 L 3.011719 -8.535156 C 3.011719 -8.300781 3.097656 -8.101562 3.265625 -7.941406 C 3.433594 -7.78125 3.636719 -7.699219 3.871094 -7.699219 Z M 3.871094 -7.699219 "/></g></g></g><g fill="#191937" fill-opacity="1"><g transform="translate(149.050776, 155.581718)"><g><path d="M 0.75 0 L 0.75 -9.316406 L 9.25 -9.316406 L 9.25 -8.265625 L 1.796875 -8.265625 L 1.796875 -5.1875 L 7.789062 -5.1875 L 7.789062 -4.128906 L 1.796875 -4.128906 L 1.796875 -1.046875 L 9.25 -1.046875 L 9.25 0 Z M 0.75 0 "/></g></g></g><g fill="#191937" fill-opacity="1"><g transform="translate(158.960935, 155.581718)"><g><path d="M 2.210938 0 C 1.925781 0 1.667969 -0.0703125 1.429688 -0.207031 C 1.191406 -0.34375 1.003906 -0.53125 0.867188 -0.769531 C 0.730469 -1.007812 0.660156 -1.269531 0.660156 -1.550781 L 0.660156 -1.914062 L 1.707031 -1.914062 L 1.707031 -1.550781 C 1.707031 -1.414062 1.757812 -1.296875 1.855469 -1.195312 C 1.957031 -1.097656 2.074219 -1.046875 2.210938 -1.046875 L 8.421875 -1.046875 C 8.558594 -1.046875 8.679688 -1.097656 8.777344 -1.195312 C 8.878906 -1.296875 8.925781 -1.414062 8.925781 -1.550781 L 8.925781 -3.636719 C 8.925781 -3.773438 8.878906 -3.890625 8.777344 -3.984375 C 8.679688 -4.078125 8.558594 -4.128906 8.421875 -4.128906 L 2.210938 -4.128906 C 1.925781 -4.128906 1.667969 -4.199219 1.429688 -4.339844 C 1.191406 -4.484375 1.003906 -4.671875 0.867188 -4.902344 C 0.730469 -5.136719 0.660156 -5.394531 0.660156 -5.679688 L 0.660156 -7.761719 C 0.660156 -8.046875 0.730469 -8.308594 0.867188 -8.546875 C 1.003906 -8.78125 1.191406 -8.96875 1.429688 -9.109375 C 1.667969 -9.246094 1.925781 -9.316406 2.210938 -9.316406 L 8.421875 -9.316406 C 8.707031 -9.316406 8.96875 -9.246094 9.203125 -9.109375 C 9.441406 -8.96875 9.628906 -8.78125 9.769531 -8.546875 C 9.90625 -8.308594 9.976562 -8.046875 9.976562 -7.761719 L 9.976562 -7.398438 L 8.925781 -7.398438 L 8.925781 -7.761719 C 8.925781 -7.902344 8.878906 -8.019531 8.777344 -8.117188 C 8.679688 -8.21875 8.558594 -8.265625 8.421875 -8.265625 L 2.210938 -8.265625 C 2.074219 -8.265625 1.957031 -8.21875 1.855469 -8.117188 C 1.757812 -8.019531 1.707031 -7.902344 1.707031 -7.761719 L 1.707031 -5.679688 C 1.707031 -5.542969 1.757812 -5.425781 1.855469 -5.332031 C 1.957031 -5.234375 2.074219 -5.1875 2.210938 -5.1875 L 8.421875 -5.1875 C 8.707031 -5.1875 8.96875 -5.117188 9.203125 -4.972656 C 9.441406 -4.832031 9.628906 -4.644531 9.769531 -4.410156 C 9.90625 -4.179688 9.976562 -3.921875 9.976562 -3.636719 L 9.976562 -1.550781 C 9.976562 -1.269531 9.90625 -1.007812 9.769531 -0.769531 C 9.628906 -0.53125 9.441406 -0.34375 9.203125 -0.207031 C 8.96875 -0.0703125 8.707031 0 8.421875 0 Z M 2.210938 0 "/></g></g></g><g fill="#191937" fill-opacity="1"><g transform="translate(169.595597, 155.581718)"><g><path d="M 4.398438 0 L 4.398438 -8.265625 L 0.257812 -8.265625 L 0.257812 -9.316406 L 9.574219 -9.316406 L 9.574219 -8.265625 L 5.445312 -8.265625 L 5.445312 0 Z M 4.398438 0 "/></g></g></g><g fill="#191937" fill-opacity="1"><g transform="translate(179.415199, 155.581718)"><g/></g></g><g fill="#191937" fill-opacity="1"><g transform="translate(182.934211, 155.581718)"><g><path d="M 0.738281 0 L 0.738281 -3.492188 C 0.738281 -3.785156 0.804688 -4.050781 0.945312 -4.289062 C 1.082031 -4.527344 1.269531 -4.714844 1.507812 -4.851562 C 1.746094 -4.988281 2.007812 -5.058594 2.304688 -5.058594 L 8.578125 -5.058594 C 8.714844 -5.058594 8.835938 -5.109375 8.933594 -5.207031 C 9.03125 -5.304688 9.082031 -5.425781 9.082031 -5.5625 L 9.082031 -7.75 C 9.082031 -7.886719 9.03125 -8.007812 8.933594 -8.105469 C 8.835938 -8.203125 8.714844 -8.253906 8.578125 -8.253906 L 2.304688 -8.253906 C 2.164062 -8.253906 2.046875 -8.203125 1.945312 -8.105469 C 1.847656 -8.007812 1.796875 -7.886719 1.796875 -7.75 L 1.796875 -7.386719 L 0.738281 -7.386719 L 0.738281 -7.75 C 0.738281 -8.042969 0.804688 -8.308594 0.945312 -8.546875 C 1.082031 -8.78125 1.269531 -8.972656 1.507812 -9.113281 C 1.746094 -9.257812 2.007812 -9.328125 2.304688 -9.328125 L 8.578125 -9.328125 C 8.863281 -9.328125 9.125 -9.257812 9.359375 -9.113281 C 9.597656 -8.972656 9.789062 -8.78125 9.929688 -8.546875 C 10.070312 -8.308594 10.144531 -8.042969 10.144531 -7.75 L 10.144531 -5.5625 C 10.144531 -5.277344 10.070312 -5.019531 9.929688 -4.78125 C 9.789062 -4.542969 9.597656 -4.351562 9.359375 -4.210938 C 9.125 -4.070312 8.863281 -3.996094 8.578125 -3.996094 L 2.304688 -3.996094 C 2.164062 -3.996094 2.046875 -3.949219 1.945312 -3.847656 C 1.847656 -3.75 1.796875 -3.632812 1.796875 -3.492188 L 1.796875 -1.566406 C 1.796875 -1.425781 1.847656 -1.308594 1.945312 -1.210938 C 2.046875 -1.109375 2.164062 -1.0625 2.304688 -1.0625 L 10.144531 -1.0625 L 10.144531 0 Z M 0.738281 0 "/></g></g></g><g fill="#191937" fill-opacity="1"><g transform="translate(193.672374, 155.581718)"><g><path d="M 2.304688 0 C 2.007812 0 1.746094 -0.0703125 1.507812 -0.214844 C 1.269531 -0.355469 1.082031 -0.546875 0.945312 -0.78125 C 0.804688 -1.019531 0.738281 -1.28125 0.738281 -1.566406 L 0.738281 -7.738281 C 0.738281 -8.03125 0.804688 -8.296875 0.945312 -8.53125 C 1.082031 -8.769531 1.269531 -8.960938 1.507812 -9.101562 C 1.746094 -9.242188 2.007812 -9.316406 2.304688 -9.316406 L 8.578125 -9.316406 C 8.863281 -9.316406 9.125 -9.242188 9.359375 -9.101562 C 9.597656 -8.960938 9.789062 -8.769531 9.929688 -8.53125 C 10.070312 -8.296875 10.144531 -8.03125 10.144531 -7.738281 L 10.144531 -1.566406 C 10.144531 -1.28125 10.070312 -1.019531 9.929688 -0.78125 C 9.789062 -0.546875 9.597656 -0.355469 9.359375 -0.214844 C 9.125 -0.0703125 8.863281 0 8.578125 0 Z M 1.925781 -1.0625 L 8.578125 -1.0625 C 8.714844 -1.0625 8.835938 -1.109375 8.933594 -1.210938 C 9.03125 -1.308594 9.082031 -1.425781 9.082031 -1.566406 L 9.082031 -6.960938 Z M 1.796875 -2.339844 L 8.941406 -8.242188 L 2.304688 -8.242188 C 2.164062 -8.242188 2.046875 -8.191406 1.945312 -8.09375 C 1.847656 -7.992188 1.796875 -7.875 1.796875 -7.738281 Z M 1.796875 -2.339844 "/></g></g></g><g fill="#191937" fill-opacity="1"><g transform="translate(204.462286, 155.581718)"><g><path d="M 0.738281 0 L 0.738281 -3.492188 C 0.738281 -3.785156 0.804688 -4.050781 0.945312 -4.289062 C 1.082031 -4.527344 1.269531 -4.714844 1.507812 -4.851562 C 1.746094 -4.988281 2.007812 -5.058594 2.304688 -5.058594 L 8.578125 -5.058594 C 8.714844 -5.058594 8.835938 -5.109375 8.933594 -5.207031 C 9.03125 -5.304688 9.082031 -5.425781 9.082031 -5.5625 L 9.082031 -7.75 C 9.082031 -7.886719 9.03125 -8.007812 8.933594 -8.105469 C 8.835938 -8.203125 8.714844 -8.253906 8.578125 -8.253906 L 2.304688 -8.253906 C 2.164062 -8.253906 2.046875 -8.203125 1.945312 -8.105469 C 1.847656 -8.007812 1.796875 -7.886719 1.796875 -7.75 L 1.796875 -7.386719 L 0.738281 -7.386719 L 0.738281 -7.75 C 0.738281 -8.042969 0.804688 -8.308594 0.945312 -8.546875 C 1.082031 -8.78125 1.269531 -8.972656 1.507812 -9.113281 C 1.746094 -9.257812 2.007812 -9.328125 2.304688 -9.328125 L 8.578125 -9.328125 C 8.863281 -9.328125 9.125 -9.257812 9.359375 -9.113281 C 9.597656 -8.972656 9.789062 -8.78125 9.929688 -8.546875 C 10.070312 -8.308594 10.144531 -8.042969 10.144531 -7.75 L 10.144531 -5.5625 C 10.144531 -5.277344 10.070312 -5.019531 9.929688 -4.78125 C 9.789062 -4.542969 9.597656 -4.351562 9.359375 -4.210938 C 9.125 -4.070312 8.863281 -3.996094 8.578125 -3.996094 L 2.304688 -3.996094 C 2.164062 -3.996094 2.046875 -3.949219 1.945312 -3.847656 C 1.847656 -3.75 1.796875 -3.632812 1.796875 -3.492188 L 1.796875 -1.566406 C 1.796875 -1.425781 1.847656 -1.308594 1.945312 -1.210938 C 2.046875 -1.109375 2.164062 -1.0625 2.304688 -1.0625 L 10.144531 -1.0625 L 10.144531 0 Z M 0.738281 0 "/></g></g></g><g fill="#191937" fill-opacity="1"><g transform="translate(215.200449, 155.581718)"><g><path d="M 0.738281 0 L 0.738281 -3.492188 C 0.738281 -3.785156 0.804688 -4.050781 0.945312 -4.289062 C 1.082031 -4.527344 1.269531 -4.714844 1.507812 -4.851562 C 1.746094 -4.988281 2.007812 -5.058594 2.304688 -5.058594 L 8.578125 -5.058594 C 8.714844 -5.058594 8.835938 -5.109375 8.933594 -5.207031 C 9.03125 -5.304688 9.082031 -5.425781 9.082031 -5.5625 L 9.082031 -7.75 C 9.082031 -7.886719 9.03125 -8.007812 8.933594 -8.105469 C 8.835938 -8.203125 8.714844 -8.253906 8.578125 -8.253906 L 2.304688 -8.253906 C 2.164062 -8.253906 2.046875 -8.203125 1.945312 -8.105469 C 1.847656 -8.007812 1.796875 -7.886719 1.796875 -7.75 L 1.796875 -7.386719 L 0.738281 -7.386719 L 0.738281 -7.75 C 0.738281 -8.042969 0.804688 -8.308594 0.945312 -8.546875 C 1.082031 -8.78125 1.269531 -8.972656 1.507812 -9.113281 C 1.746094 -9.257812 2.007812 -9.328125 2.304688 -9.328125 L 8.578125 -9.328125 C 8.863281 -9.328125 9.125 -9.257812 9.359375 -9.113281 C 9.597656 -8.972656 9.789062 -8.78125 9.929688 -8.546875 C 10.070312 -8.308594 10.144531 -8.042969 10.144531 -7.75 L 10.144531 -5.5625 C 10.144531 -5.277344 10.070312 -5.019531 9.929688 -4.78125 C 9.789062 -4.542969 9.597656 -4.351562 9.359375 -4.210938 C 9.125 -4.070312 8.863281 -3.996094 8.578125 -3.996094 L 2.304688 -3.996094 C 2.164062 -3.996094 2.046875 -3.949219 1.945312 -3.847656 C 1.847656 -3.75 1.796875 -3.632812 1.796875 -3.492188 L 1.796875 -1.566406 C 1.796875 -1.425781 1.847656 -1.308594 1.945312 -1.210938 C 2.046875 -1.109375 2.164062 -1.0625 2.304688 -1.0625 L 10.144531 -1.0625 L 10.144531 0 Z M 0.738281 0 "/></g></g></g></svg>