<svg xmlns="http://www.w3.org/2000/svg" xmlns:xlink="http://www.w3.org/1999/xlink" width="500" zoomAndPan="magnify" viewBox="0 0 375 374.999991" height="500" preserveAspectRatio="xMidYMid meet" version="1.0"><defs><clipPath id="e8b833502f"><path d="M 0 37.5 L 375 37.5 L 375 330.75 L 0 330.75 Z M 0 37.5 " clip-rule="nonzero"/></clipPath></defs><g clip-path="url(#e8b833502f)"><path fill="#191937" d="M 91.476562 184.949219 L 147.476562 184.949219 L 147.476562 330.75 L 0.0625 330.75 L 0.0625 207.847656 C 0.0625 147.714844 14.722656 104.632812 43.957031 78.523438 C 73.191406 52.410156 114.863281 38.734375 168.886719 37.5 L 169.628906 96.644531 C 105.226562 103.398438 86.617188 131.570312 91.476562 184.949219 Z M 297.523438 184.949219 L 353.523438 184.949219 L 353.523438 330.75 L 206.113281 330.75 L 206.113281 207.847656 C 206.113281 147.714844 220.769531 104.632812 250.007812 78.523438 C 279.242188 52.410156 320.914062 38.734375 374.9375 37.5 L 374.9375 97.222656 C 310.535156 103.894531 292.664062 131.570312 297.523438 184.949219 Z M 297.523438 184.949219 " fill-opacity="1" fill-rule="nonzero"/></g></svg>