<svg xmlns="http://www.w3.org/2000/svg" xmlns:xlink="http://www.w3.org/1999/xlink" width="500" zoomAndPan="magnify" viewBox="0 0 375 374.999991" height="500" preserveAspectRatio="xMidYMid meet" version="1.0"><path fill="#741714" d="M 187.5 0.78125 C 83.953125 0.78125 0 84.734375 0 188.28125 C 0 282.28125 69.25 359.90625 159.46875 373.46875 L 159.46875 237.96875 L 113.078125 237.96875 L 113.078125 188.6875 L 159.46875 188.6875 L 159.46875 155.890625 C 159.46875 101.59375 185.921875 77.765625 231.046875 77.765625 C 252.65625 77.765625 264.09375 79.375 269.5 80.09375 L 269.5 123.109375 L 238.71875 123.109375 C 219.5625 123.109375 212.875 141.28125 212.875 161.75 L 212.875 188.6875 L 269.015625 188.6875 L 261.40625 237.96875 L 212.875 237.96875 L 212.875 373.859375 C 304.390625 361.453125 375 283.203125 375 188.28125 C 375 84.734375 291.046875 0.78125 187.5 0.78125 Z M 187.5 0.78125 " fill-opacity="1" fill-rule="nonzero"/></svg>