<svg xmlns="http://www.w3.org/2000/svg" xmlns:xlink="http://www.w3.org/1999/xlink" width="500" zoomAndPan="magnify" viewBox="0 0 375 374.999991" height="500" preserveAspectRatio="xMidYMid meet" version="1.0"><path fill="#741714" d="M 226.5625 373.625 C 224.796875 373.625 223.078125 373.03125 221.671875 371.90625 C 219.828125 370.421875 218.75 368.1875 218.75 365.8125 L 218.75 307.6875 C 218.75 293.640625 216.953125 283.671875 213.078125 276.359375 C 211.9375 274.21875 211.875 271.671875 212.875 269.46875 C 213.875 267.265625 215.859375 265.65625 218.21875 265.109375 C 264.53125 254.421875 296.875 220.53125 296.875 182.6875 C 296.875 163.9375 289.171875 146.046875 274.609375 130.9375 C 272.359375 128.609375 271.78125 125.15625 273.140625 122.21875 C 278.953125 109.6875 277.71875 92.625 270.828125 82.390625 C 261.71875 85.953125 249.890625 93.40625 242.203125 102.53125 C 240.109375 105.046875 236.65625 105.96875 233.546875 104.828125 C 204.25 94.078125 170.765625 94.078125 141.46875 104.828125 C 138.390625 105.953125 134.921875 105.046875 132.8125 102.546875 C 125.125 93.421875 113.296875 85.96875 104.171875 82.40625 C 97.28125 92.640625 96.046875 109.703125 101.859375 122.234375 C 103.21875 125.15625 102.640625 128.609375 100.390625 130.9375 C 85.828125 146.046875 78.125 163.953125 78.125 182.6875 C 78.125 218.734375 107.234375 251.203125 150.5625 263.46875 C 153.9375 264.4375 156.25 267.5 156.25 271 L 156.25 276.453125 C 156.25 286.234375 152.328125 291.75 149.03125 294.671875 C 141.96875 300.875 132.84375 299.9375 131.84375 299.828125 C 131.796875 299.828125 131.734375 299.828125 131.6875 299.828125 C 118.8125 299.828125 109.125 292.65625 99.765625 285.71875 C 95.0625 282.234375 90.296875 278.6875 84.75 275.75 C 85.953125 277.375 87.140625 279.046875 88.34375 280.71875 C 100.0625 297.015625 113.328125 315.5 132.828125 315.5 L 148.453125 315.5 C 152.765625 315.5 156.265625 319 156.265625 323.3125 L 156.265625 365.8125 C 156.265625 368.1875 155.1875 370.421875 153.34375 371.90625 C 151.484375 373.375 149.078125 373.921875 146.765625 373.4375 C 61.71875 354.5625 0 277.640625 0 190.5 C 0 87.109375 84.109375 3 187.5 3 C 290.890625 3 375 87.109375 375 190.5 C 375 277.625 313.28125 354.5625 228.25 373.4375 C 227.6875 373.5625 227.125 373.625 226.5625 373.625 Z M 230.59375 277.984375 C 233.15625 286.0625 234.375 295.75 234.375 307.6875 L 234.375 355.78125 C 307.359375 335.0625 359.375 267.078125 359.375 190.5 C 359.375 95.734375 282.265625 18.625 187.5 18.625 C 92.734375 18.625 15.625 95.734375 15.625 190.5 C 15.625 267.078125 67.640625 335.0625 140.625 355.78125 L 140.625 331.125 L 132.8125 331.125 C 105.3125 331.125 88.859375 308.234375 75.640625 289.828125 C 68.15625 279.40625 60.40625 268.625 54.6875 268.625 C 50.375 268.625 46.875 265.125 46.875 260.8125 C 46.875 256.5 50.375 253 54.6875 253 C 81.875 253 96.953125 264.171875 109.0625 273.15625 C 117.4375 279.359375 124.03125 284.25 132.8125 284.25 C 133.6875 284.296875 136.921875 284.53125 138.734375 282.90625 C 140.21875 281.5625 140.59375 278.890625 140.625 276.78125 C 93.65625 261.359375 62.5 224.15625 62.5 182.703125 C 62.5 161.390625 70.5 141.140625 85.6875 123.859375 C 78.984375 104.4375 83.125 80.71875 96.03125 67.796875 C 97.984375 65.828125 100.828125 65.03125 103.546875 65.765625 C 113.984375 68.53125 129.484375 76.640625 141.0625 88.4375 C 170.828125 78.734375 204.125 78.734375 233.890625 88.4375 C 245.46875 76.640625 260.96875 68.53125 271.40625 65.765625 C 274.109375 65.03125 276.953125 65.8125 278.921875 67.796875 C 291.84375 80.71875 295.96875 104.4375 289.265625 123.84375 C 304.5 141.140625 312.5 161.390625 312.5 182.6875 C 312.5 225.3125 279.265625 263.46875 230.59375 277.984375 Z M 230.59375 277.984375 " fill-opacity="1" fill-rule="nonzero"/></svg>